<svg width="22" height="26" viewBox="0 0 22 26" xmlns="http://www.w3.org/2000/svg">
<g filter="url(#filter0_d_13_3)">
<path fill-rule="evenodd" clip-rule="evenodd" d="M10.5288 1.62725L10.5289 1.62708L10.5306 1.62349L10.5409 1.60201C10.5506 1.58222 10.5657 1.5525 10.5854 1.51622C10.6255 1.44251 10.6819 1.34742 10.7491 1.25529C10.8183 1.16044 10.8868 1.08561 10.9472 1.03865C10.9732 1.01838 10.9912 1.00829 11.0016 1.00342C11.0119 1.00829 11.0299 1.01838 11.056 1.03865C11.1164 1.08561 11.1849 1.16044 11.2541 1.25529C11.3213 1.34742 11.3777 1.44251 11.4178 1.51622C11.4375 1.5525 11.4525 1.58222 11.4622 1.60201L11.4726 1.62349L11.4743 1.62708L11.4743 1.62725L11.4745 1.62754L11.4745 1.62762L11.4746 1.62788L11.5886 1.88045L11.8644 1.91694C12.4082 1.9889 13.1214 2.16212 13.7071 2.4379C14.328 2.73022 14.6372 3.05562 14.6861 3.3466C14.749 3.72087 14.8287 4.5261 14.9275 5.5239L14.9275 5.52404C15.0071 6.32781 15.0991 7.25653 15.2046 8.18559C15.3209 9.21027 15.453 10.2246 15.6013 11.0303C15.6753 11.4321 15.7553 11.7937 15.8429 12.0834C15.8866 12.2282 15.935 12.3646 15.9897 12.4833C16.041 12.5947 16.1135 12.7261 16.2195 12.8313L16.3062 12.9169C16.0468 12.9209 15.7521 12.9254 15.4294 12.9301C14.1933 12.9481 12.548 12.9696 10.9102 12.984C9.27163 12.9984 7.64339 13.0056 6.44043 12.9948C6.16259 12.9923 5.90871 12.9889 5.68344 12.9844C5.73567 12.9155 5.78991 12.8394 5.84649 12.7552C5.91244 12.657 5.96009 12.538 5.99548 12.437C6.03409 12.3267 6.0718 12.197 6.10863 12.0546C6.18241 11.7693 6.25911 11.408 6.33617 11.0002C6.49056 10.183 6.65138 9.15228 6.79696 8.11212C7.08563 6.04957 7.32399 3.88157 7.32399 3.26378C7.32399 3.22203 7.35926 3.09282 7.63021 2.89117C7.88219 2.70362 8.24038 2.52851 8.63022 2.37653C9.01434 2.22678 9.40229 2.1097 9.69664 2.02972C9.84314 1.98991 9.96488 1.95972 10.0494 1.93962C10.0916 1.92957 10.1244 1.92207 10.1462 1.91716L10.1706 1.91177L10.1762 1.91055L10.1772 1.91032L10.1773 1.91031L10.1774 1.9103L10.1774 1.91029L10.4249 1.85766L10.5285 1.62788L10.5287 1.62762L10.5287 1.62754L10.5288 1.62725ZM12.062 0.665974C12.1396 0.772406 12.2047 0.877084 12.2551 0.964817C12.8307 1.06226 13.5254 1.24702 14.1331 1.53317C14.8003 1.84734 15.5355 2.36643 15.6723 3.18096C15.7394 3.58083 15.8262 4.45339 15.9301 5.49927L15.9301 5.49934C16.0097 6.30032 16.0994 7.20295 16.1982 8.07277C16.3139 9.09215 16.4429 10.0787 16.5848 10.8492C16.6559 11.2355 16.7281 11.5559 16.8001 11.7942C16.8362 11.9135 16.8693 12.0027 16.8981 12.0651C16.9164 12.1049 16.9284 12.1238 16.9318 12.1292L16.9321 12.1296C17.2287 12.4237 17.4374 12.6163 17.5819 12.7498L17.6368 12.8005C17.705 12.8637 17.7731 12.9273 17.8233 12.9826C17.8486 13.0105 17.8856 13.0537 17.9179 13.1079C17.9493 13.1604 18.0001 13.2619 18.0001 13.3976V13.889L17.5088 13.8976L17.5001 13.3976C17.5088 13.8976 17.5087 13.8976 17.5086 13.8976L17.5082 13.8976L17.5063 13.8976L17.4991 13.8977L17.4707 13.8982L17.36 13.9001L16.9402 13.907C16.5787 13.9129 16.0625 13.921 15.4439 13.93C14.2068 13.948 12.5594 13.9696 10.9189 13.984C9.27922 13.9984 7.6437 14.0056 6.43149 13.9948C5.82658 13.9894 5.3211 13.9794 4.97176 13.9632C4.80009 13.9553 4.65231 13.9452 4.5462 13.9314C4.50196 13.9256 4.42687 13.9148 4.35616 13.8903L4.3541 13.8896C4.33294 13.8825 4.21411 13.8424 4.11959 13.7303C4.05552 13.6542 3.9849 13.5219 4.00283 13.3508C4.01938 13.193 4.10281 13.0905 4.1509 13.0427C4.23935 12.955 4.32491 12.8925 4.39392 12.8442L4.44264 12.8103C4.48977 12.7776 4.52606 12.7525 4.56936 12.7181C4.66751 12.6402 4.80793 12.5079 5.01641 12.1976L5.01423 12.2007C5.01416 12.2007 5.0146 12.1997 5.01551 12.1978C5.01943 12.1894 5.03216 12.1622 5.05169 12.1064C5.07768 12.0322 5.1075 11.9317 5.14049 11.8042C5.20632 11.5496 5.2783 11.2128 5.35355 10.8145C5.50377 10.0195 5.66208 9.00618 5.80661 7.97351C6.09816 5.89039 6.32399 3.79756 6.32399 3.26378C6.32399 2.72974 6.69487 2.34074 7.03315 2.08896C7.3904 1.82308 7.84452 1.60953 8.26699 1.44483C8.69519 1.2779 9.11955 1.15027 9.43443 1.06471C9.55057 1.03315 9.65268 1.00709 9.73564 0.986681C9.7876 0.894758 9.85699 0.781397 9.94119 0.665974C10.04 0.530508 10.1715 0.375021 10.3333 0.249241C10.4929 0.125117 10.7211 0 11.0016 0C11.2821 0 11.5103 0.125117 11.6699 0.249241C11.8316 0.375021 11.9632 0.530508 12.062 0.665974ZM11.3476 16.7038C11.3452 16.7063 11.344 16.7073 11.344 16.7072C11.344 16.7071 11.3452 16.7058 11.3476 16.7038ZM11.6538 16.7051C11.6554 16.7067 11.6561 16.7073 11.6562 16.7072C11.6562 16.7071 11.655 16.7058 11.6526 16.7038C11.653 16.7043 11.6535 16.7048 11.6538 16.7051ZM11.6526 15.6193C11.6549 15.6168 11.6561 15.6158 11.6562 15.6159C11.6562 15.616 11.655 15.6173 11.6526 15.6193ZM11.3448 15.6166C11.3443 15.6161 11.344 15.6159 11.344 15.6159C11.344 15.616 11.3452 15.6173 11.3476 15.6193C11.3464 15.618 11.3454 15.6171 11.3448 15.6166ZM12.5001 16.1616C12.5001 16.99 12.0524 17.6616 11.5001 17.6616C10.9478 17.6616 10.5001 16.99 10.5001 16.1616C10.5001 15.3331 10.9478 14.6616 11.5001 14.6616C12.0524 14.6616 12.5001 15.3331 12.5001 16.1616Z" />
</g>
<defs>
<filter id="filter0_d_13_3" x="0" y="0" width="22.0001" height="25.6616" filterUnits="userSpaceOnUse" color-interpolation-filters="sRGB">
<feFlood flood-opacity="0" result="BackgroundImageFix"/>
<feColorMatrix in="SourceAlpha" type="matrix" values="0 0 0 0 0 0 0 0 0 0 0 0 0 0 0 0 0 0 127 0" result="hardAlpha"/>
<feOffset dy="4"/>
<feGaussianBlur stdDeviation="2"/>
<feComposite in2="hardAlpha" operator="out"/>
<feColorMatrix type="matrix" values="0 0 0 0 0 0 0 0 0 0 0 0 0 0 0 0 0 0 0.25 0"/>
<feBlend mode="normal" in2="BackgroundImageFix" result="effect1_dropShadow_13_3"/>
<feBlend mode="normal" in="SourceGraphic" result="shape"/>
</filter>
</defs>
</svg>
