<svg width="58" height="47" viewBox="0 0 58 47" xmlns="http://www.w3.org/2000/svg">
<path fill-rule="evenodd" clip-rule="evenodd" d="M2.34424 0.376669C1.39012 0.817183 0.466011 1.81646 0.200897 2.69429C-0.0685738 3.58572 -0.0661534 34.8185 0.203317 35.7104C0.439386 36.4918 1.4332 37.632 2.18772 37.9871C2.52367 38.1452 2.75667 38.3711 2.75667 38.5388C2.75667 39.8736 4.20956 41.5807 5.62016 41.9032C6.04212 41.9997 7.98473 42.2564 9.93718 42.4738C20.7362 43.6759 24.5625 44.1025 33.657 45.1185C53.0697 47.2873 51.4339 47.1409 52.5006 46.8062C53.6305 46.4518 54.5651 45.6111 54.9304 44.6209C55.2239 43.8248 57.9648 15.5335 57.9978 12.9578C58.0128 11.7857 57.9527 11.3193 57.7347 10.9202C57.3338 10.1864 56.4151 9.31784 55.7469 9.04102C55.3022 8.85669 53.0714 8.47746 52.4324 8.47746C52.3707 8.47746 52.2959 7.19944 52.2662 5.63724C52.2176 3.09432 52.1757 2.72997 51.8644 2.15697C51.4097 1.31946 50.7694 0.731897 49.8737 0.329786C49.1542 0.00672064 48.9394 0.00384046 26.1538 0.00192031L3.16007 0L2.34424 0.376669ZM49.3414 2.23057C49.9916 2.62356 50.3578 3.31482 50.3578 4.14912V4.79717H26.1538H1.94987V4.1008C1.94987 3.30906 2.44718 2.44131 3.08423 2.1216C3.39743 1.96447 8.34165 1.92127 26.1538 1.91983C48.3568 1.91823 48.8355 1.92463 49.3414 2.23057ZM50.3578 9.59754V12.4778H26.1538H1.94987V9.59754V6.71732H26.1538H50.3578V9.59754ZM54.217 10.4669C55.1999 10.5591 55.919 11.0839 56.0843 11.8294C56.1362 12.0641 55.9597 14.5562 55.692 17.3674C55.4241 20.1785 54.7666 27.1589 54.2307 32.8793C53.6949 38.5998 53.2179 43.468 53.1709 43.6976C53.0665 44.2066 52.359 44.9019 51.8082 45.0366C51.5852 45.0912 47.519 44.7022 42.7721 44.1724C38.0251 43.6424 30.2927 42.7779 25.5891 42.2509C20.8854 41.7242 14.7134 41.0382 11.8735 40.7267C9.03356 40.4151 6.44132 40.0863 6.11295 39.9961C5.50608 39.8292 4.85435 39.1347 4.85435 38.6552C4.85435 38.4227 6.83343 38.3996 27.001 38.3982L49.1476 38.3966L49.9544 38.0185C50.924 37.5639 51.517 36.9665 51.9583 35.9996C52.2799 35.295 52.2871 35.0089 52.2905 22.7686L52.2941 10.2578L52.8185 10.3213C53.107 10.3562 53.7363 10.4218 54.217 10.4669ZM50.3571 24.6787C50.3566 34.5931 50.3453 34.9777 50.0415 35.4717C49.373 36.5593 51.1634 36.4873 25.9197 36.4412L3.08552 36.3996L2.55804 35.8765L2.03055 35.3535L1.98683 24.8757L1.9431 14.3979H26.1504H50.3578L50.3571 24.6787ZM4.15324 18.5309C3.80051 18.9173 3.8139 19.5638 4.18132 19.8935C4.4403 20.1259 5.00006 20.1584 8.75506 20.1584C12.6951 20.1584 13.0548 20.1352 13.3007 19.8657C13.6535 19.4793 13.6401 18.8328 13.2726 18.503C13.0137 18.2707 12.4539 18.2382 8.6989 18.2382C4.75882 18.2382 4.39915 18.2614 4.15324 18.5309ZM15.7734 18.5283C15.4176 18.9181 15.4312 19.5633 15.8021 19.8963C16.0677 20.1345 16.5723 20.159 20.4351 20.1211L24.77 20.0784L25.0182 19.6383C25.2415 19.2424 25.2415 19.1541 25.0182 18.7583L24.77 18.3182L20.4064 18.2757C16.3393 18.2361 16.0245 18.2533 15.7734 18.5283ZM4.15485 22.3694C3.80002 22.7582 3.81342 23.4037 4.18325 23.7356C4.45208 23.9769 5.1214 23.9982 11.2366 23.9604L17.9929 23.9186L18.2411 23.4786C18.4644 23.0826 18.4644 22.9946 18.2411 22.5985L17.9929 22.1585L11.2082 22.1168C4.79561 22.0774 4.40867 22.0911 4.15485 22.3694ZM20.6119 22.3712C20.2592 22.7576 20.2726 23.4041 20.64 23.7338C20.8787 23.9479 21.2906 23.9987 22.7933 23.9987C24.8302 23.9987 25.1857 23.8519 25.1857 23.0107C25.1857 22.2336 24.7786 22.0785 22.7372 22.0785C21.1418 22.0785 20.8412 22.1199 20.6119 22.3712ZM30.2935 22.3712C30.0578 22.6294 30.0265 23.2165 30.0265 27.3868C30.0265 31.7591 30.0484 32.1294 30.3216 32.3745C30.5878 32.6136 31.4056 32.6393 38.7123 32.6393C46.5928 32.6393 46.8164 32.6308 47.1306 32.3193C47.4385 32.014 47.4533 31.786 47.4533 27.3589C47.4533 22.9319 47.4385 22.7038 47.1306 22.3985C46.8164 22.087 46.5928 22.0785 38.6842 22.0785C31.0191 22.0785 30.5456 22.095 30.2935 22.3712ZM45.517 27.3589V30.7192H38.7399H31.9628V27.3589V23.9987H38.7399H45.517V27.3589Z" />
</svg>
