<svg width="31" height="31" viewBox="0 0 31 31" xmlns="http://www.w3.org/2000/svg">
    <path fill-rule="evenodd" clip-rule="evenodd" d="M30 15.5C30 23.5081 23.5081 30 15.5 30C7.49187 30 1 23.5081 1 15.5C1 7.49187 7.49187 1 15.5 1C23.5081 1 30 7.49187 30 15.5ZM31 15.5C31 24.0604 24.0604 31 15.5 31C6.93959 31 0 24.0604 0 15.5C0 6.93959 6.93959 0 15.5 0C24.0604 0 31 6.93959 31 15.5ZM10.3155 8.36659L5.22618 14.584L4.72966 15.1906L5.20013 15.8176L10.2894 22.6002L11.8892 21.3998L8.00055 16.2174H25V14.2174H8.11086L11.8631 9.63341L10.3155 8.36659Z"/>
</svg>
