<svg width="23" height="17" viewBox="0 0 23 17" xmlns="http://www.w3.org/2000/svg">
<path fill-rule="evenodd" clip-rule="evenodd" d="M0 0.707107L1.85887 2.56598L2.00532 2.71243H2.21243H3.99465L8.34247 11.4081L6.73842 13.0121L5.88487 13.8657H7.09197H7.80925C7.60221 13.9332 7.40754 14.0492 7.24301 14.2138C6.68478 14.772 6.68478 15.6771 7.24301 16.2353C7.80124 16.7935 8.7063 16.7935 9.26453 16.2353C9.82277 15.6771 9.82277 14.772 9.26453 14.2138C9.1 14.0492 8.90533 13.9332 8.69829 13.8657H18.9625C18.7555 13.9332 18.5608 14.0492 18.3963 14.2138C17.838 14.772 17.838 15.6771 18.3963 16.2353C18.9545 16.7935 19.8596 16.7935 20.4178 16.2353C20.976 15.6771 20.976 14.772 20.4178 14.2138C20.2533 14.0492 20.0586 13.9332 19.8515 13.8657H20.8012V12.8657H8.29908L9.15796 12.0068H17.0834H17.3924L17.5306 11.7304L22.1778 2.43602L22.5396 1.71241H21.7306H4.30366H2.41952L0.707107 0L0 0.707107ZM9.25987 11.0068L5.11268 2.71241H20.9216L16.7744 11.0068H9.25987ZM8.55743 14.9209C8.38972 14.7532 8.11782 14.7532 7.95011 14.9209C7.78241 15.0886 7.78241 15.3605 7.95011 15.5282C8.11782 15.6959 8.38972 15.6959 8.55743 15.5282C8.72513 15.3605 8.72513 15.0886 8.55743 14.9209ZM19.1034 14.9209C19.2711 14.7532 19.543 14.7532 19.7107 14.9209C19.8784 15.0886 19.8784 15.3605 19.7107 15.5282C19.543 15.6959 19.2711 15.6959 19.1034 15.5282C18.9357 15.3605 18.9357 15.0886 19.1034 14.9209Z" />
</svg>
