<svg width="31" height="28" viewBox="0 0 31 28" fill="none" xmlns="http://www.w3.org/2000/svg">
<path fill-rule="evenodd" clip-rule="evenodd" d="M28 14C28 21.732 21.732 28 14 28C6.26801 28 0 21.732 0 14C0 6.26801 6.26801 0 14 0C18.4192 0 22.3601 2.04753 24.9259 5.24566L27.5858 2.58579L30.4142 5.41421L27.0099 8.81855C27.6487 10.4212 28 12.1696 28 14ZM22.7883 7.38332L13.6344 16.5372L7.53644 9.21963L4.46356 11.7804L11.9636 20.7804L13.3656 22.4628L14.9142 20.9142L24.638 11.1905C24.8742 12.0873 25 13.029 25 14C25 20.0751 20.0751 25 14 25C7.92487 25 3 20.0751 3 14C3 7.92487 7.92487 3 14 3C17.5913 3 20.7806 4.72103 22.7883 7.38332Z" fill="#2ECC71"/>
</svg>
