<svg width="45" height="45" viewBox="0 0 45 45" xmlns="http://www.w3.org/2000/svg">
<path fill-rule="evenodd" clip-rule="evenodd" d="M31.5025 2.04878C29.1024 0.994156 26.6294 0.392288 23.93 0.205704C23.5055 0.176346 21.6214 0.168655 21.2162 0.194656C17.6926 0.420303 14.4366 1.38179 11.4556 3.07698C5.8442 6.26802 1.85558 11.785 0.59704 18.0963C0.265802 19.7575 0.154108 21.0404 0.181573 22.8689C0.205041 24.4324 0.313318 25.4845 0.596826 26.9038C1.62362 32.0438 4.43972 36.6563 8.57375 39.9691C11.6417 42.4276 15.4209 44.0617 19.315 44.6136C20.4911 44.7803 20.9546 44.8092 22.4675 44.8103C23.9101 44.8113 24.2563 44.7932 25.3112 44.6621C30.2061 44.0538 34.7768 41.8121 38.2945 38.2945C41.9958 34.5932 44.2377 29.823 44.7477 24.5637C44.8196 23.8222 44.8473 21.9092 44.7974 21.1301C44.6792 19.2855 44.3644 17.5593 43.8358 15.8576C43.5424 14.9129 43.0062 13.5433 42.8074 13.2308C42.5833 12.8787 42.1297 12.5532 41.706 12.4404C41.4747 12.3789 41.0242 12.3796 40.78 12.442C39.9191 12.6618 39.3096 13.5009 39.378 14.3721C39.4015 14.6709 39.4312 14.7664 39.7075 15.4312C40.4578 17.2369 40.9078 19.1597 41.0576 21.2C41.0995 21.7696 41.0989 23.2355 41.0566 23.8162C40.6772 29.0311 38.1498 33.8096 34.0472 37.0691C31.1071 39.4049 27.5701 40.7835 23.8162 41.0567C23.2307 41.0993 21.7693 41.0993 21.1837 41.0567C16.7036 40.7307 12.5329 38.8225 9.35522 35.6448C6.17755 32.4671 4.26934 28.2964 3.94338 23.8162C3.90078 23.2307 3.90078 21.7693 3.94338 21.1837C4.26937 16.703 6.17718 12.5333 9.35522 9.35524C12.5329 6.17757 16.7036 4.26936 21.1837 3.94337C21.7645 3.90114 23.2304 3.90053 23.8 3.9424C26.9981 4.17714 29.8977 5.14699 32.6179 6.89168C33.2476 7.29555 33.4484 7.36909 33.9238 7.36995C34.1898 7.37044 34.327 7.35493 34.46 7.30952C35.2922 7.02528 35.7925 6.35298 35.7925 5.51875C35.7925 5.03731 35.6263 4.60262 35.3126 4.26387C34.8982 3.81618 32.9587 2.68861 31.5025 2.04878ZM29.5647 6.46638C27.6825 5.63942 25.7432 5.16737 23.6263 5.02107C23.2935 4.99806 21.8159 4.99202 21.4982 5.01241C18.735 5.18935 16.1816 5.94337 13.8439 7.27272C9.44344 9.77516 6.31558 14.1016 5.32864 19.0509C5.06887 20.3536 4.98129 21.3596 5.00283 22.7935C5.02123 24.0197 5.10613 24.8447 5.32845 25.9577C6.13369 29.9885 8.34207 33.6056 11.584 36.2035C13.9899 38.1315 16.9535 39.4129 20.0073 39.8458C20.9295 39.9765 21.2931 39.9992 22.4795 40C23.6107 40.0007 23.8822 39.9866 24.7095 39.8838C28.5481 39.4068 32.1324 37.6489 34.891 34.8903C37.7935 31.9877 39.5516 28.2469 39.9516 24.1226C40.008 23.5411 40.0297 22.041 39.9905 21.43C39.8978 19.9835 39.651 18.6298 39.2365 17.2952C39.0064 16.5545 38.5859 15.4804 38.43 15.2354C38.2543 14.9592 37.8986 14.704 37.5663 14.6156C37.3849 14.5673 37.0316 14.5678 36.8401 14.6168C36.165 14.7891 35.687 15.4472 35.7407 16.1303C35.7591 16.3646 35.7824 16.4395 35.9991 16.961C36.5875 18.3769 36.9404 19.8848 37.0578 21.4848C37.0906 21.9315 37.0902 23.0811 37.057 23.5365C36.7595 27.6259 34.7775 31.3732 31.5603 33.9293C29.2546 35.7611 26.4809 36.8422 23.5371 37.0564C23.078 37.0898 21.9319 37.0898 21.4727 37.0564C17.9594 36.8007 14.6887 35.3043 12.1968 32.8124C9.70486 30.3204 8.20846 27.0498 7.95284 23.5365C7.91943 23.0773 7.91943 21.9312 7.95284 21.4721C8.20849 17.9583 9.70455 14.6884 12.1968 12.1961C14.6887 9.70424 17.9594 8.20778 21.4727 7.95216C21.9281 7.91902 23.0777 7.91859 23.5244 7.95137C26.0324 8.13551 28.3062 8.89601 30.4394 10.2642C30.9332 10.5809 31.0906 10.6386 31.4634 10.6392C31.6721 10.6397 31.7797 10.6275 31.884 10.5919C32.5366 10.369 32.9289 9.84175 32.9289 9.18758C32.9289 8.81001 32.7986 8.46913 32.5526 8.20351C32.2276 7.85237 30.7066 6.96815 29.5647 6.46638ZM14 14V19H14.018C14.0256 17.4238 14.0357 16.447 14.0461 16.4751C14.0659 16.5285 14.1905 16.7611 14.323 16.9923C14.4554 17.2233 16.1069 20.4665 17.9929 24.1994C19.8788 27.9322 21.553 31.1867 21.7132 31.4314C22.1775 32.1409 22.7069 32.4089 23.5593 32.3657C24.5362 32.3161 24.9037 31.9242 25.5845 30.2059C25.9789 29.2105 27.5449 26.1281 28.2585 24.9427C30.2426 21.6468 32.7819 18.3087 36.519 14.0835C38.1179 12.276 40.5784 9.69038 41.2791 9.08162C41.6219 8.78377 42.3256 8.10756 42.8429 7.57893C43.7492 6.65285 44.2263 6.03584 44.392 5.57558C44.4023 5.54689 44.4127 5.51942 44.4227 5.49428C44.4296 5.47682 44.4363 5.46046 44.4427 5.44557C44.4654 5.39217 44.4835 5.35744 44.4898 5.35744C44.4931 5.35744 44.4963 5.95326 44.499 7.00002H44.5091V4.00002L44.5066 4.43629C44.5041 4.85463 44.5005 4.86464 44.4182 4.67873C44.0694 3.89052 42.9756 3.87453 41.4218 4.63509C40.3151 5.17683 37.7232 7.04317 35.9807 8.55305C35.6267 8.85982 35.0908 9.31917 34.7899 9.57399C31.4522 12.3999 27.298 16.4349 23.6681 20.3766L23.2632 20.8164L23.1216 20.6334C22.5595 19.9065 21.1262 18.474 17.9588 15.4732C16.6813 14.263 16.6748 14.2584 16.3177 14.3056C15.9477 14.3546 15.1009 14.7763 14.6378 15.1423C14.4241 15.3112 14.2215 15.5412 14.139 15.7085L14.0001 15.9904L14 14Z" />
</svg>
