<svg width="39" height="57" viewBox="0 0 39 57" xmlns="http://www.w3.org/2000/svg">
<path fill-rule="evenodd" clip-rule="evenodd" d="M20.6946 0.424744C21.6744 0.896279 22.4847 1.73707 23.1715 2.99513C23.4556 3.51538 23.6962 3.95321 23.7061 3.96811C23.7161 3.98289 25.3884 3.22215 27.4222 2.2773C31.5265 0.370709 32.0493 0.208013 33.2919 0.449574C34.2518 0.636154 35.2701 1.18454 35.8782 1.84219C36.2811 2.27813 37.6161 4.76528 37.7812 5.38815C37.8226 5.54399 37.4932 5.7022 26.1404 10.9768C7.55106 19.6137 1.68403 22.3271 1.59937 22.3271C1.54862 22.3271 1.16751 21.5954 0.752378 20.7013C0.000364125 19.0812 -0.00224513 19.0719 0.000242055 18.0114C0.00391942 16.5176 0.309378 15.7802 1.34715 14.7598C2.10438 14.0152 2.24039 13.94 5.72546 12.3384C7.70367 11.4293 9.34477 10.6489 9.37252 10.6042C9.40026 10.5595 9.26164 10.1062 9.06445 9.59673C8.33094 7.70137 8.33141 6.47725 9.06635 4.98638C9.70868 3.68339 10.3943 3.18407 13.5789 1.7003L13.637 1.67324C16.3158 0.425005 17.0349 0.0899413 17.7795 0.0174329C18.0528 -0.00917206 18.3294 -0.000428481 18.7076 0.0115234L18.7294 0.0122103C19.7753 0.045317 20.007 0.0939128 20.6946 0.424744ZM15.2316 4.24952C13.6991 4.96545 12.32 5.66779 12.167 5.81027C11.4752 6.45431 11.3791 7.30835 11.8638 8.50244C12.0334 8.92005 12.1862 9.27666 12.2034 9.29487C12.2437 9.33767 20.7116 5.41949 20.8491 5.29439C20.9756 5.17946 20.2233 3.80672 19.8365 3.44644C19.6841 3.30444 19.4092 3.13146 19.2256 3.06217C18.5071 2.79069 18.0864 2.91579 15.2316 4.24952Z" />
<path fill-rule="evenodd" clip-rule="evenodd" d="M38.994 22.1897C39.0889 22.3427 38.0249 51.1364 37.8928 51.9929C37.6596 53.5044 36.5434 55.0812 35.1847 55.8187C35.1687 55.8274 35.1529 55.836 35.1373 55.8444C35.0012 55.9184 34.8805 55.984 34.7564 56.0421C33.7901 56.4945 32.6122 56.4947 22.2638 56.4962L21.7988 56.4962C14.7354 56.4973 10.282 56.4535 9.88191 56.3792C7.80991 55.9935 6.01052 54.1947 5.62479 52.1232C5.48807 51.3889 4.40393 22.3642 4.50709 22.1979C4.59163 22.0614 38.9095 22.0533 38.994 22.1897ZM12.7952 26.0463L12.5041 26.3365V38.8001C12.5041 51.0515 12.5081 51.2687 12.7394 51.5619C13.0356 51.9373 13.5075 52.06 13.9509 51.8769C13.9833 51.8635 14.0142 51.852 14.0437 51.841C14.1027 51.8191 14.1559 51.7993 14.2038 51.7707C14.6399 51.5105 14.6398 50.5193 14.6386 40.5082C14.6385 39.9588 14.6385 39.3822 14.6385 38.7771V26.4835L14.3315 26.1198C13.9275 25.6411 13.2347 25.608 12.7952 26.0463ZM20.9766 26.0689L20.6859 26.3817V38.8227C20.6859 51.1096 20.6888 51.2674 20.9244 51.566C21.0557 51.7324 21.3186 51.9027 21.5087 51.9443C21.9099 52.0321 22.5122 51.7668 22.6981 51.4203C22.7797 51.2684 22.8202 47.0995 22.8202 38.8824L22.8202 38.1874C22.8204 27.0326 22.8204 26.114 22.4264 25.8907C22.391 25.8706 22.3525 25.8562 22.3105 25.8404C22.3009 25.8369 22.2912 25.8332 22.2813 25.8294C21.8236 25.6543 21.267 25.7565 20.9766 26.0689ZM29.1746 26.1198L28.8676 26.4835V38.7771C28.8676 39.3822 28.8676 39.9588 28.8675 40.5082C28.8663 50.5193 28.8662 51.5105 29.3023 51.7707C29.3502 51.7993 29.4034 51.8191 29.4624 51.841C29.4919 51.852 29.5228 51.8635 29.5553 51.8769C29.9986 52.06 30.4705 51.9373 30.7667 51.5619C30.998 51.2687 31.002 51.0515 31.002 38.8001V26.3365L30.7109 26.0463C30.2715 25.608 29.5786 25.6411 29.1746 26.1198Z" />
</svg>
