<svg width="14" height="19" viewBox="0 0 14 19" xmlns="http://www.w3.org/2000/svg">
<path fill-rule="evenodd" clip-rule="evenodd" d="M6.29512 0.00988543C5.91599 0.051703 5.5508 0.229306 5.29405 0.496744C5.09314 0.706019 4.94487 0.98811 4.88655 1.27204C4.87513 1.32766 4.86897 1.43804 4.86955 1.57705C4.87034 1.76839 4.87449 1.81016 4.9036 1.92006C5.02477 2.37763 5.31825 2.73802 5.73758 2.94421C5.96424 3.05567 6.15778 3.10521 6.41174 3.11677C7.04182 3.14547 7.63768 2.80557 7.92631 2.25284C8.11041 1.90027 8.14312 1.44574 8.01173 1.06565C7.77235 0.373147 7.04692 -0.0730276 6.29512 0.00988543ZM13.5888 0.694329C13.5427 0.700142 13.4526 0.711124 13.3887 0.71873C13.2211 0.738712 13.2022 0.741375 12.9886 0.775386C12.6086 0.835866 12.4401 0.870053 12.0462 0.966685C11.3072 1.14797 10.6711 1.37822 9.98071 1.71432C9.01201 2.1859 8.20509 2.75498 7.43707 3.50821C6.91715 4.01812 6.48987 4.54746 6.13188 5.12513C5.60081 5.98213 5.31114 6.73883 5.0691 7.90135C4.93786 8.53178 4.87921 8.90318 4.65531 10.522C4.5268 11.4511 4.36298 12.3285 4.20324 12.9434C3.79279 14.5231 3.14744 15.7968 2.17837 16.9396C1.6278 17.5889 0.88211 18.2677 0.120064 18.8133C0.0265757 18.8802 -0.0117766 18.9143 0.00312063 18.9173C0.0290553 18.9224 0.466794 18.8997 0.718331 18.8802C0.970564 18.8606 0.975806 18.8627 0.856137 18.9369C0.801647 18.9706 0.757057 19 0.757057 19C0.757057 19 0.796263 18.9977 0.844195 18.9927C0.892127 18.9877 0.995233 18.9772 1.07333 18.9692C1.22939 18.9533 1.64644 18.9012 1.77366 18.8817C1.97637 18.8506 2.03978 18.8402 2.20289 18.8115C2.87199 18.6937 3.40421 18.5637 3.97791 18.378C4.90092 18.0792 5.73851 17.6641 6.43067 17.1626C7.74139 16.213 8.65439 14.9038 9.3037 13.043C9.59007 12.2222 9.79742 11.4357 10.1685 9.76254C10.4606 8.44539 10.6325 7.7563 10.8283 7.11704C11.2589 5.71103 11.7871 4.68414 12.5027 3.86152C12.6455 3.69734 13.0819 3.27993 13.2532 3.14362C13.4815 2.96199 13.7079 2.80276 13.9115 2.68057C13.9644 2.6488 14.0041 2.6228 13.9997 2.6228C13.9952 2.6228 13.9257 2.61195 13.8451 2.59867C13.7645 2.58539 13.6521 2.56877 13.5953 2.56173C13.5385 2.55469 13.4455 2.54307 13.3887 2.53591C13.2445 2.51769 12.9683 2.48894 12.853 2.48011C12.7998 2.47604 12.6894 2.46731 12.6077 2.46071C12.5261 2.45413 12.3925 2.44813 12.3108 2.44739C12.2292 2.44666 12.1317 2.4424 12.0942 2.43794L12.026 2.42984L12.1652 2.2304C12.5536 1.67386 13.0084 1.20601 13.5127 0.844158C13.595 0.785073 13.6793 0.724432 13.6999 0.709406L13.7373 0.682078L13.705 0.682925C13.6873 0.683385 13.635 0.688527 13.5888 0.694329Z" />
</svg>
