<svg width="40" height="48" viewBox="0 0 40 48" xmlns="http://www.w3.org/2000/svg">
<path fill-rule="evenodd" clip-rule="evenodd" d="M18.8235 23.5294C25.321 23.5294 30.5882 18.2622 30.5882 11.7647C30.5882 5.26724 25.321 0 18.8235 0C12.3261 0 7.05882 5.26724 7.05882 11.7647C7.05882 18.2622 12.3261 23.5294 18.8235 23.5294ZM29.47 21.1765C27.5879 25.167 23.5282 27.9286 18.8235 27.9286C14.5917 27.9286 10.8818 25.6942 8.80903 22.341C3.49393 26.3588 0 33.1582 0 40.8697C0 43.0169 0.270881 45.0934 0.776534 47.0588H39.2235C39.7291 45.0934 40 43.0169 40 40.8697C40 32.3538 35.7391 24.9501 29.47 21.1765ZM19.3958 30.0078C19.0708 30.0408 18.7578 30.181 18.5378 30.3922C18.3656 30.5574 18.2385 30.7801 18.1885 31.0042C18.1787 31.0481 18.1734 31.1353 18.1739 31.245C18.1746 31.3961 18.1781 31.4291 18.2031 31.5158C18.3069 31.8771 18.5585 32.1616 18.9179 32.3244C19.1122 32.4124 19.2781 32.4515 19.4958 32.4606C20.0358 32.4833 20.5466 32.2149 20.794 31.7786C20.9518 31.5002 20.9798 31.1414 20.8672 30.8413C20.662 30.2946 20.0402 29.9423 19.3958 30.0078ZM25.6476 30.5482C25.608 30.5527 25.5308 30.5614 25.4761 30.5674C25.3324 30.5832 25.3162 30.5853 25.1331 30.6121C24.8073 30.6599 24.663 30.6869 24.3253 30.7632C23.6919 30.9063 23.1467 31.0881 22.5549 31.3534C21.7246 31.7257 21.0329 32.175 20.3746 32.7696C19.929 33.1722 19.5627 33.5901 19.2559 34.0462C18.8007 34.7227 18.5524 35.3201 18.3449 36.2379C18.2324 36.7356 18.1822 37.0288 17.9903 38.3068C17.8801 39.0403 17.7397 39.7331 17.6028 40.2184C17.251 41.4656 16.6978 42.4712 15.8672 43.3734C15.3953 43.886 14.7561 44.4219 14.1029 44.8526C14.0228 44.9054 13.9899 44.9323 14.0027 44.9347C14.0249 44.9387 14.4001 44.9208 14.6157 44.9054C14.8319 44.8899 14.8364 44.8916 14.7338 44.9502C14.6871 44.9768 14.6489 45 14.6489 45C14.6489 45 14.6825 44.9982 14.7236 44.9942C14.7647 44.9903 14.8531 44.982 14.92 44.9757C15.0538 44.9631 15.4112 44.922 15.5203 44.9066C15.694 44.882 15.7484 44.8738 15.8882 44.8512C16.4617 44.7582 16.9179 44.6556 17.4096 44.5089C18.2008 44.273 18.9187 43.9454 19.512 43.5495C20.6355 42.7997 21.418 41.7662 21.9746 40.2971C22.2201 39.6491 22.3978 39.0282 22.7159 37.7073C22.9662 36.6674 23.1135 36.1234 23.2814 35.6187C23.6505 34.5087 24.1032 33.698 24.7166 33.0486C24.839 32.919 25.213 32.5894 25.3599 32.4818C25.5556 32.3384 25.7496 32.2127 25.9241 32.1162C25.9695 32.0912 26.0035 32.0706 25.9997 32.0706C25.9959 32.0706 25.9363 32.0621 25.8672 32.0516C25.7981 32.0411 25.7018 32.028 25.6531 32.0224C25.6044 32.0169 25.5248 32.0077 25.4761 32.002C25.3524 31.9877 25.1157 31.9649 25.0169 31.958C24.9712 31.9548 24.8766 31.9479 24.8066 31.9427C24.7366 31.9375 24.6221 31.9327 24.5521 31.9322C24.4822 31.9316 24.3986 31.9282 24.3664 31.9247L24.308 31.9183L24.4273 31.7608C24.7602 31.3215 25.15 30.9521 25.5823 30.6664C25.6529 30.6198 25.7251 30.5719 25.7427 30.5601L25.7748 30.5385L25.7472 30.5392C25.7319 30.5395 25.6871 30.5436 25.6476 30.5482Z" />
</svg>
