<svg width="60" height="27" viewBox="0 0 60 27" xmlns="http://www.w3.org/2000/svg">
<path fill-rule="evenodd" clip-rule="evenodd" d="M25.5432 0H19.2597L19.2789 4.55363C19.2898 7.1211 19.2842 9.56588 19.266 10.1587C19.2484 10.7371 19.2201 11.8437 19.2031 12.6179C19.1812 13.6211 19.1562 14.1278 19.1162 14.3817C18.8932 15.7975 18.3143 16.9505 17.3225 17.9544C16.3031 18.9861 15.0506 19.6139 13.5848 19.8279C13.0108 19.9117 11.9811 19.8802 11.4136 19.7616C8.37621 19.1267 6.22932 16.5195 6.22932 13.4659C6.22932 10.5987 8.17325 8.05197 10.9404 7.29401C11.1251 7.2434 11.2616 7.20452 11.3999 7.17443C11.8799 7.07003 12.383 7.07153 15.0086 7.05621L18.089 7.0382L18.0977 3.99396L18.1065 0.949733L15.0515 0.950072C13.2409 0.950275 11.8293 0.964691 11.5859 0.985483C11.0531 1.03093 10.3973 1.13022 9.89692 1.2412C7.09198 1.86331 4.58882 3.41032 2.78283 5.63788C1.19213 7.59993 0.21652 10.0565 0.0377524 12.55C0.0218026 12.7726 0.00766686 10.1614 0.00489447 6.47005L0 0V26.1176V26.1176H60V26.0498V0H25.5432ZM25.5432 0L25.523 2.8068C25.5119 4.35056 25.4793 6.33099 25.4505 7.20779C25.3681 9.72177 25.3283 11.5533 25.3281 12.8448C25.3281 13.6038 25.3155 14.0461 25.2938 14.0594C25.275 14.071 25.2596 14.1488 25.2596 14.2325C25.2596 14.494 25.1566 15.329 25.0676 15.7893C24.7333 17.5186 24.0934 19.052 23.1002 20.504C22.6664 21.1383 22.2679 21.6187 21.6847 22.2106C19.5754 24.3512 16.9047 25.6276 13.8962 25.9327C13.2055 26.0028 11.644 25.9848 11.0382 25.8998C8.62412 25.5611 6.54856 24.6811 4.69982 23.2125C4.22926 22.8387 3.37451 22.0042 2.96458 21.5183C1.19873 19.4256 0.222168 16.9889 0.0227952 14.1782C0.0168397 14.0942 0.00927553 16.7462 0.00598973 20.0715L0 26.1176L30 26.1176C59.9769 26.1176 60 26.1176 60 26.0498C60 25.9825 59.9772 25.982 56.8631 25.982H53.7262L53.7399 21.6149C53.7535 17.2842 53.7122 14.0312 53.6306 13.0079C53.5001 11.3703 52.8394 9.97786 51.6579 8.85103C51.1418 8.35883 50.7341 8.07056 50.1075 7.75487C48.9236 7.15844 47.6332 6.93698 46.3289 7.10641C43.9109 7.42053 41.861 9.07388 41.0592 11.3565C39.8239 14.8735 41.8489 18.6742 45.4877 19.6685C45.6217 19.7051 45.7263 19.7345 45.8322 19.7581C46.2736 19.8568 46.737 19.857 49.441 19.874L52.5556 19.8935L52.5643 22.9377L52.5731 25.982H49.4573C46.1529 25.982 45.9038 25.9725 44.9472 25.8109C40.198 25.0082 36.2682 21.4925 34.9496 16.8668C34.3018 14.5941 34.3249 12.1073 35.0148 9.84282C36.4166 5.24185 40.4132 1.80666 45.2021 1.0866C46.4386 0.900686 47.7884 0.900686 49.0249 1.0866C50.3294 1.28275 51.4658 1.63924 52.6925 2.23713C54.0583 2.90276 55.1091 3.65973 56.1855 4.75331C58.1385 6.73744 59.3483 9.27037 59.6746 12.058C59.703 12.3004 59.7262 12.5781 59.7262 12.675C59.7262 12.772 59.7416 12.8607 59.7604 12.8723C59.7821 12.8855 59.7948 13.2943 59.7951 13.9851C59.7956 15.1464 59.8289 16.7317 59.9146 19.673C59.9437 20.6711 59.9715 21.6632 59.9764 21.8778C59.9813 22.0923 59.9887 17.2576 59.9927 11.1339L60 0L44.3326 0.00305271C31.0725 0.00566448 28.7044 0.0131606 28.9204 0.0518961C29.3312 0.125568 29.7063 0.329489 30.0355 0.658131C30.3498 0.971983 30.4994 1.22556 30.5998 1.61441C30.968 3.04098 29.8287 4.40035 28.3516 4.29707C27.6092 4.24513 26.9144 3.7897 26.5969 3.14694C26.5206 2.99251 26.4349 2.77519 26.4065 2.664C26.3401 2.40442 26.3402 1.90279 26.4067 1.64372C26.609 0.854929 27.3137 0.193203 28.1018 0.0518961C28.3358 0.00993827 28.2399 0.00586799 26.9501 0.00305271L25.5432 0ZM37.838 1.2396C38.0074 1.11092 38.1607 0.993047 38.1786 0.977682C38.2214 0.940846 38.0823 0.947799 37.6776 1.00268C35.0448 1.35971 32.6785 2.36338 30.7495 3.94129C30.2775 4.32739 29.3707 5.23584 29.0127 5.68144C27.9984 6.94346 27.3457 8.15769 26.9551 9.50879C26.6343 10.6189 26.4705 11.505 26.1488 13.8729C25.8807 15.846 25.6987 16.866 25.4263 17.9215C24.6018 21.1163 22.9532 23.583 20.2651 25.6435C20.0377 25.8178 19.8517 25.9675 19.8517 25.9761C19.8517 25.9941 20.7931 25.9536 20.9983 25.9267L21.1352 25.9087L21.0154 25.9877L20.8956 26.0668L21.0062 26.0774C21.0671 26.0832 21.4084 26.0489 21.7647 26.0012C25.2144 25.5392 27.6423 24.4971 29.4726 22.6927C30.676 21.5064 31.5641 20.02 32.2406 18.0599C32.6441 16.891 32.9168 15.8459 33.4217 13.5338C33.8292 11.6678 33.9771 11.04 34.1932 10.2591C34.3984 9.51754 34.7462 8.49278 34.9662 7.98142C35.3582 7.07039 35.918 6.11462 36.4326 5.47792C36.8894 4.91266 37.689 4.19103 38.2742 3.81589C38.4197 3.72261 38.539 3.6367 38.5392 3.62499C38.5401 3.57975 37.1539 3.41503 36.3731 3.36762L35.9351 3.34102L36.1452 3.03575C36.6193 2.34689 37.2215 1.70792 37.838 1.2396Z" />
</svg>
