<svg width="49" height="49" viewBox="0 0 49 49" xmlns="http://www.w3.org/2000/svg">
<path fill-rule="evenodd" clip-rule="evenodd" d="M25.618 3.58984C27.3716 1.83803 28.8063 0.348068 28.8063 0.279007C28.8063 0.118515 4.38021 0.146164 3.71407 0.307159C2.80694 0.526611 1.98975 1.00758 1.38306 1.67903C1.19884 1.88298 1.04403 2.015 0.913961 2.16805C0.166844 3.04709 0.235936 4.61981 0.235936 24.5C0.235936 44.2109 0.253331 45.4885 0.529592 46.0763C0.959386 46.991 1.87546 47.9325 2.76653 48.3755L3.54844 48.7641H24.5C44.2109 48.7641 45.4885 48.7467 46.0763 48.4704C46.9911 48.0406 47.9325 47.1245 48.3755 46.2335L48.7641 45.4516L48.8104 32.8227C48.8359 25.8768 48.7979 20.1938 48.726 20.1938C48.6541 20.1938 47.162 21.6284 45.4102 23.382L42.2252 26.5703L42.1821 34.3547L42.1391 42.1391H24.5H6.86094V24.5V6.86093L14.6453 6.81787L22.4297 6.77481L25.618 3.58984ZM48.6721 7.61171C48.1504 3.45039 46.5106 1.46538 42.8844 0.605118C42.2923 0.464661 41.3952 0.306656 40.8909 0.25415L39.974 0.158585L38.443 1.69609L36.9119 3.23341L38.3262 4.19421C40.7917 5.86885 43.2478 8.31778 44.9363 10.7851L45.8083 12.0591L47.3278 10.5333L48.8472 9.0076L48.6721 7.61171ZM42.2752 12.8819C40.8293 10.4757 38.5243 8.1707 36.1181 6.72479C35.4215 6.30626 34.7398 5.92284 34.6031 5.87265C34.4349 5.81104 31.2065 8.93059 24.5899 15.5483C19.2194 20.9198 14.8593 25.342 14.9009 25.3752C14.9424 25.4083 15.5067 25.7829 16.1547 26.2076C18.6243 27.8261 21.1811 30.3921 23.0094 33.0867L23.7224 34.1376L33.4704 24.3914C40.0754 17.7877 43.189 14.5652 43.1274 14.3969C43.0772 14.2602 42.6937 13.5785 42.2752 12.8819ZM20.8236 36.0285C19.6833 33.7883 17.3046 31.0574 15.225 29.6008C14.6329 29.186 13.7337 28.6148 13.2271 28.3312L12.3055 27.8158L11.7779 28.3602L11.25 28.9048V33.3275V37.75H15.6725H20.0952L20.6325 37.2293L21.1698 36.7084L20.8236 36.0285Z" />
</svg>
