<svg width="53" height="47" viewBox="0 0 53 47" xmlns="http://www.w3.org/2000/svg">
<path fill-rule="evenodd" clip-rule="evenodd" d="M10.7197 0.459717C6.42057 1.99365 3.47075 5.63763 2.20925 10.9736C1.77826 12.797 1.70057 13.744 1.78293 16.175C1.89381 19.4566 2.21908 20.5078 3.20891 20.784C3.54697 20.8784 6.42991 20.9665 9.61575 20.9802C13.9129 20.9985 15.5065 20.9249 15.7898 20.6953C16 20.5251 16.8679 18.402 17.7188 15.9774C19.3351 11.3721 19.6365 10.9079 20.8178 11.2066C21.6405 11.4147 21.8731 12.03 23.7733 19.0234C24.68 22.361 25.4894 25.1735 25.572 25.2736C25.6544 25.3736 26.0915 24.3705 26.5436 23.0444C26.9955 21.7183 27.5849 20.4385 27.8533 20.1999C28.2568 19.8413 28.824 19.7665 31.138 19.7665H33.9349L35.1576 18.5412C36.456 17.2398 37.4886 16.8527 38.9005 17.137C41.0651 17.5732 42.4311 19.415 42.2472 21.6494C42.0453 24.1008 40.2129 25.6174 37.7059 25.4078C36.51 25.308 36.2539 25.1757 35.1708 24.1013C33.9713 22.9109 33.9583 22.9054 32.0406 22.7937C30.5979 22.7095 30.0508 22.7662 29.8593 23.0196C29.7187 23.2056 28.9103 25.3642 28.0631 27.8163C27.2156 30.2684 26.2993 32.641 26.0266 33.0886C25.0995 34.6112 24.7474 33.8195 22.1369 24.3418C21.1623 20.8036 20.3332 17.8739 20.2944 17.8313C20.2558 17.7884 19.9207 18.6801 19.5499 19.8128C18.6329 22.6144 18.0886 23.6373 17.4183 23.8182C17.1081 23.9019 13.2788 23.972 8.90891 23.9737C3.90887 23.9759 0.78769 24.0723 0.488234 24.2335C-0.126168 24.5649 -0.173127 26.2376 0.418164 26.7334C0.685167 26.9574 1.76375 27.1156 3.57844 27.1971L6.33329 27.321L9.12723 30.0185C10.6641 31.5019 12.7546 33.3393 13.773 34.1012C19.2906 38.2289 23.2376 41.8377 25.9236 45.2105L27.3488 47L28.4643 45.5052C30.9777 42.1366 34.6378 38.8124 41.9317 33.2739C46.7289 29.6311 48.0726 28.4061 49.546 26.3302C53.1672 21.2291 53.9429 15.5147 51.8642 9.25313C49.8334 3.13648 45.9009 0.0931388 40.0878 0.139952C35.1686 0.179582 31.2637 2.66117 28.4205 7.55399L27.3798 9.34502L25.7335 6.89316C23.6875 3.8461 21.8411 2.11278 19.4356 0.981099C17.7434 0.184783 17.3692 0.106266 14.8872 0.02552C12.6145 -0.0482909 11.9492 0.0210617 10.7197 0.459717Z" />
</svg>
