<svg width="25" height="19" viewBox="0 0 25 19" xmlns="http://www.w3.org/2000/svg">
<path fill-rule="evenodd" clip-rule="evenodd" d="M12 1L2.5 8H6V18.5H9.5V12H12V1ZM13 1L22.5 8H19V18.5H15.5V12H13V1Z" fill="#1ABC9C"/>
<path d="M2.5 8L2.2034 7.59747L0.978541 8.5H2.5V8ZM12 1H12.5V0.010504L11.7034 0.597472L12 1ZM6 8H6.5V7.5H6V8ZM6 18.5H5.5V19H6V18.5ZM9.5 18.5V19H10V18.5H9.5ZM9.5 12V11.5H9V12H9.5ZM12 12V12.5H12.5V12H12ZM22.5 8V8.5H24.0215L22.7966 7.59747L22.5 8ZM13 1L13.2966 0.597472L12.5 0.010504V1H13ZM19 8V7.5H18.5V8H19ZM19 18.5V19H19.5V18.5H19ZM15.5 18.5H15V19H15.5V18.5ZM15.5 12H16V11.5H15.5V12ZM13 12H12.5V12.5H13V12ZM2.7966 8.40253L12.2966 1.40253L11.7034 0.597472L2.2034 7.59747L2.7966 8.40253ZM6 7.5H2.5V8.5H6V7.5ZM6.5 18.5V8H5.5V18.5H6.5ZM9.5 18H6V19H9.5V18ZM9 12V18.5H10V12H9ZM12 11.5H9.5V12.5H12V11.5ZM11.5 1V12H12.5V1H11.5ZM22.7966 7.59747L13.2966 0.597472L12.7034 1.40253L22.2034 8.40253L22.7966 7.59747ZM19 8.5H22.5V7.5H19V8.5ZM19.5 18.5V8H18.5V18.5H19.5ZM15.5 19H19V18H15.5V19ZM15 12V18.5H16V12H15ZM13 12.5H15.5V11.5H13V12.5ZM12.5 1V12H13.5V1H12.5Z" />
</svg>
