<svg width="41" height="47" viewBox="0 0 41 47" xmlns="http://www.w3.org/2000/svg">
<path fill-rule="evenodd" clip-rule="evenodd" d="M21 24C27.6274 24 33 18.6274 33 12C33 5.37258 27.6274 0 21 0C14.3726 0 9 5.37258 9 12C9 18.6274 14.3726 24 21 24ZM41 44.5C41 45.3463 40.9487 46.1806 40.8491 47H0.150909C0.0512848 46.1806 0 45.3463 0 44.5C0 33.1782 9.17816 24 20.5 24C31.8218 24 41 33.1782 41 44.5ZM20.6613 24L16 37.5452L21 42.0157L26 37.5452L21.3387 24C21.2275 24.0104 21.1145 24.0157 21 24.0157C20.8855 24.0157 20.7725 24.0104 20.6613 24Z" />
</svg>
