<svg width="45" height="32" viewBox="0 0 45 32" xmlns="http://www.w3.org/2000/svg">
<path fill-rule="evenodd" clip-rule="evenodd" d="M21.7781 0.0260439C20.8557 0.173781 19.9639 0.670116 19.3823 1.35931C19.071 1.72822 18.7165 2.39979 18.5925 2.85541C18.532 3.07793 18.5078 3.35136 18.5078 3.8135C18.5078 4.58772 18.5767 4.88569 18.9064 5.53805C19.1062 5.93326 19.2042 6.05953 19.6515 6.49757C20.0013 6.84018 20.2643 7.05225 20.4713 7.15884L20.7761 7.31568L20.7007 7.49273C20.6592 7.59012 20.3325 8.21949 19.9748 8.89134C19.617 9.5632 18.8574 11.0075 18.2868 12.1009C17.7162 13.1943 17.0898 14.38 16.8948 14.7357C16.6998 15.0913 16.5255 15.4296 16.5076 15.4872C16.4767 15.5862 16.4647 15.5885 16.2941 15.5292C16.0269 15.4363 4.60191 10.9486 4.51005 10.9005C4.46122 10.8749 4.42054 10.7676 4.40223 10.6159C4.32893 10.0084 3.80245 9.3449 3.15427 9.04291C2.82489 8.88947 2.73005 8.86782 2.31828 8.85182C1.58489 8.82332 1.10622 9.0191 0.593123 9.5574C-0.22016 10.4106 -0.194131 11.7045 0.653091 12.5356C0.979253 12.8555 1.54558 13.1543 1.82799 13.1555C1.92273 13.156 2.02821 13.1737 2.06234 13.195C2.09653 13.2162 3.35503 16.2159 4.85902 19.8611C6.36306 23.5062 7.61785 26.5172 7.6475 26.5522C7.69213 26.6049 10.2045 26.6159 22.2432 26.6159H36.785L36.8331 26.4842C36.8595 26.4117 37.0837 25.8027 37.3313 25.1309C37.5789 24.459 37.9087 23.5536 38.0643 23.1189C38.2199 22.6842 38.4721 22.0062 38.6247 21.6124C38.7775 21.2185 39.0965 20.3563 39.3338 19.6962C39.571 19.0362 40.0213 17.8063 40.3343 16.9632C40.6474 16.1201 41.092 14.9128 41.3224 14.2803L41.7414 13.1304L42.2102 13.1242C42.7396 13.1172 43.0966 13.0171 43.4552 12.7751C44.4634 12.0947 44.721 10.627 44.0007 9.6672C43.6096 9.14595 43.0192 8.83616 42.3567 8.80454C41.6098 8.7689 41.1453 8.93096 40.6729 9.39199C40.4715 9.58869 40.3154 9.80243 40.1872 10.0573C40.021 10.3879 39.996 10.4835 39.9778 10.8562C39.9627 11.1646 39.9786 11.3413 40.036 11.5068C40.0795 11.6317 40.1095 11.7367 40.1029 11.7401C40.0963 11.7435 37.4428 12.6124 34.2063 13.6711C29.8594 15.093 28.3118 15.5806 28.2835 15.537C28.23 15.4548 27.1271 13.4668 26.138 11.6698C25.6812 10.8398 25.1597 9.90212 24.9791 9.58595C24.4633 8.68286 23.8047 7.47031 23.8047 7.42351C23.8047 7.40008 23.9567 7.31146 24.1427 7.22648C25.0899 6.79357 25.8419 5.8854 26.1557 4.79553C26.3226 4.21556 26.3112 3.32732 26.1292 2.73565C25.7321 1.44487 24.6966 0.449134 23.3896 0.101349C23.0519 0.011481 22.1361 -0.0312974 21.7781 0.0260439ZM23.3777 17.8015L24.2763 18.4961L24.3076 19.6626C24.3249 20.304 24.3253 21.0653 24.3084 21.3543L24.2777 21.8797L23.3564 22.6689C22.513 23.3913 22.427 23.4526 22.3407 23.3933C22.2889 23.3577 21.8642 23.0173 21.3969 22.6369L20.5473 21.9452L20.5157 21.5187C20.4982 21.2841 20.486 20.5081 20.4884 19.7942L20.4928 18.4961L21.4528 17.7912C21.9809 17.4034 22.4279 17.0909 22.4461 17.0966C22.4643 17.1023 22.8836 17.4195 23.3777 17.8015ZM7.69477 27.181C7.63665 27.2875 7.6473 31.8601 7.70575 31.9173C7.72817 31.9393 14.264 31.9527 22.2298 31.9472C34.0002 31.9391 36.7206 31.9256 36.753 31.8754C36.8137 31.7816 36.805 27.2996 36.744 27.1876C36.6942 27.0963 36.4795 27.095 22.2176 27.095C8.3363 27.095 7.73979 27.0985 7.69477 27.181Z" />
</svg>
