<svg width="49" height="49" viewBox="0 0 49 49" xmlns="http://www.w3.org/2000/svg">
<path fill-rule="evenodd" clip-rule="evenodd" d="M0 8.88123V17.8144L0.629135 18.7225C1.5247 20.0151 1.88292 20.8583 2.12035 22.2323C2.21225 22.7645 2.23779 23.5846 2.23779 26.006C2.23779 27.7076 2.27452 29.4344 2.31944 29.8432C2.63365 32.7054 3.27197 34.1422 6.09984 38.3524C7.11411 39.8624 8.134 41.4546 8.36642 41.8907C9.10628 43.2791 9.41425 44.413 9.53293 46.1863C9.56041 46.5969 9.6057 46.9323 9.63356 46.9316C9.66141 46.931 10.0499 46.8645 10.497 46.7839C11.8258 46.5441 12.5072 46.5162 13.5012 46.661C14.6644 46.8304 16.0255 47.1817 18.0567 47.8371C19.9138 48.4363 21.3932 48.8177 22.2374 48.915C22.57 48.9534 18.1133 48.9843 11.4012 48.9901L0 49H49L37.5602 48.9904C30.4238 48.9843 26.3235 48.9548 26.6602 48.912C27.5784 48.7953 28.736 48.5011 30.9819 47.8137C32.1702 47.4499 33.4828 47.0702 33.8987 46.9698C35.5194 46.579 36.8363 46.5464 38.451 46.8569C38.8787 46.9393 39.2379 46.9973 39.2493 46.986C39.2607 46.9747 39.3054 46.4844 39.3487 45.8964C39.4521 44.4932 39.6862 43.6416 40.3163 42.3773C40.882 41.2421 41.434 40.3535 42.6383 38.6397C45.1707 35.0357 46.0556 33.2505 46.46 30.9301C46.6077 30.0833 46.6333 29.5505 46.6853 26.2609C46.748 22.2943 46.7625 22.1387 47.1862 20.9027C47.4193 20.2228 47.7576 19.6227 48.4168 18.7195C48.6934 18.3406 48.9204 17.9946 48.9213 17.9509C48.9221 17.9071 48.474 17.6895 47.9256 17.4673C46.4508 16.87 45.7471 16.3763 44.545 15.0961C43.6122 14.1027 43.1793 13.5516 41.187 10.8218C38.3424 6.92413 37.254 6.19 30.6998 3.74728C28.7222 3.01019 27.1329 2.28775 26.3406 1.76559C26.0798 1.59372 25.5645 1.13834 25.1956 0.753693L24.5248 0.0543518L23.8565 0.742737C23.4889 1.12125 22.9659 1.57901 22.6942 1.75986C21.927 2.27054 20.3404 2.99008 18.4811 3.67062C13.1957 5.60516 11.8095 6.32916 10.0628 8.06738C9.15799 8.96783 8.61258 9.65479 6.2504 12.8691C5.21985 14.2715 3.46101 16.0842 2.63589 16.5945C2.1996 16.8643 0.194305 17.7625 0.028244 17.7625C0.0127258 17.7625 0 13.7659 0 8.88123ZM22.5983 2.6391C23.2877 2.23218 24.1278 1.58072 24.3588 1.27383L24.5 1.08627L25.0016 1.56287C25.6438 2.17307 26.2139 2.55222 27.3072 3.09619C28.2933 3.58679 29.2842 3.98929 31.7446 4.89862C34.876 6.05597 36.4399 6.85663 37.7887 7.99323C38.6946 8.75653 39.4577 9.65057 40.954 11.7017C41.5579 12.5297 42.3044 13.5496 42.613 13.9684C43.3486 14.9665 44.9156 16.5693 45.6451 17.0697C46.1931 17.4456 47.5657 18.1453 47.755 18.1453C47.9102 18.1453 47.8501 18.2943 47.4676 18.8569C46.9851 19.5668 46.7546 20.0286 46.5044 20.7867C46.0676 22.1104 46.0579 22.2116 45.9904 26.1844C45.9277 29.8715 45.8901 30.4037 45.6084 31.5836C45.2681 33.0088 44.4007 34.8166 43.2398 36.5203C42.8811 37.0467 42.0748 38.2256 41.448 39.1401C39.5047 41.975 38.7928 43.6016 38.6798 45.4644C38.638 46.1536 38.6307 46.1765 38.4659 46.1355C38.0326 46.0276 37.1693 45.9404 36.5208 45.939C35.0851 45.936 33.7045 46.2265 30.6525 47.174C29.6877 47.4735 28.5148 47.8148 28.0458 47.9323C27.1559 48.1553 25.4048 48.364 25.1739 48.2745C25.1003 48.246 24.3978 48.2252 23.6126 48.2283C22.2973 48.2334 22.1092 48.2163 21.2205 48.011C20.69 47.8884 19.735 47.6249 19.0984 47.4254C15.3562 46.2524 14.642 46.0727 13.1474 45.9278C12.2539 45.8411 11.5272 45.8779 10.4366 46.065L10.1858 46.108V45.6101C10.1858 44.4936 9.77145 43.1095 8.96593 41.5352C8.72887 41.072 7.80095 39.6077 6.90375 38.2812C6.00662 36.9548 5.07439 35.5345 4.83224 35.1252C4.30498 34.2338 3.69305 32.8449 3.42853 31.9391C3.01323 30.5173 2.98283 30.1573 2.96446 26.4523C2.94594 22.7171 2.88235 21.9323 2.5054 20.7865C2.28287 20.1101 1.83206 19.21 1.39352 18.5664L1.08055 18.1071L1.2926 18.0153C2.86137 17.3364 3.45253 16.9786 4.31616 16.1853C4.93982 15.6125 5.93494 14.462 6.72673 13.3984C9.51433 9.65399 9.69321 9.42926 10.6015 8.53015C11.6402 7.50189 12.2674 7.06024 13.7354 6.32343C14.7258 5.82642 15.6801 5.44391 18.6354 4.3595C20.6592 3.61682 21.7274 3.15308 22.5983 2.6391ZM29.6315 4.3653C27.7243 3.63773 26.4966 3.06052 25.7569 2.54379C25.4721 2.34482 25.0728 2.03976 24.8696 1.86591L24.5 1.54977L24.0271 1.98074C23.0948 2.83051 21.8758 3.42511 18.4242 4.71381C15.4294 5.83197 14.8173 6.07855 13.8579 6.55316C11.6064 7.66687 10.4762 8.75665 7.83058 12.3649C6.33342 14.4067 5.72096 15.1548 4.78641 16.0826C3.90796 16.9548 3.12096 17.5269 2.17522 17.9807L1.57695 18.2678L1.80026 18.6085C2.16426 19.164 2.59993 20.129 2.80751 20.8399C3.19504 22.1666 3.24689 22.8462 3.22867 26.3622C3.21294 29.415 3.22157 29.6451 3.3864 30.575C3.48224 31.116 3.69838 31.9547 3.86661 32.4388C4.41101 34.0053 4.89406 34.8486 7.21358 38.2812C8.83003 40.6736 9.58578 41.985 9.98288 43.0868C10.2208 43.7468 10.4945 45.0268 10.4945 45.4792C10.4945 45.7555 10.5135 45.793 10.6295 45.7453C10.7038 45.7148 11.2681 45.6724 11.8835 45.6509C13.633 45.59 15.2014 45.9084 18.7512 47.0453C21.2671 47.8511 21.7589 47.9512 23.3425 47.9791C25.1272 48.0106 25.9752 48.0327 26.8047 47.9195C27.638 47.8058 28.4526 47.5555 30.1795 47.0408C34.5384 45.7418 35.8192 45.5212 37.7532 45.7359L38.3512 45.8024L38.3519 45.468C38.353 44.9005 38.7133 43.5197 39.0829 42.6662C39.5334 41.6258 40.4759 40.0557 41.6694 38.3578C43.7967 35.3314 44.572 33.9863 45.0896 32.4242C45.6279 30.7993 45.7024 30.0576 45.7159 26.1844C45.7253 23.4277 45.7482 22.8135 45.8652 22.1649C46.0695 21.0333 46.4812 19.8726 46.9622 19.0728C47.1917 18.691 47.3795 18.3607 47.3795 18.3386C47.3795 18.3165 47.3303 18.2985 47.2702 18.2985C46.9299 18.2985 45.456 17.3531 44.6078 16.5909C43.6354 15.7168 43.2687 15.2653 40.2441 11.2164C38.6633 9.10022 37.8487 8.24799 36.6757 7.48297C35.2804 6.57312 34.4166 6.1908 29.6315 4.3653ZM18.674 5.01355C21.3298 4.05444 22.9404 3.29425 23.9213 2.5369C24.4964 2.09283 24.6557 2.05133 24.8135 2.30469C24.9262 2.4856 26.3238 3.33231 27.2008 3.75104C27.7101 3.9942 29.3248 4.65033 30.789 5.20917C33.749 6.33893 34.9406 6.85052 35.815 7.36682C37.5133 8.36987 38.2967 9.16528 40.3985 12.0203C40.6964 12.425 41.049 12.9036 41.3631 13.3295C41.6209 13.6793 41.8528 13.9935 42.0071 14.2023C42.7197 15.1666 44.6488 17.1622 45.3346 17.6447C45.5893 17.8237 46.0265 18.0957 46.3062 18.249L46.8148 18.5276L46.3755 19.3976C45.5168 21.0978 45.3743 22.0159 45.3737 25.8509C45.3731 29.4557 45.2729 30.5278 44.7847 32.1562C44.3874 33.4811 43.3278 35.3711 41.7187 37.6252C39.4796 40.7616 38.4034 42.8527 38.0793 44.6968C38.0166 45.0533 37.9654 45.3492 37.9654 45.3542C37.9654 45.3591 37.4908 45.3512 36.9106 45.3363C35.0567 45.2889 34.2826 45.4382 30.4707 46.5777C27.0184 47.6098 25.9647 47.8079 24.8807 47.6285C24.4976 47.5651 24.2272 47.5626 23.9284 47.6195C23.3514 47.7295 22.0566 47.5986 20.9691 47.3204C20.492 47.1983 19.326 46.8527 18.378 46.5523C15.0925 45.5114 13.5685 45.2092 11.8682 45.2618C10.8036 45.2947 10.8031 45.2946 10.8031 44.8691C10.8031 44.4877 10.4347 43.2019 10.1058 42.436C9.60416 41.2673 9.05312 40.3508 7.20477 37.6108C4.83734 34.1011 4.14833 32.7019 3.76459 30.625C3.61427 29.8115 3.60301 29.5059 3.61667 26.6055C3.62962 23.8374 3.61304 23.3309 3.47615 22.3201C3.29527 20.9843 3.04958 20.1594 2.53256 19.1519C2.32785 18.7528 2.16904 18.4208 2.17976 18.4139C2.19049 18.4072 2.35547 18.3232 2.54646 18.2273C3.41411 17.7918 4.01932 17.3138 5.15904 16.1637C6.32841 14.9838 6.71956 14.4993 9.04494 11.3514C10.0391 10.0055 10.5581 9.40875 11.4399 8.59753C12.7782 7.36639 14.4435 6.54132 18.674 5.01355ZM26.238 7.96252C26.3629 7.10309 26.3358 6.69464 26.1398 6.47522C25.9417 6.25348 25.4458 6.15607 25.184 6.28754C24.9263 6.41693 24.8339 6.71362 24.7896 7.55341C24.7496 8.31317 24.7533 8.33557 24.9488 8.5296C25.104 8.68359 25.2257 8.72815 25.4911 8.72815C25.9924 8.72815 26.1503 8.56622 26.238 7.96252ZM24.1211 7.59717C24.0697 6.79755 23.9846 6.4422 23.8199 6.33832C23.6507 6.23151 22.6085 6.26801 22.5643 6.38226C22.5422 6.43951 22.5603 6.89606 22.6045 7.39673C22.6488 7.8974 22.6854 8.40631 22.6858 8.52771L22.6866 8.74829L23.2658 8.71136C24.1339 8.65607 24.185 8.58948 24.1211 7.59717ZM22.1404 8.75708C22.1584 8.74066 22.0935 8.27551 21.9963 7.72333C21.8176 6.70844 21.7773 6.46472 21.6596 6.41864C21.6198 6.40308 21.5711 6.4101 21.5053 6.4176C21.2334 6.44855 21.1944 6.54907 21.29 6.97137C21.3319 7.15631 21.353 7.3205 21.3371 7.33636C21.3211 7.35223 21.2183 7.18951 21.1086 6.97479C20.9263 6.61786 20.8862 6.58435 20.6404 6.58435C20.5441 6.58435 20.4755 6.58405 20.4332 6.61719C20.3284 6.69916 20.3835 6.98541 20.5743 7.98529C20.7657 8.98828 20.7861 9.0448 20.9408 9.00354C21.031 8.97955 21.1521 8.95941 21.21 8.95886C21.2913 8.95807 21.303 8.87744 21.2616 8.60345C21.2321 8.40863 21.1916 8.19324 21.1715 8.12494C21.1514 8.0567 21.2428 8.20123 21.3745 8.44623C21.6059 8.8764 21.6226 8.88989 21.861 8.83929C21.9282 8.82501 21.9929 8.80872 22.0433 8.79395C22.0948 8.77887 22.1314 8.76532 22.1404 8.75708ZM27.7351 6.84125C27.769 6.59534 27.7514 6.51349 27.6571 6.4776C27.5902 6.45209 27.4422 6.43127 27.3283 6.43127C27.1219 6.43127 27.1205 6.43494 26.9122 7.59448C26.7973 8.23419 26.7123 8.76666 26.7234 8.77765C26.7345 8.7887 26.8861 8.82031 27.0603 8.84796L27.3769 8.89819L27.4415 8.48773L27.5061 8.07733L27.5463 8.49841C27.5858 8.91058 27.5927 8.92108 27.8754 8.9903C28.0342 9.02924 28.1834 9.04205 28.2069 9.01868C28.2304 8.9953 28.2137 8.69153 28.1697 8.34344L28.0897 7.71069L28.3582 7.20898C28.6447 6.67365 28.6282 6.58789 28.2384 6.58551C28.0927 6.58466 27.9958 6.65912 27.8663 6.87146L27.6913 7.15857L27.7351 6.84125ZM23.3034 7.98163C23.3031 7.82379 23.2812 7.45337 23.2549 7.15857C23.221 6.77985 23.2312 6.64508 23.2894 6.69922C23.3783 6.78174 23.5354 8.0152 23.4771 8.17303C23.4045 8.36969 23.3039 8.25885 23.3034 7.98163ZM25.4545 8.26874C25.3813 8.26874 25.4193 7.26416 25.5089 6.83319C25.5285 6.73853 25.5782 6.66095 25.6192 6.66095C25.6635 6.66095 25.6771 6.85474 25.6527 7.13947C25.5777 8.01404 25.533 8.26874 25.4545 8.26874ZM20.063 8.99603C20.1898 8.66528 19.7666 7.27783 19.468 7.04474C19.2319 6.86047 19.0244 6.85071 18.7126 7.00922C18.4251 7.1554 18.2882 7.32904 18.2882 7.54749C18.2882 7.86816 18.6849 9.07349 18.8469 9.24493C19.1424 9.55774 19.9078 9.40112 20.063 8.99603ZM31.5609 8.2298C31.7023 7.72827 31.6264 7.54962 31.1951 7.36859C30.6164 7.12585 30.4839 7.09802 30.4415 7.21075C30.1102 8.08929 29.7239 9.38635 29.7776 9.43964C29.8152 9.47699 29.959 9.51312 30.0969 9.51984C30.3321 9.53125 30.3559 9.5083 30.4794 9.14923C30.6089 8.77289 30.616 8.76685 30.8988 8.79224C31.2611 8.82465 31.4345 8.67731 31.5609 8.2298ZM19.1166 8.20306C19.0005 7.78796 18.9055 7.42621 18.9055 7.39917C18.9055 7.37213 18.9348 7.34998 18.9705 7.34998C19.0418 7.34998 19.4482 8.60815 19.4467 8.82385C19.4443 9.14966 19.3116 8.90015 19.1166 8.20306ZM17.7815 8.16827C17.7045 7.992 17.6092 7.80463 17.5696 7.75195C17.3918 7.5155 16.2198 7.79926 16.2672 8.06726C16.3314 8.43091 17.0829 10.1828 17.1747 10.1828C17.3242 10.1828 17.6709 10.0157 17.6709 9.94373C17.6709 9.90985 17.6002 9.70422 17.5137 9.48663C17.4273 9.26904 17.3665 9.08527 17.3786 9.07819C17.3908 9.07111 17.4953 9.02509 17.6108 8.97589C17.896 8.85443 17.9564 8.56885 17.7815 8.16827ZM31.0311 7.78925C31.1112 7.86877 30.9635 8.34534 30.8586 8.34534C30.7672 8.34534 30.7708 8.26685 30.8757 7.96808C30.9263 7.8241 30.9911 7.74957 31.0311 7.78925ZM33.4192 8.26367L33.1265 8.14288C32.9656 8.07642 32.7379 7.97308 32.6207 7.91327C32.4212 7.81146 32.4031 7.81567 32.3394 7.97919C32.302 8.07526 32.1426 8.4295 31.9854 8.76642C31.8282 9.10327 31.6347 9.52539 31.5556 9.70435L31.4117 10.0298L31.7755 10.2112C32.3815 10.5134 32.4419 10.5178 32.5372 10.2671C32.6133 10.0672 32.6031 10.0372 32.4333 9.96039C32.2855 9.89362 32.2563 9.83844 32.2974 9.70367C32.3754 9.44733 32.4536 9.39429 32.6217 9.48358C32.7495 9.55139 32.7881 9.53204 32.8667 9.36084C32.949 9.1817 32.94 9.1427 32.7913 9.03137C32.6486 8.92456 32.6363 8.8797 32.7116 8.74005C32.8135 8.55127 32.8295 8.54681 33.0292 8.65289C33.1519 8.71802 33.1957 8.69263 33.2975 8.49719L33.4192 8.26367ZM17.284 8.56036C17.2857 8.72406 17.1521 8.59283 17.0651 8.34546C17.0018 8.16498 17.0065 8.1156 17.0871 8.1156C17.1838 8.1156 17.2816 8.33667 17.284 8.56036ZM34.6377 9.8205C34.7885 9.90894 34.8615 9.9527 34.9103 9.93384C34.9573 9.91565 34.9818 9.83936 35.0318 9.6889C35.1339 9.38226 35.0672 9.20886 34.753 8.96381C34.5106 8.77454 34.0901 8.75592 33.9179 8.92682C33.8502 8.99396 33.7396 9.15479 33.6721 9.28436C33.5569 9.50537 33.5598 9.54449 33.7183 9.92419C33.9102 10.3833 33.9022 10.6665 33.6965 10.7055C33.5649 10.7304 33.5635 10.7176 33.6752 10.5035C33.8031 10.258 33.7821 10.2174 33.4345 10.0386C33.2827 9.96039 33.2503 9.97595 33.1451 10.1777C32.9702 10.5134 33 10.7412 33.2496 10.9785C33.5663 11.2795 34.0279 11.3326 34.2522 11.0938C34.3442 10.9957 34.4573 10.7903 34.5035 10.6373C34.5748 10.4012 34.5622 10.3021 34.4207 9.98474C34.3251 9.77026 34.2726 9.53656 34.2977 9.43732C34.362 9.18292 34.515 9.21973 34.4583 9.47601C34.419 9.65332 34.4482 9.70941 34.6377 9.8205ZM15.6633 10.9797L15.028 9.96875C14.6785 9.41272 14.3575 8.95856 14.3148 8.95947C14.272 8.96039 14.1585 9.02118 14.0625 9.09448C13.9085 9.2121 13.9004 9.24548 13.9929 9.37982C14.2497 9.75317 14.3675 9.95312 14.3304 9.95312C14.3082 9.95312 14.1447 9.83252 13.9669 9.68518C13.7891 9.53778 13.6199 9.41718 13.591 9.41718C13.4995 9.41718 13.1953 9.65253 13.1953 9.72321C13.1953 9.81714 14.4369 11.7144 14.4969 11.7124C14.5238 11.7115 14.6306 11.6459 14.7345 11.5667L14.9233 11.4227L14.7152 11.1106C14.6008 10.939 14.5071 10.7783 14.5071 10.7535C14.5071 10.7288 14.6628 10.8351 14.8532 10.9899L15.1992 11.2712L15.4312 11.1254L15.6633 10.9797ZM25.2798 10.0297C24.825 9.99139 24.8248 9.99127 24.7333 9.68219C24.555 9.08044 24.5079 9.06482 24.3339 9.5498L24.1754 9.99139L23.7204 10.0297L23.2654 10.068L23.5999 10.2931C23.9581 10.534 23.9675 10.5789 23.7797 11.1626L23.6985 11.4149L23.9835 11.2436C24.0796 11.1857 24.1852 11.1224 24.2676 11.0732C24.3195 11.0422 24.3622 11.0168 24.3874 11.0019C24.4724 10.9517 24.6143 10.9995 24.8834 11.1688C25.0909 11.2993 25.2721 11.3947 25.2862 11.3806C25.3004 11.3666 25.2595 11.2076 25.1953 11.0273C25.0313 10.5659 25.0399 10.5355 25.4067 10.2887L25.7346 10.068L25.2798 10.0297ZM36.8059 10.3419L36.465 10.1093C36.2775 9.98132 36.0899 9.87659 36.048 9.87659C35.9707 9.87659 34.4762 11.4379 34.4282 11.5688C34.3999 11.6459 34.7173 11.937 34.8341 11.9412C34.8732 11.9426 34.9665 11.8887 35.0414 11.8214C35.2328 11.6495 35.3587 11.7465 35.2503 11.9825C35.1767 12.1428 35.1906 12.1904 35.3497 12.3217C35.4514 12.4058 35.5778 12.4757 35.6306 12.4772C35.6833 12.4785 35.9694 11.9987 36.2662 11.4108L36.8059 10.3419ZM13.967 12.0585C14.0568 11.9511 14.0015 11.8663 13.5362 11.3978C13.2426 11.1022 12.8453 10.7284 12.6532 10.5671L12.3041 10.274L11.9372 10.5436L11.5703 10.8133L11.7362 11.0914C11.8276 11.2443 12.1098 11.7221 12.3635 12.1529C12.8548 12.9875 12.8912 13.0085 13.2207 12.6472C13.3387 12.5178 13.345 12.4703 13.2613 12.3373C13.1289 12.1269 13.2345 12.0391 13.4199 12.2055C13.5801 12.3494 13.7653 12.2997 13.967 12.0585ZM22.1658 11.2551C21.906 11.2548 21.8372 11.2268 21.8351 11.1207C21.8336 11.047 21.7841 10.9006 21.7251 10.7953L21.618 10.6039L21.5327 10.8336C21.4858 10.9599 21.4321 11.1064 21.4135 11.159C21.3947 11.212 21.2496 11.2559 21.0878 11.2574L20.7961 11.2602L21.0249 11.4457C21.241 11.621 21.2485 11.6456 21.16 11.8886C21.0246 12.26 21.0391 12.2795 21.3084 12.0893C21.5572 11.9135 21.5573 11.9135 22.0833 12.132C22.1998 12.1802 22.204 12.1568 22.1252 11.9018C22.0418 11.6325 22.0491 11.6084 22.2655 11.4366L22.4937 11.2554L22.1658 11.2551ZM27.9383 11.2547C27.6297 11.2202 27.5892 11.192 27.532 10.9713C27.4378 10.6081 27.3356 10.5996 27.231 10.9462C27.1421 11.2404 27.1232 11.2548 26.8221 11.2574L26.5063 11.2602L26.7242 11.4371C26.9159 11.5927 26.9358 11.6478 26.8893 11.8937C26.8322 12.1953 26.8845 12.2322 27.1191 12.0562C27.3221 11.9039 27.4442 11.9144 27.7186 12.1083C27.9363 12.2621 27.9487 12.2635 27.9078 12.1275C27.7593 11.6342 27.7648 11.6027 28.0267 11.4456L28.2811 11.293L27.9383 11.2547ZM35.5441 11.333C35.4931 11.2823 35.5284 11.1921 35.6495 11.0643C35.89 10.8102 35.904 10.8208 35.7502 11.1406C35.6644 11.3192 35.5953 11.3838 35.5441 11.333ZM37.8978 11.8428C38.0552 11.5214 38.0563 11.4999 37.9275 11.3047C37.8537 11.193 37.7538 11.1053 37.7057 11.1099C37.6575 11.1145 37.2564 11.4937 36.8142 11.9526L36.0103 12.7869L36.1924 12.9793L36.3746 13.1718L36.7136 12.8448L37.0526 12.5179L36.8365 12.9592L36.6204 13.4003L36.8121 13.5906L37.0038 13.7808L37.8728 12.9161L38.7418 12.0515L38.5453 11.8683L38.3489 11.6852L38.0414 11.9832C37.689 12.3245 37.6707 12.3066 37.8978 11.8428ZM12.8827 11.7766C12.8381 11.7618 12.7277 11.6298 12.6373 11.4831L12.473 11.2164L12.7184 11.4413C12.96 11.6627 13.0415 11.829 12.8827 11.7766ZM18.4035 12.9248C18.2123 12.6589 17.9606 12.2985 17.8441 12.124C17.7276 11.9493 17.5965 11.7468 17.5526 11.674C17.4808 11.5543 17.4646 11.5599 17.3857 11.7319C17.3375 11.8367 17.0656 12.2249 16.7812 12.5946C16.1145 13.4616 16.0594 13.7289 16.4649 14.1313C16.8052 14.4689 16.817 14.5956 16.5143 14.6615C16.2156 14.7266 15.9732 15.0371 15.9732 15.3546C15.9732 15.5563 16.0416 15.6655 16.3205 15.909L16.6677 16.2123V16.9419V17.6716L16.0509 17.4299C15.7116 17.297 15.4338 17.1453 15.4335 17.0926C15.4332 17.0196 15.1036 16.9969 14.0441 16.9969H12.6551V19.8297V22.6625H12.1565C11.8402 22.6625 11.5007 22.6042 11.2283 22.5031L10.799 22.3437L9.09996 23.4027C8.16548 23.9852 7.34421 24.5002 7.27492 24.5472C7.15948 24.6255 7.15631 24.881 7.23672 27.6028C7.28503 29.2363 7.35526 30.6034 7.39282 30.6407C7.4304 30.678 7.68713 30.7457 7.96339 30.7911C8.70718 30.9133 9.44821 30.7415 10.5676 30.1874C10.8052 30.0697 11.0288 29.9594 11.2002 29.8752C11.3825 29.7856 11.5058 29.7255 11.5243 29.7173C11.5601 29.7016 11.5774 29.8978 11.5628 30.1534L11.5362 30.6183L11.8364 30.6685C12.2127 30.7313 13.0418 30.7288 13.3706 30.6636C14.4315 30.4536 15.3629 29.9835 16.8525 28.9064L17.6929 28.2988L17.6436 27.1841C17.5385 24.8054 17.4178 22.3936 17.403 22.3752C17.3945 22.3645 17.1822 22.4274 16.9312 22.515C16.3889 22.7039 15.7944 22.6771 15.399 22.4456L15.1418 22.2951L14.3878 22.7084C13.9731 22.9359 13.5872 23.1219 13.5303 23.1219C13.458 23.1219 13.4273 23.0121 13.4286 22.7582C13.4304 22.3986 13.4358 22.3909 13.9118 22.0692C14.3606 21.7658 14.4285 21.7438 14.9131 21.7438C15.2083 21.7438 15.4331 21.7107 15.4331 21.6672C15.4331 21.6166 18.4948 21.5906 24.4638 21.5906C32.42 21.5906 33.4999 21.6042 33.539 21.7054C33.5723 21.7914 33.711 21.8203 34.0907 21.8203C34.5559 21.8203 34.6391 21.8469 35.094 22.1411L35.5902 22.4617L35.5428 22.8049C35.5167 22.9937 35.4791 23.1643 35.4591 23.184C35.4391 23.2039 35.0711 23.0244 34.6412 22.7852L33.8595 22.3503L33.5345 22.5064C33.132 22.6997 32.4327 22.7132 31.9666 22.5366C31.7839 22.4673 31.6164 22.4285 31.5946 22.4502C31.5278 22.5165 31.2043 28.3154 31.2649 28.3598C32.1543 29.0124 33.3389 29.8266 33.6613 30.0072C34.7237 30.6021 36.0209 30.8896 36.9908 30.7454L37.348 30.6921V30.2375C37.348 29.9874 37.3704 29.7828 37.3978 29.7828C37.4252 29.7828 37.8222 29.9722 38.28 30.2036C39.4698 30.8049 40.3253 30.9835 41.2505 30.8235L41.5647 30.7692L41.6571 28.496C41.7079 27.2456 41.7575 25.8792 41.7673 25.4592L41.785 24.6959L39.9716 23.5562L38.1583 22.4166L37.7934 22.5466C37.3052 22.7206 36.5354 22.7876 36.3909 22.6686C36.2964 22.5908 36.2865 22.1649 36.3244 19.8253L36.369 17.0734H34.9718C33.8955 17.0734 33.5605 17.0967 33.5129 17.1747C33.4545 17.2706 32.4946 17.6859 32.3314 17.6859C32.2865 17.6859 32.2551 17.3894 32.2551 16.9648V16.2437L32.5173 16.083C33.1885 15.6713 33.2129 15.0049 32.566 14.7481C32.2126 14.6078 32.171 14.452 32.4402 14.2769C32.6809 14.1204 32.8268 13.7641 32.76 13.4956C32.731 13.379 32.5227 13.0424 32.297 12.7477C32.0714 12.4529 31.8137 12.0911 31.7244 11.9437C31.6351 11.7964 31.542 11.6827 31.5175 11.6912C31.493 11.6998 31.1976 12.0923 30.8609 12.5636C30.1649 13.538 30.1227 13.71 30.4803 14.1141C30.7346 14.4015 30.7884 14.7 30.5859 14.7C30.3927 14.7 29.9622 14.9907 29.9204 15.1494C29.8571 15.3896 30.0698 15.7564 30.402 15.9797L30.7193 16.193L30.677 16.6445C30.6537 16.8928 30.6346 17.3781 30.6346 17.723V18.3501L30.2232 18.4888L29.8118 18.6277L28.9307 18.2797C27.3503 17.6556 26.1197 17.4241 24.3842 17.4246C22.7816 17.4249 21.4711 17.6884 19.819 18.3424L19.1507 18.607L18.7773 18.4698L18.4039 18.3325L18.3374 17.2681L18.2709 16.2036L18.4917 16.0454C19.2531 15.5004 19.252 14.9661 18.4889 14.6924C18.1409 14.5676 18.1392 14.4517 18.4811 14.1538C18.8665 13.8181 18.8492 13.5445 18.4035 12.9248ZM11.3819 11.9348L11.1997 11.7861C10.9169 11.5554 10.6187 11.596 10.3041 11.908C9.94955 12.2598 9.94971 12.4904 10.3045 12.8425C10.5723 13.1082 10.5865 13.1125 11.0437 13.0651C11.5345 13.0142 11.8063 13.093 11.8063 13.2863C11.8063 13.4426 11.7011 13.4261 11.5348 13.2437C11.3937 13.0891 11.3936 13.0891 11.1814 13.2908C11.064 13.4024 10.988 13.5412 11.0113 13.6015C11.0644 13.7388 11.4393 13.9344 11.6493 13.9344C11.8625 13.9344 12.3287 13.4888 12.3908 13.2256C12.4327 13.048 12.3901 12.9644 12.1227 12.699L11.8047 12.3835L11.2703 12.4357C10.7813 12.4835 10.7287 12.4746 10.6511 12.3307C10.5852 12.2086 10.5892 12.1735 10.6693 12.1735C10.7259 12.1735 10.8144 12.2153 10.866 12.2664C10.9393 12.3392 11.0052 12.3135 11.1708 12.147L11.3819 11.9348ZM29.7858 12.7094C29.4593 12.6734 29.4343 12.6539 29.3671 12.384C29.3278 12.2261 29.2725 12.0969 29.2443 12.0969C29.216 12.0969 29.1513 12.2347 29.1004 12.4031C29.0128 12.6934 28.992 12.7094 28.7024 12.7094C28.3381 12.7094 28.316 12.7821 28.6254 12.9635C28.826 13.081 28.8449 13.1212 28.7797 13.2912C28.6337 13.6723 28.6795 13.7332 28.9756 13.5516L29.2457 13.386L29.5276 13.5588L29.8094 13.7316L29.7594 13.5339C29.7318 13.4251 29.6896 13.2851 29.6655 13.2228C29.6379 13.1514 29.7163 13.0426 29.8773 12.9286L30.1331 12.7477L29.7858 12.7094ZM20.3188 12.713C20.0209 12.7097 19.9882 12.6885 19.8982 12.4414C19.8445 12.294 19.7797 12.1735 19.7543 12.1735C19.7289 12.1735 19.6642 12.294 19.6105 12.4414C19.5203 12.6889 19.4883 12.7095 19.1899 12.7114L18.8669 12.7135L19.1224 12.9238C19.354 13.1144 19.3703 13.1542 19.2961 13.3478C19.1673 13.6838 19.1951 13.7106 19.4919 13.5369C19.7604 13.3798 19.7772 13.3788 19.9988 13.5087C20.2791 13.673 20.3369 13.6292 20.2321 13.3311C20.159 13.1229 20.1735 13.0858 20.3968 12.9097L20.6417 12.7166L20.3188 12.713ZM40.0142 13.5869C40.0384 13.4874 39.9236 13.3543 39.5502 12.9155C39.2151 12.5217 39.1301 12.4899 38.9474 12.6903C38.8535 12.793 38.8444 12.8585 38.9079 12.9713C38.9969 13.1288 38.9362 13.1974 37.9774 14.021L37.565 14.3752L37.7845 14.6172L38.0039 14.8593L38.7352 14.2475C39.4232 13.6717 39.4745 13.6431 39.606 13.761C39.7359 13.8777 39.7567 13.8754 39.9068 13.7264C39.9638 13.67 40.0033 13.6319 40.0142 13.5869ZM11.07 14.7031C11.3192 14.4707 11.3161 14.3847 11.0535 14.2341C10.937 14.1674 10.4734 13.8859 10.0232 13.6087L9.20482 13.1047L8.918 13.4452C8.76019 13.6324 8.64236 13.8167 8.6561 13.8545C8.66983 13.8924 9.04378 14.3091 9.48709 14.7806L10.2931 15.6378L10.4706 15.4177C10.6794 15.1588 10.6913 15.06 10.5298 14.927C10.3558 14.7838 10.514 14.663 10.7136 14.7867C10.8533 14.8732 10.8989 14.8625 11.07 14.7031ZM25.9556 13.6606C25.4096 13.5094 24.8689 13.3196 24.7539 13.2389C24.5026 13.0626 24.4511 13.0587 24.3036 13.205C24.241 13.267 23.7124 13.4564 23.1288 13.6257C21.848 13.9973 21.2548 14.2582 20.6407 14.7197C19.9212 15.2606 19.4615 15.9771 19.248 16.8905C19.1825 17.1707 19.1394 17.5245 19.1523 17.6769C19.1815 18.0241 19.2092 18.0228 20.3717 17.6182C23.3207 16.5917 26.0137 16.6183 28.8439 17.702C29.2807 17.8692 29.6887 17.9868 29.7506 17.9633C30.0041 17.8667 29.7814 16.7281 29.3495 15.9127C28.7929 14.8616 27.7194 14.1493 25.9556 13.6606ZM10.0839 14.4438C10.0523 14.4752 9.91544 14.3906 9.77971 14.2559C9.64397 14.1211 9.56696 14.0121 9.60855 14.0137C9.73973 14.0184 10.1439 14.3843 10.0839 14.4438ZM41.1291 15.1393C41.1291 15.0357 41.0002 14.7567 40.8425 14.5192C40.685 14.2818 40.5374 14.0897 40.5146 14.0923C40.4739 14.0972 38.6873 15.3362 38.6088 15.4142C38.5551 15.4674 38.6379 15.6996 38.7737 15.8769C38.8791 16.0144 38.8987 16.0094 39.254 15.7551C39.7633 15.3905 39.8176 15.364 39.8153 15.4802C39.8142 15.5354 39.6406 15.6967 39.4295 15.8388C39.2184 15.9809 39.0464 16.1359 39.0474 16.1833C39.0483 16.2307 39.1138 16.3531 39.193 16.4552L39.3368 16.6409L39.7121 16.3751C39.9185 16.2288 40.1217 16.0333 40.1636 15.9406C40.2144 15.828 40.3079 15.7719 40.4447 15.7719C40.7135 15.7719 41.1291 15.3877 41.1291 15.1393ZM9.95966 16.0838L9.64204 15.8752C9.46742 15.7606 9.08885 15.3646 8.80078 14.9954L8.27715 14.324L8.11255 14.4978C7.91678 14.7046 7.90698 14.8005 8.06802 14.9331C8.134 14.9875 8.22298 15.0969 8.26579 15.1762C8.3398 15.3134 8.32831 15.3128 8.03476 15.1642L7.72588 15.0079L7.56691 15.2294C7.4794 15.3513 7.40787 15.4672 7.40787 15.487C7.40787 15.5067 7.75642 15.6526 8.18254 15.8113C8.60857 15.9698 9.08214 16.1981 9.23485 16.3185C9.58331 16.5933 9.65694 16.5923 9.82462 16.3107L9.95966 16.0838ZM40.2032 15.2307C40.1315 15.2306 40.1757 15.1588 40.3189 15.0426C40.4462 14.9393 40.5627 14.8911 40.5777 14.9354C40.6113 15.0342 40.3615 15.2312 40.2032 15.2307ZM42.2866 16.8023C42.2866 16.7817 42.1791 16.5759 42.0478 16.345C41.9164 16.114 41.7862 15.926 41.7584 15.9271C41.7306 15.9283 41.2738 16.1685 40.7433 16.4608C40.2128 16.7532 39.744 17.0059 39.7016 17.0225C39.6023 17.0612 40.0836 17.947 40.2194 17.9753C40.2758 17.987 40.3863 17.9498 40.4652 17.8926C40.5859 17.8051 40.594 17.7617 40.5162 17.6176C40.4448 17.4851 40.4447 17.4216 40.5159 17.3365C40.6374 17.1913 40.8729 17.1964 40.9573 17.3459C41.0141 17.4465 41.0576 17.4504 41.2342 17.3706C41.3582 17.3145 41.4268 17.2345 41.4022 17.1747L41.319 16.9722C41.2948 16.9131 41.3598 16.8338 41.4754 16.7816C41.6529 16.7014 41.6821 16.7114 41.7592 16.8792C41.8411 17.0574 41.8557 17.0609 42.0658 16.9531C42.1873 16.8907 42.2866 16.8229 42.2866 16.8023ZM9.32991 17.0168L8.31102 16.6273C7.75064 16.4131 7.23325 16.2162 7.16133 16.1897C6.99496 16.1284 6.52634 16.8272 6.64154 16.965C6.73778 17.08 8.45068 18.375 8.50671 18.375C8.53055 18.375 8.62199 18.2541 8.70988 18.1063C8.86845 17.8397 8.86853 17.8369 8.71753 17.7433C8.6338 17.6915 8.56535 17.6057 8.56535 17.5526C8.56535 17.4368 8.578 17.4357 8.82988 17.5308C9.01028 17.5988 9.04039 17.5798 9.17859 17.311L9.32991 17.0168ZM8.17953 17.2382C8.17953 17.3595 7.98746 17.303 7.75511 17.1136L7.52362 16.9247L7.85158 17.049C8.03198 17.1173 8.17953 17.2025 8.17953 17.2382ZM42.5523 18.2264C42.8351 17.939 42.8446 17.9135 42.7515 17.6904C42.6977 17.5616 42.6145 17.4591 42.5667 17.4626C42.4486 17.4712 40.4346 18.4349 40.4346 18.4828C40.4346 18.5859 40.6222 18.9109 40.6816 18.9109C40.7189 18.9109 40.8903 18.8397 41.0625 18.7524C41.4802 18.5411 41.5068 18.6006 41.1291 18.9017C40.8009 19.1635 40.77 19.2532 40.9063 19.5499L40.992 19.7368L42.0794 19.2444C42.6775 18.9737 43.1784 18.7407 43.1926 18.7266C43.2132 18.7062 43.0789 18.3422 43.0115 18.2357C43.003 18.2222 42.8552 18.2825 42.683 18.3696C42.2385 18.5947 42.2151 18.569 42.5523 18.2264ZM7.937 18.7677C7.72464 18.6801 7.27916 18.3837 6.9472 18.1089C6.61516 17.8342 6.30858 17.6094 6.2659 17.6094C6.22324 17.6094 6.15016 17.7181 6.10347 17.851C6.03178 18.0549 6.03966 18.1075 6.15378 18.1892C6.22816 18.2425 6.35843 18.3422 6.44331 18.4111L6.59764 18.5361L6.44331 18.4974C6.10716 18.4133 5.98013 18.3782 5.90273 18.425C5.85114 18.4562 5.82158 18.5239 5.76688 18.6377C5.71213 18.7516 5.67047 18.8214 5.6879 18.8699C5.71896 18.9564 5.93803 18.9754 6.6062 19.0576C6.95052 19.0999 7.41589 19.2064 7.64053 19.2942C8.06972 19.462 8.09804 19.4542 8.23671 19.1295C8.32013 18.9341 8.30956 18.9213 7.937 18.7677ZM15.6067 19.4921C15.4335 19.5412 15.4331 19.5394 15.4331 18.6085C15.4331 17.6764 15.4332 17.6757 15.6067 17.7288C15.7022 17.758 16.3012 17.9876 16.9378 18.2391C19.046 19.0718 19.3029 19.1535 19.44 19.0346C19.749 18.7668 21.033 18.3117 22.2236 18.0479C23.3248 17.804 25.4841 17.8077 26.6512 18.0556C27.8672 18.3138 29.4229 18.8657 29.5688 19.0906C29.6317 19.1877 30.0992 19.034 32.0143 18.2862C32.7518 17.9982 33.4029 17.7625 33.4611 17.7625C33.5449 17.7625 33.5669 17.9547 33.5669 18.6864V19.6104L33.3933 19.5477C33.2978 19.5133 32.9881 19.4852 32.7052 19.4852C32.3003 19.4852 32.1429 19.5201 31.9674 19.649L31.7442 19.8129L31.4402 19.6259C31.1811 19.4666 31.0598 19.4427 30.6187 19.4644C30.2423 19.4828 30.041 19.5339 29.8809 19.6513L29.6607 19.8129L29.3568 19.6259C29.0976 19.4666 28.9764 19.4427 28.5352 19.4644C28.1585 19.4828 27.9576 19.5339 27.797 19.6516C27.58 19.8109 27.5736 19.8111 27.3887 19.6689C26.9533 19.334 26.1005 19.3362 25.6809 19.6733C25.5158 19.806 25.5026 19.8055 25.3067 19.6619C24.8719 19.3429 24.2074 19.3233 23.6945 19.6144C23.4306 19.7642 23.4276 19.7642 23.1543 19.6143C23.0031 19.5314 22.7696 19.4404 22.6352 19.4123C22.3448 19.3513 21.8038 19.4825 21.5207 19.6826C21.3226 19.8225 21.315 19.8225 21.1873 19.6826C21.0145 19.493 20.4317 19.3528 20.0769 19.4155C19.9207 19.443 19.68 19.533 19.5421 19.6155L19.2913 19.7656L19.0136 19.5953C18.6285 19.3591 17.9759 19.3501 17.5449 19.575L17.2259 19.7413L16.8504 19.5498C16.4757 19.3587 16.1338 19.3428 15.6067 19.4921ZM30.5588 22.6871L28.5779 22.6365C25.9994 22.5707 18.4833 22.571 18.4168 22.637C18.3414 22.7119 18.3539 30.762 18.4296 30.8085C18.4648 30.8301 21.1994 30.8526 24.5063 30.8585L30.5189 30.8691L30.5389 26.7781L30.5588 22.6871ZM8.17953 24.6655C8.17953 24.634 8.77563 24.2581 9.50415 23.83C10.7841 23.078 10.8407 23.0533 11.1825 23.0976C11.377 23.1228 11.5449 23.15 11.5555 23.1581C11.6265 23.2124 9.4462 24.5881 9.12296 24.693C8.73674 24.8184 8.17953 24.8021 8.17953 24.6655ZM12.6551 24.5383C13.1804 24.2083 14.7534 23.2634 14.9533 23.1578C15.0962 23.0823 15.7852 23.0835 15.8786 23.1594C15.8902 23.1688 15.383 23.5225 14.7514 23.9454C13.5328 24.7614 13.0398 24.9562 12.5394 24.8196L12.3079 24.7564L12.6551 24.5383ZM33.9674 23.842C33.1413 23.2691 33.1062 23.2341 33.3115 23.1884C33.4307 23.1617 33.6047 23.1359 33.6979 23.1309C33.903 23.1199 36.6684 24.7204 36.6091 24.8157C36.5861 24.8526 36.3645 24.8828 36.1167 24.8828C35.5711 24.8828 35.2297 24.7175 33.9674 23.842ZM38.426 23.9495C37.426 23.2672 37.3954 23.2384 37.6181 23.1902C37.7454 23.1626 37.9156 23.1359 37.9962 23.1309C38.0769 23.1259 38.7509 23.4917 39.4942 23.9436L40.8454 24.7654L40.567 24.8307C40.0885 24.9431 39.5685 24.729 38.426 23.9495ZM23.2133 23.8943C23.4117 23.6978 23.6956 23.4988 23.8441 23.4521C24.5414 23.2328 25.2727 23.3997 25.7504 23.8868C26.2618 24.4085 26.2724 24.4664 26.2975 26.8543L26.3202 29.0172H24.4648H22.6095V27.0405C22.6095 24.6833 22.6547 24.4474 23.2133 23.8943ZM27.3971 25.4786C27.4968 25.1226 27.8149 24.7408 28.1229 24.6077C28.414 24.4819 28.4157 24.4819 28.6812 24.5817C28.9901 24.6978 29.2437 24.9496 29.4085 25.3039C29.5333 25.5722 29.5512 25.8214 29.5526 27.3137L29.5543 29.0172H28.4354H27.3165L27.317 27.3903C27.3172 26.4954 27.3533 25.6351 27.3971 25.4786ZM19.5725 25.3039C19.7612 24.9545 19.9441 24.772 20.2189 24.6591C20.6711 24.4733 21.1572 24.7291 21.452 25.3079C21.6407 25.6785 21.6448 25.7237 21.643 27.3857C21.642 28.3203 21.6246 29.0955 21.6044 29.1088C21.5842 29.1219 21.0816 29.1215 20.4874 29.1078L19.4071 29.0828V27.3465C19.4071 25.7177 19.4173 25.5912 19.5725 25.3039ZM10.9588 32.8953C10.7498 32.4678 10.5384 31.9543 10.4889 31.7543C10.4395 31.5543 10.37 31.3906 10.3346 31.3906C10.25 31.3906 9.96544 32.0179 9.83118 32.5008C9.77261 32.7113 9.72423 33.2191 9.72375 33.6291L9.72284 34.3746L9.27913 34.181C8.65579 33.9091 8.06633 33.5079 7.50403 32.9731C7.23857 32.7208 7.00244 32.533 6.97922 32.556C6.95599 32.579 7.01117 32.8861 7.10184 33.2384C7.78166 35.8809 9.40607 37.9619 11.8915 39.3743L12.2468 39.5762L12.4702 39.3427C12.5932 39.2143 12.8184 39.0105 12.9707 38.8898L13.2478 38.6706L13.9259 39.1664C15.705 40.4673 17.7315 41.4672 19.7973 42.0634C22.3986 42.8142 25.3107 42.894 28.0741 42.2902C30.3872 41.7847 33.0953 40.5656 34.9313 39.203L35.5347 38.7552L35.7661 39.0331C36.1479 39.4915 36.2519 39.6338 36.3587 39.636C36.4168 39.6373 36.4758 39.597 36.5808 39.5437C37.2005 39.2289 38.2854 38.4257 38.9568 37.7846C39.7387 37.038 40.4074 36.1197 40.8633 35.1664C41.1477 34.5717 41.6051 33.2607 41.6983 32.7724L41.7489 32.5081L41.5354 32.6987C41.4563 32.7693 41.3054 32.9044 41.1485 33.0452L40.9242 33.2464C40.435 33.6857 39.7945 34.0977 39.3016 34.2904L38.9299 34.4357L38.9178 33.6847C38.9049 32.8848 38.7681 32.2831 38.4664 31.6994C38.3465 31.4674 38.2733 31.3904 38.2458 31.4672C38.2231 31.5303 38.114 31.8577 38.0033 32.1945C37.5037 33.7154 36.5093 34.7943 35.1774 35.2606L34.8863 35.3625L34.3401 34.9085L33.7938 34.4546L33.1603 34.9976C31.5773 36.3549 29.509 37.4506 27.548 37.9706C24.2582 38.8432 20.8558 38.3742 17.8037 36.6275C17.0359 36.1881 15.9973 35.4523 15.471 34.9752C15.2473 34.7722 15.0197 34.6063 14.9652 34.6063C14.9108 34.6063 14.6684 34.777 14.4267 34.9856C13.9971 35.3564 13.9802 35.3632 13.6876 35.2844C13.0988 35.1258 12.3149 34.6526 11.8233 34.1591C11.4529 33.7872 11.2492 33.4895 10.9588 32.8953ZM19.8315 32.1213C19.8315 31.8921 19.7854 31.7557 19.6738 31.6556C19.5526 31.5468 19.3565 31.5065 18.825 31.4813L18.1339 31.4484V32.5297V33.611H18.4425H18.7512V33.2379V32.8647L19.1514 32.8267C19.6478 32.7793 19.8315 32.5887 19.8315 32.1213ZM21.9179 33.4004C22.462 32.9168 22.3442 31.8351 21.7194 31.576C20.7121 31.1584 19.827 32.03 20.2466 33.0263C20.4209 33.4404 20.7078 33.611 21.2297 33.611C21.6132 33.611 21.7166 33.5793 21.9179 33.4004ZM23.9598 32.6094L23.584 32.0383C23.239 31.5141 23.1866 31.4672 22.9474 31.4672H22.6866V32.5391V33.611H22.9533H23.22L23.2427 33.0558L23.2654 32.5008L23.6356 33.0558C23.9922 33.5904 24.0173 33.611 24.313 33.611H24.6201L24.5986 32.5582L24.5772 31.5055H24.3071H24.037L23.9984 32.0574L23.9598 32.6094ZM26.6983 31.7717C26.6554 31.6921 26.4904 31.5912 26.3318 31.5475C26.1731 31.5038 25.8263 31.4679 25.561 31.4677L25.0787 31.4672V32.5391V33.611H25.3874H25.6961V33.2281C25.6961 32.8583 25.7036 32.8453 25.9161 32.8453C26.2374 32.8453 26.6141 32.6968 26.7008 32.5361C26.7989 32.3542 26.7976 31.9558 26.6983 31.7717ZM28.8701 31.9266L28.8456 31.716L28.8213 31.5055L27.9917 31.4837L27.1622 31.462V32.5364V33.611H28.011H28.8598V33.3812V33.1516H28.3197H27.7795V32.9219V32.6922H28.2811C28.7647 32.6922 28.7827 32.6853 28.7827 32.5008C28.7827 32.3163 28.7647 32.3094 28.2811 32.3094C27.7975 32.3094 27.7795 32.3025 27.7795 32.118C27.7795 31.9318 27.7946 31.9266 28.3248 31.9266H28.8701ZM30.843 31.8515C30.7905 31.7471 30.6612 31.6184 30.5559 31.5655C30.4507 31.5127 30.2257 31.47 30.0559 31.4706C29.5361 31.4727 29.2457 31.7084 29.2457 32.1282C29.2457 32.4185 29.4035 32.5536 29.955 32.7354C30.3752 32.8738 30.4562 32.9576 30.3232 33.1166C30.1847 33.2822 29.9713 33.252 29.8115 33.0441C29.6979 32.8964 29.6206 32.8679 29.4193 32.8997C29.1113 32.9483 29.0903 33.1221 29.3577 33.4083C29.5255 33.588 29.6046 33.611 30.0558 33.611C30.4907 33.611 30.5915 33.5842 30.7508 33.4261C31.2099 32.9706 31.0318 32.5298 30.2802 32.2616C29.8192 32.0972 29.6815 31.9085 29.9906 31.8648C30.0909 31.8506 30.2011 31.9041 30.2687 31.9999C30.3627 32.133 30.4255 32.149 30.6597 32.1C30.9263 32.044 30.9344 32.0329 30.843 31.8515ZM18.9634 32.3718C18.7719 32.3937 18.7512 32.3727 18.7512 32.1562C18.7512 31.9398 18.7719 31.9188 18.9634 31.9407C19.1318 31.9598 19.1756 32.0043 19.1756 32.1562C19.1756 32.3082 19.1318 32.3527 18.9634 32.3718ZM20.7961 32.5588C20.7961 32.297 20.8367 32.1867 20.9735 32.0768C21.1459 31.9382 21.3074 31.9456 21.5098 32.101C21.6507 32.2091 21.6327 32.8848 21.4851 33.0313C21.327 33.1881 21.0358 33.1849 20.9019 33.0249C20.8438 32.9553 20.7961 32.7455 20.7961 32.5588ZM25.9083 32.3718C25.7168 32.3937 25.6961 32.3727 25.6961 32.1562C25.6961 31.9398 25.7168 31.9188 25.9083 31.9407C26.0766 31.9598 26.1205 32.0043 26.1205 32.1562C26.1205 32.3082 26.0766 32.3527 25.9083 32.3718ZM10.1449 34.6753C10.0324 34.3239 10.1025 32.6714 10.2396 32.4409C10.2592 32.4078 10.4068 32.649 10.5675 32.9767C11.1585 34.1816 11.8384 34.8785 12.9068 35.3746L13.4262 35.6157L12.5198 36.3434C11.3647 37.2707 11.189 37.4371 11.189 37.6035C11.189 37.6782 11.3821 38.0209 11.6183 38.3649C11.8629 38.7213 11.9926 38.9695 11.9197 38.9418C11.8495 38.915 11.5267 38.7124 11.2023 38.4915C10.4701 37.9929 9.52591 37.109 9.01909 36.4476C8.60286 35.9047 7.74925 34.2661 7.66808 33.8546L7.618 33.6005L8.23022 34.0141C8.81544 34.4095 9.76366 34.8359 10.0577 34.8359C10.1633 34.8359 10.184 34.7977 10.1449 34.6753ZM35.7249 35.4379C36.7117 34.9935 37.4504 34.2408 38.0442 33.075C38.3733 32.429 38.3763 32.4259 38.4498 32.6539C38.542 32.9397 38.5647 34.4135 38.4815 34.7126C38.4202 34.933 38.4211 34.9337 38.7093 34.8873C39.0775 34.8281 40.1271 34.3234 40.6237 33.9668C40.8337 33.816 41.0175 33.7043 41.0318 33.7186C41.0715 33.7579 40.7135 34.6713 40.4729 35.1449C39.8236 36.4229 38.501 37.8792 37.2556 38.6877C36.6865 39.0572 36.3449 39.2104 36.3449 39.0961C36.3449 39.0694 36.9845 37.9554 37.2001 37.6066C37.2958 37.4518 37.2943 37.4183 37.1885 37.3387C37.122 37.2886 36.6603 36.8879 36.1624 36.4481L35.2572 35.6486L35.7249 35.4379ZM30.8256 34.8359C30.5147 34.8359 30.4681 34.8129 30.4 34.6254C30.1901 34.0475 30.1847 34.0464 30.0215 34.5488C29.9297 34.8311 29.9214 34.836 29.529 34.8389L29.1299 34.8417L29.4289 35.0957C29.7231 35.3455 29.7265 35.3544 29.6335 35.6339C29.5815 35.7902 29.5531 35.9321 29.5703 35.9492C29.5876 35.9663 29.7293 35.8943 29.8853 35.7891L30.1689 35.5979L30.4863 35.7966C30.6607 35.906 30.818 35.9811 30.8357 35.9636C30.8533 35.946 30.8175 35.79 30.7559 35.6169L30.6439 35.3021L30.9094 35.1393C31.2667 34.9202 31.2435 34.8359 30.8256 34.8359ZM19.5674 35.1422C19.1998 35.1051 19.1841 35.0934 19.0787 34.7785C19.0188 34.5996 18.9456 34.4531 18.916 34.4531C18.8864 34.4531 18.8111 34.5996 18.7488 34.7785C18.639 35.0938 18.6234 35.1051 18.2496 35.1422L17.8638 35.1805L18.1339 35.3662C18.2824 35.4684 18.416 35.5609 18.4309 35.5717C18.4458 35.5824 18.4163 35.7165 18.3654 35.8695C18.3144 36.0226 18.2921 36.167 18.3158 36.1904C18.3394 36.2138 18.4856 36.1588 18.6406 36.0681L18.9224 35.9031L19.2612 36.1C19.4475 36.2084 19.6 36.2827 19.6 36.2652C19.6 36.2477 19.5475 36.0858 19.4834 35.9055C19.4193 35.7252 19.3759 35.5718 19.3869 35.5648C19.3981 35.5577 19.5286 35.4684 19.6772 35.3662L19.9473 35.1805L19.5674 35.1422ZM30.5575 37.2728C31.3949 36.8295 32.6182 36.0173 33.2968 35.454C33.5515 35.2427 33.7854 35.0774 33.8166 35.0869C33.8477 35.0963 34.4818 35.6003 35.2257 36.207C36.0493 36.8788 36.4369 37.1331 36.4259 37.3687C36.4158 37.5846 36.0711 37.7849 35.4207 38.2765C34.1066 39.2698 33.1975 39.8397 31.9416 40.4575C29.3341 41.7404 26.6342 42.3362 23.8827 42.2358C22.4851 42.1848 21.6568 42.0739 20.3993 41.7693C18.3398 41.2706 16.0629 40.1914 14.1984 38.8304C13.5066 38.3254 12.3465 37.3564 12.3465 37.2837C12.3465 37.2444 14.2784 35.6491 14.8707 35.1993C14.9353 35.1502 15.2123 35.3256 15.7675 35.7668C17.1952 36.9017 19.0096 37.852 20.6417 38.3196C23.9051 39.2546 27.5382 38.8711 30.5575 37.2728ZM27.1261 36.0939L27.0078 35.7763C26.9427 35.6016 26.8706 35.4399 26.8475 35.417C26.8244 35.3941 26.7335 35.5446 26.6454 35.7515C26.4916 36.1125 26.4713 36.1288 26.1485 36.1518L25.8118 36.1758L26.0999 36.3535L26.388 36.5312L26.2736 36.8032C26.1013 37.2122 26.1293 37.2424 26.4862 37.0333L26.8133 36.8416L27.155 37.0402L27.4966 37.239L27.4433 37.0519C27.3258 36.6398 27.3005 36.4437 27.3648 36.4434C27.4019 36.4431 27.5365 36.3563 27.6638 36.2504L27.8953 36.0578L27.5107 36.0759L27.1261 36.0939ZM23.0206 36.1226C22.6716 36.1 22.6567 36.0889 22.5512 35.7738C22.4913 35.5949 22.4149 35.4484 22.3816 35.4484C22.3482 35.4484 22.2771 35.6035 22.2236 35.793L22.1264 36.1375H21.7506C21.5439 36.1375 21.3753 36.1633 21.3757 36.1949C21.3763 36.2266 21.5012 36.3323 21.6534 36.4302C21.8724 36.571 21.9203 36.6428 21.8833 36.7747C21.8576 36.8664 21.8148 37.0226 21.7882 37.1219L21.7397 37.3025L22.0589 37.1219L22.378 36.9414L22.6933 37.1198C22.8668 37.2179 23.0234 37.2836 23.0414 37.2657C23.0594 37.2479 23.023 37.0895 22.9605 36.9138L22.8469 36.5944L23.113 36.4234C23.2594 36.3293 23.3796 36.2284 23.3802 36.1992C23.3806 36.1698 23.2189 36.1354 23.0206 36.1226ZM15.5874 36.2365C15.5874 36.1979 15.4846 36.0909 15.359 35.9988C15.2334 35.9067 15.1205 35.8312 15.108 35.8312C15.0955 35.8312 14.8183 36.2706 14.492 36.8074L13.8988 37.7836L14.1836 38.0295C14.5312 38.3297 14.5847 38.3341 14.8216 38.0828C14.9245 37.9737 15.0726 37.8502 15.1507 37.8084C15.2673 37.7461 15.2555 37.7957 15.085 38.0844C14.9707 38.2779 14.8955 38.4839 14.9181 38.5421C14.9405 38.6003 15.082 38.741 15.2324 38.8548L15.5058 39.0617L16.3182 38.309C16.7651 37.8949 17.1307 37.519 17.1307 37.4738C17.1307 37.4284 17.0228 37.3121 16.8909 37.2155L16.6511 37.0395L16.2231 37.4498L15.7951 37.8602L15.9755 37.5539C16.0748 37.3855 16.2221 37.1617 16.3029 37.0566L16.4496 36.8655L16.1951 36.6546C16.055 36.5386 15.9212 36.4437 15.8977 36.4437C15.8741 36.4437 15.666 36.6074 15.435 36.8074C15.0047 37.1802 15.0013 37.1701 15.372 36.6241C15.4905 36.4495 15.5874 36.2751 15.5874 36.2365ZM34.4164 38.1541C34.9323 37.7234 34.8712 37.3976 34.1279 36.616C33.733 36.2009 33.6358 36.1375 33.3942 36.1375C33.069 36.1375 32.7101 36.3996 32.5675 36.7411C32.4485 37.0261 32.5252 37.1783 33.1283 37.8546C33.5348 38.3107 33.6048 38.3578 33.8747 38.3578C34.0845 38.3578 34.2444 38.2976 34.4164 38.1541ZM34.1504 37.8033C34.0921 37.8601 33.11 36.8454 33.106 36.7245C33.1014 36.5814 33.3124 36.7488 33.7483 37.234C34.0015 37.5159 34.1825 37.7721 34.1504 37.8033ZM32.0236 38.1207C32.0236 38.0762 31.9221 37.9391 31.7981 37.816C31.674 37.6929 31.5091 37.5944 31.4315 37.597C30.9958 37.612 30.4803 38.037 30.4803 38.3812C30.4803 38.6078 30.872 39.3195 31.2274 39.7385C31.4854 40.0427 31.9376 40.06 32.1641 39.7742C32.2476 39.6689 32.363 39.5817 32.4206 39.5804C32.4781 39.579 32.5891 39.5299 32.6671 39.4713C32.802 39.3698 32.7931 39.3381 32.4867 38.8262L32.1643 38.2878L31.8432 38.4863C31.7515 38.5429 31.6654 38.5969 31.6017 38.6372C31.5428 38.6746 31.5033 38.7004 31.4965 38.7061C31.4389 38.7543 31.6509 39.0479 31.715 39.0086C31.7859 38.9651 31.9465 39.2007 31.9465 39.3481C31.9465 39.5479 31.7899 39.3875 31.4568 38.8465C31.2592 38.5258 31.0976 38.2329 31.0976 38.1957C31.0976 38.0561 31.2585 38.1353 31.3414 38.3157L31.4276 38.5033L31.7256 38.3525C31.8895 38.2695 32.0236 38.1652 32.0236 38.1207ZM18.7512 38.3188C18.7512 38.2736 18.5594 38.1433 18.3251 38.0292C18.0907 37.9152 17.891 37.8223 17.8814 37.8228C17.8717 37.8233 17.5746 38.2617 17.2213 38.7969L16.5788 39.77L16.8943 39.9217L17.21 40.0734L17.329 39.9046C17.4996 39.663 17.6157 39.6921 17.556 39.9614C17.5105 40.167 17.5341 40.201 17.8215 40.3466C18.0598 40.4672 18.1452 40.4823 18.1708 40.4081C18.2697 40.1225 18.7512 38.389 18.7512 38.3188ZM30.2994 40.7148L29.9462 39.6129C29.7519 39.0068 29.5755 38.5137 29.5543 38.517C29.5002 38.5255 29.0571 38.6817 29.0326 38.7009C29.0216 38.7096 29.0653 38.8653 29.1299 39.0469C29.1945 39.2285 29.2354 39.3889 29.2208 39.4034C29.2062 39.4178 29.0825 39.2916 28.9459 39.123C28.7344 38.8618 28.6666 38.8235 28.4893 38.8649C28.3748 38.8916 28.2519 38.9398 28.2161 38.9719C28.1804 39.0041 28.3002 39.5026 28.4822 40.0798L28.8133 41.1292L29.0776 41.0865C29.223 41.0632 29.3589 41.0272 29.3796 41.0067C29.4004 40.986 29.362 40.8038 29.2944 40.6014L29.1714 40.2336L29.3588 40.4437C29.4619 40.5593 29.5772 40.7087 29.615 40.7759C29.6742 40.8807 29.7272 40.885 29.9916 40.8063L30.2994 40.7148ZM20.4939 39.0278C20.5231 38.9356 20.4806 38.8732 20.3575 38.8275C20.1519 38.7511 20.0358 38.6952 19.9493 38.725C19.8156 38.771 19.7523 39.0214 19.5377 39.7166C19.359 40.2957 19.2131 40.7926 19.2135 40.8207C19.2142 40.8782 20.2118 41.2216 20.2546 41.1792C20.2696 41.1643 20.3064 41.0552 20.3363 40.937C20.3816 40.7581 20.3632 40.7147 20.2269 40.6793C20.1368 40.656 20.063 40.5953 20.063 40.5444C20.063 40.4692 20.2876 39.6789 20.4939 39.0278ZM17.7405 39.3531C17.6411 39.3531 17.6533 39.2915 17.8018 39.0419C17.8739 38.921 17.9435 38.8325 17.9565 38.8455C18.0041 38.8926 17.8081 39.3531 17.7405 39.3531ZM22.0933 41.4063C22.1681 41.1 22.3946 39.3442 22.3634 39.3132C22.347 39.2969 22.1958 39.2617 22.0275 39.235L21.7214 39.1865L21.5467 40.3148C21.4507 40.9354 21.3814 41.4512 21.3927 41.4612C21.4041 41.4713 21.5566 41.5029 21.7317 41.5316C22.0211 41.579 22.0539 41.5676 22.0933 41.4063ZM27.4453 40.2519C27.3533 39.7109 27.286 39.5137 27.158 39.4109C26.9123 39.2136 26.3154 39.231 26.0432 39.4435C25.8318 39.6085 25.8299 39.618 25.8727 40.2745C25.9206 41.0079 26.0645 41.4412 26.3018 41.5673C26.7028 41.7802 27.4193 41.536 27.5161 41.1535C27.5432 41.0463 27.5113 40.6405 27.4453 40.2519ZM24.9244 40.0005C24.9244 39.8932 24.8391 39.721 24.735 39.6177C24.58 39.4638 24.4688 39.4297 24.1233 39.4297C23.759 39.4297 23.679 39.4574 23.5411 39.6314C23.2461 40.0035 23.3613 40.402 23.8713 40.7723C24.201 41.0118 24.3452 41.3438 24.1196 41.3438C24.0364 41.3438 23.9984 41.2717 23.9984 41.1141C23.9984 40.8972 23.9813 40.8844 23.6898 40.8844C23.3832 40.8844 23.3811 40.8864 23.3811 41.1788C23.3811 41.5656 23.5783 41.7384 24.0736 41.7856C24.541 41.8302 24.8104 41.6844 24.8852 41.3466C24.9692 40.9669 24.8106 40.6416 24.423 40.3988C24.0898 40.1902 23.976 39.9592 24.1528 39.8508C24.1965 39.8239 24.2299 39.8883 24.2299 39.9994C24.2299 40.1805 24.2561 40.1953 24.5772 40.1953C24.8978 40.1953 24.9244 40.1804 24.9244 40.0005ZM26.7929 41.1906C26.7095 41.1906 26.5449 40.3828 26.5449 39.974C26.5449 39.5763 26.6765 39.7708 26.7329 40.2518C26.7613 40.4944 26.8039 40.8049 26.8276 40.9418C26.8527 41.0864 26.8381 41.1906 26.7929 41.1906ZM19.6 44.1731C19.6 43.9925 19.2751 43.6406 19.1082 43.6406C19.0461 43.6406 18.949 43.627 18.8925 43.6103C18.7 43.5536 18.2537 43.7045 18.1164 43.8727C17.9575 44.0673 17.9366 44.4736 18.076 44.657C18.1291 44.7268 18.3745 44.8718 18.6216 44.9792C19.1196 45.196 19.2028 45.419 18.8027 45.4647C18.636 45.4836 18.5756 45.4524 18.5435 45.3307C18.5103 45.2044 18.4404 45.1719 18.202 45.1719C17.9578 45.1719 17.9024 45.1992 17.9024 45.3191C17.9024 45.4001 17.9923 45.5724 18.1021 45.7019C18.2859 45.9186 18.3405 45.9375 18.7832 45.9375C19.1915 45.9375 19.2908 45.9096 19.4386 45.7536C19.5343 45.6525 19.6305 45.4372 19.6522 45.2751C19.7056 44.8782 19.4799 44.5962 18.9971 44.4566C18.5884 44.3385 18.4459 44.1 18.7841 44.1C18.9091 44.1 18.9827 44.1425 18.9827 44.2148C18.9827 44.2978 19.0684 44.3297 19.2913 44.3297C19.5508 44.3297 19.6 44.3047 19.6 44.1731ZM21.7352 44.7582C21.9667 44.4911 21.9644 44.1655 21.7288 43.8937C21.5543 43.6924 21.4984 43.6772 20.8414 43.6522L20.1402 43.6254V44.7815V45.9375H20.4488H20.7575V45.4805C20.7575 44.9048 20.8994 44.92 21.1456 45.5221C21.315 45.9361 21.3167 45.9375 21.6538 45.9375C22.0571 45.9375 22.0675 45.8867 21.7724 45.3558L21.5555 44.9655L21.7352 44.7582ZM24.3071 45.8923C24.3071 45.8673 24.1481 45.3505 23.9537 44.7438L23.6003 43.6406H23.3005C23.0934 43.6406 22.9788 43.6821 22.9298 43.7746C22.8716 43.8846 22.4844 45.0448 22.2655 45.7653C22.2173 45.9242 22.2375 45.9375 22.5271 45.9375C22.7513 45.9375 22.8409 45.9055 22.8409 45.8253C22.8409 45.5449 23.5653 45.5158 23.6538 45.7927C23.6889 45.9023 23.7737 45.9375 24.0036 45.9375C24.1705 45.9375 24.3071 45.9171 24.3071 45.8923ZM26.4677 44.2115C26.4677 44.0101 26.3661 43.8618 26.1535 43.7526C25.8608 43.6025 25.3211 43.6143 25.0571 43.7767C24.8053 43.9314 24.5384 44.4358 24.539 44.7559C24.5409 45.7418 25.2611 46.2369 26.1449 45.8597L26.5449 45.689V45.1625V44.6359H26.0819H25.6189V44.9039C25.6189 45.1387 25.6428 45.1719 25.8118 45.1719C26.1155 45.1719 26.05 45.3862 25.7279 45.4461C25.5328 45.4825 25.4183 45.465 25.3396 45.3868C25.038 45.0877 25.1972 44.1766 25.551 44.1766C25.6453 44.1766 25.7803 44.2285 25.851 44.292C26.0027 44.4282 26.4677 44.3675 26.4677 44.2115ZM28.7153 44.1766L28.6911 43.9277L28.6669 43.6789L27.8913 43.6572C27.4648 43.6454 27.0915 43.6597 27.0618 43.6891C27.0322 43.7186 27.0079 44.2365 27.0079 44.8401V45.9375H27.8567H28.7055V45.6696V45.4016H28.2039C27.7231 45.4016 27.7024 45.3939 27.7024 45.214C27.7024 45.0394 27.7329 45.0248 28.1461 45.0034C28.5661 44.9817 28.5911 44.9692 28.6142 44.7699C28.6385 44.5607 28.6356 44.5594 28.1705 44.5594C27.7226 44.5594 27.7024 44.5511 27.7024 44.368C27.7024 44.1832 27.72 44.1766 28.2088 44.1766H28.7153ZM30.3427 44.6624C30.2699 44.5717 30.1148 44.3219 29.998 44.1074C29.7973 43.7383 29.7692 43.7172 29.4772 43.7172H29.1685V44.8273V45.9375H29.4772H29.7858L29.7872 45.3824L29.7886 44.8273L30.1371 45.4207C30.4657 45.9802 30.5008 46.014 30.753 46.014H31.0205V44.8656V43.7172H30.7504H30.4803L30.4778 44.2723C30.4753 44.8101 30.4711 44.8222 30.3427 44.6624ZM21.0083 44.545C20.7829 44.5667 20.7575 44.5487 20.7575 44.368C20.7575 44.1872 20.7829 44.1693 21.0083 44.1909C21.1996 44.2092 21.259 44.2512 21.259 44.368C21.259 44.4847 21.1996 44.5267 21.0083 44.545ZM23.0977 45.0687C23.0627 45.0296 23.0921 44.933 23.1642 44.6943C23.2606 44.3752 23.2907 44.3985 23.4097 44.8848C23.4556 45.0723 23.4399 45.0953 23.2668 45.0953C23.1757 45.0953 23.1216 45.0955 23.0977 45.0687ZM24.7508 48.9792C24.5917 48.9957 24.3312 48.9957 24.172 48.9792C24.0129 48.9627 24.1431 48.9492 24.4614 48.9492C24.7797 48.9492 24.91 48.9627 24.7508 48.9792Z" fill="black"/>
</svg>
