<svg width="30" height="29" viewBox="0 0 30 29" xmlns="http://www.w3.org/2000/svg">
<path fill-rule="evenodd" clip-rule="evenodd" d="M7.21958 0.5H7.5C7.88804 0.5 8.48189 0.590853 8.94172 0.921198C9.18198 1.0938 9.39499 1.33952 9.50365 1.67388C9.61191 2.00705 9.60105 2.38035 9.47818 2.78247C9.08317 4.07522 7.72954 7.22912 7.03724 8.79458L8.94584 14.2601L11.3789 17.4522C12.7043 18.8101 13.7106 20.7 13.4981 23.1344L13.4962 23.1558L13.4925 23.1769L13 25.9979V28V28.5H12.5H6.5H6V28V23.2499L0.591847 15.607L0.47525 15.4422L0.505735 15.2427L1.25763 10.3212L1.03695 9.77956L0.834496 9.28261L1.34448 9.11571C1.3771 9.10504 1.41115 9.09466 1.44654 9.08465L1.50574 8.69721L1.51727 8.62173L1.55081 8.55312L4.55081 2.41676L4.71402 2.08292L5.08074 2.14293C5.55522 2.22057 6.25094 2.45558 6.72574 2.95755C6.97212 3.21801 7.16271 3.55556 7.21624 3.97256C7.26883 4.38222 7.18363 4.82498 6.95689 5.29467L5.52901 8.79947L6.42815 11.8586C7.10701 13.1797 7.39419 14.2863 7.47481 14.9513C7.81521 15.0745 8.18992 15.2342 8.58096 15.431L8.10234 14.8031L8.05416 14.7399L8.02795 14.6648L6.02795 8.93757L5.96267 8.75062L6.04309 8.56966C6.7144 7.05923 8.13274 3.76361 8.52182 2.49025C8.59895 2.23783 8.58392 2.07931 8.5526 1.98293C8.52167 1.88775 8.45968 1.8062 8.35827 1.73335C8.2023 1.6213 7.98173 1.55199 7.76798 1.52035L6.92664 2.89709L6.07336 2.37564L7.07336 0.739275L7.21958 0.5ZM4.74305 9.67162L4.52029 8.91372L4.47099 8.74599L4.53695 8.58408L6.03695 4.90226L6.04336 4.88655L6.05081 4.8713C6.2183 4.5287 6.24724 4.27795 6.22438 4.09989C6.20187 3.92455 6.12372 3.77631 5.99926 3.64473C5.8152 3.45014 5.54198 3.30695 5.27241 3.21756L2.48273 8.92373L2.47809 8.95412C3.16934 8.95866 3.99006 9.1365 4.74305 9.67162ZM2.28783 10.1995L2.32538 9.95365C3.14102 9.91991 4.29 10.2061 5.07336 11.488C5.23905 11.7591 5.38669 12.0223 5.51805 12.2756C6.3103 13.8035 6.5 14.9523 6.5 15.3182V15.685L6.84991 15.7951C7.88096 16.1196 9.42584 16.8918 10.6434 18.1305C11.8237 19.3311 12.6785 20.9476 12.5037 23.0264L12.0075 25.8685L12 25.9112V25.9545V27.5H7V23.0909V22.9319L6.90815 22.8021L1.52475 15.1942L1.99334 12.127L4.03695 17.1432L4.96305 16.7659L2.28783 10.1995ZM21.0583 0.921198C21.5181 0.590853 22.112 0.5 22.5 0.5H22.7804L22.9266 0.739275L23.9266 2.37564L23.0734 2.89709L22.232 1.52035C22.0183 1.55199 21.7977 1.6213 21.6417 1.73335C21.5403 1.8062 21.4783 1.88775 21.4474 1.98293C21.4161 2.07931 21.401 2.23783 21.4782 2.49025C21.8673 3.76361 23.2856 7.05923 23.9569 8.56966L24.0373 8.75062L23.972 8.93757L21.972 14.6648L21.9458 14.7399L21.8977 14.8031L21.419 15.431C21.8101 15.2342 22.1848 15.0745 22.5252 14.9513C22.6058 14.2863 22.893 13.1797 23.5718 11.8586L24.471 8.79947L23.0431 5.29466C22.8164 4.82497 22.7312 4.38222 22.7838 3.97256C22.8373 3.55556 23.0279 3.21801 23.2743 2.95755C23.7491 2.45558 24.4448 2.22057 24.9193 2.14293L25.286 2.08292L25.4492 2.41676L28.4492 8.55312L28.4827 8.62173L28.4943 8.69721L28.5535 9.08465C28.5889 9.09466 28.6229 9.10504 28.6555 9.11571L29.1655 9.28261L28.963 9.77956L28.7424 10.3212L29.4943 15.2427L29.5248 15.4422L29.4082 15.607L24 23.2499V28V28.5H23.5H17.5H17V28V25.9979L16.5075 23.1769L16.5038 23.1558L16.5019 23.1344C16.2894 20.7 17.2957 18.8101 18.6211 17.4522L21.0542 14.2601L22.9628 8.79458C22.2705 7.22912 20.9168 4.07522 20.5218 2.78247C20.399 2.38035 20.3881 2.00705 20.4964 1.67388C20.605 1.33952 20.818 1.0938 21.0583 0.921198ZM27.7122 10.1995L25.037 16.7659L25.963 17.1432L28.0067 12.127L28.4753 15.1941L23.0918 22.8021L23 22.9319V23.0909V27.5H18V25.9545V25.9112L17.9925 25.8685L17.4963 23.0264C17.3215 20.9476 18.1763 19.3312 19.3566 18.1305C20.5742 16.8918 22.119 16.1196 23.1501 15.7951L23.5 15.685V15.3182C23.5 14.9523 23.6897 13.8035 24.482 12.2756C24.6133 12.0223 24.761 11.7591 24.9266 11.488C25.71 10.2061 26.859 9.91991 27.6746 9.95365L27.7122 10.1995ZM27.5173 8.92373L27.5219 8.95412C26.8307 8.95866 26.0099 9.1365 25.2569 9.67162L25.4797 8.91372L25.529 8.74599L25.463 8.58408L23.963 4.90226L23.9566 4.88655L23.9492 4.8713C23.7817 4.5287 23.7528 4.27795 23.7756 4.09989C23.7981 3.92455 23.8763 3.77631 24.0007 3.64473C24.1848 3.45014 24.458 3.30695 24.7276 3.21756L27.5173 8.92373ZM21 10C21 13.3137 18.3137 16 15 16C11.6863 16 9 13.3137 9 10C9 6.68629 11.6863 4 15 4C18.3137 4 21 6.68629 21 10ZM14.9841 12.7593L19.6508 8.75926L18.3492 7.24074L14.3686 10.6527L12.6897 9.05364L11.3103 10.5019L13.6437 12.7241L14.298 13.3473L14.9841 12.7593Z"/>
</svg>
