<svg width="40" height="48" viewBox="0 0 40 48" xmlns="http://www.w3.org/2000/svg">
<path fill-rule="evenodd" clip-rule="evenodd" d="M30.5882 11.7647C30.5882 18.2622 25.321 23.5294 18.8235 23.5294C12.3261 23.5294 7.05882 18.2622 7.05882 11.7647C7.05882 5.26724 12.3261 0 18.8235 0C25.321 0 30.5882 5.26724 30.5882 11.7647ZM18.8235 27.9286C23.5282 27.9286 27.5879 25.167 29.47 21.1765C29.6483 21.2838 29.825 21.3941 30 21.5072V35H37V29.0888C38.9017 32.5094 40 36.5462 40 40.8697C40 43.0169 39.7291 45.0934 39.2235 47.0588H0.776534C0.270881 45.0934 0 43.0169 0 40.8697C0 33.1582 3.49393 26.3588 8.80903 22.341C10.8818 25.6942 14.5917 27.9286 18.8235 27.9286Z" />
</svg>
