<svg width="40" height="48" viewBox="0 0 40 48" xmlns="http://www.w3.org/2000/svg">
<path fill-rule="evenodd" clip-rule="evenodd" d="M30.5882 12.7059C30.5882 19.2033 25.321 24.4706 18.8235 24.4706C12.3261 24.4706 7.05882 19.2033 7.05882 12.7059C7.05882 6.2084 12.3261 0.941162 18.8235 0.941162C25.321 0.941162 30.5882 6.2084 30.5882 12.7059ZM18.8235 28.8697C23.5282 28.8697 27.5879 26.1082 29.47 22.1176C35.7391 25.8912 40 33.2949 40 41.8109C40 43.9581 39.7291 46.0346 39.2235 48H0.776534C0.270881 46.0346 0 43.9581 0 41.8109C0 34.0994 3.49393 27.3 8.80903 23.2821C10.8818 26.6354 14.5917 28.8697 18.8235 28.8697ZM10.2676 33.749C10.897 31.8211 12.5501 30.4084 14.6033 30.0437C15.0477 29.9648 16.1882 29.9977 16.6403 30.1024C17.3542 30.2678 17.9344 30.515 18.5134 30.9004C18.9866 31.2155 19.564 31.7558 19.8385 32.1404C19.9505 32.2974 20.0513 32.4259 20.0625 32.4259C20.0737 32.4259 20.1746 32.2974 20.2866 32.1404C20.7107 31.5461 21.6011 30.8236 22.3045 30.5032C23.1332 30.1257 23.6855 30.0088 24.6459 30.0077C25.4313 30.0068 25.7393 30.0509 26.3593 30.2533C27.9847 30.7839 29.3276 32.1259 29.8575 33.7493C30.1096 34.5215 30.1906 35.4848 30.0668 36.2401C29.631 38.8999 26.9192 41.9908 22.3342 45.0538C21.6584 45.5052 20.1236 46.4457 20.0627 46.4457C20.0003 46.4457 18.642 45.6102 17.8829 45.1049C13.2518 42.0221 10.5076 38.9072 10.0594 36.2244C9.93286 35.467 10.0113 34.5341 10.2676 33.749Z" />
</svg>
