<svg width="41" height="36" viewBox="0 0 41 36" xmlns="http://www.w3.org/2000/svg">
<path fill-rule="evenodd" clip-rule="evenodd" d="M34.7873 3.16124C33.0606 4.90064 30.837 7.13222 29.846 8.12032L28.0442 9.91686L28.0438 6.58676L28.0434 3.25666L27.8749 3.06277L27.7063 2.86888L17.3455 2.85071C9.47966 2.83682 6.93633 2.85223 6.784 2.91442C6.37183 3.08267 6.39097 2.5918 6.39097 13.0097V22.5676L6.06074 22.6551C4.58348 23.0459 3.62819 24.6095 3.86301 26.2521C3.96478 26.964 4.18738 27.4434 4.68685 28.0258C5.2985 28.7391 5.53297 29.1173 5.63034 29.5477C5.79329 30.2681 5.53989 31.0984 4.91022 31.9073L4.62783 32.27H2.48326H0.338687L0.169308 32.4484C0.00118739 32.6254 0 32.6371 0 34.0781V35.5296L0.19599 35.6964L0.39198 35.8631H7.09649H13.8011L13.9725 35.6935C14.1435 35.5244 14.144 35.5198 14.144 34.099V32.674L13.9398 32.472L13.7356 32.27H11.7106H9.68564L9.39305 31.9073C8.89602 31.2911 8.67782 30.7914 8.64094 30.1844C8.60832 29.648 8.75039 29.0402 8.94589 28.8797C8.99493 28.8395 10.9147 28.821 13.9276 28.8319L18.8294 28.8497L18.6519 29.0877C18.3744 29.4598 18.4153 29.6241 18.9643 30.3413C19.3824 30.8877 19.4489 31.0124 19.4191 31.1938C19.1783 32.6589 19.2087 32.7737 19.9169 33.0732C20.9625 33.5152 20.9186 33.4767 21.2333 34.2295C21.3898 34.6041 21.5797 34.957 21.6551 35.0136C21.7628 35.0943 21.9196 35.1076 22.3859 35.0754C22.7124 35.0529 23.0896 35.0162 23.224 34.9939C23.4445 34.9572 23.5279 34.9977 24.0734 35.4053C24.9677 36.0737 24.9599 36.0739 25.8936 35.3619L26.4328 34.9507L27.0048 35.0269C27.8653 35.1415 28.1393 35.1273 28.292 34.9604C28.3637 34.882 28.5514 34.5187 28.7092 34.1532L28.9959 33.4886L29.6841 33.2048C30.1305 33.0208 30.4213 32.8561 30.5117 32.7364C30.6452 32.5595 30.6473 32.5179 30.561 31.7526L30.471 30.9535L30.9336 30.3577C31.5536 29.5591 31.5536 29.4649 30.9335 28.6596L30.471 28.0589L30.561 27.2597C30.6473 26.4943 30.6452 26.4527 30.5117 26.2759C30.4211 26.1558 30.1297 25.9912 29.6793 25.8055L28.9864 25.5198L28.6969 24.8381C28.5326 24.4511 28.3289 24.0896 28.2255 24.0016L28.0434 23.8467V21.9564V20.0661L33.8867 14.3005C39.9948 8.27365 40.1972 8.05592 40.5486 7.1327C41.0858 5.72145 40.9772 4.20634 40.2259 2.63284C39.8856 1.92017 39.5062 1.29663 39.0241 0.657751C38.6008 0.0968144 38.4786 0.00152849 38.1809 8.33678e-06C37.9375 -0.00123542 37.7938 0.132607 34.7873 3.16124ZM38.5187 2.07426C39.8947 4.19079 40.0087 6.16098 38.8403 7.63622C38.7198 7.78844 36.0677 10.4304 32.9468 13.5073L27.2725 19.1014L26.6448 18.4833L26.017 17.8651L32.3734 11.5753C38.2446 5.76581 38.73 5.26803 38.73 5.05652C38.73 4.74192 38.4082 4.42358 38.0902 4.42358C37.8764 4.42358 37.3732 4.90381 31.5007 10.712L25.1427 17.0004L24.5524 16.4133L23.962 15.8262L24.9749 14.8063C25.5321 14.2453 28.7197 11.0266 32.0584 7.6537C35.3973 4.28083 38.151 1.54455 38.1778 1.57309C38.2047 1.6017 38.3581 1.82723 38.5187 2.07426ZM26.856 7.60741V11.1368L24.6559 13.3503C21.935 16.0876 22.0628 15.731 23.3441 17.012L24.2324 17.9002L23.2468 18.8836C22.7047 19.4245 22.2243 19.9387 22.1792 20.0265C21.994 20.3867 22.3247 20.8689 22.7569 20.8689C22.9374 20.8689 23.1305 20.7107 24.0406 19.8171L25.1118 18.7653L25.9839 19.626L26.856 20.4868V22.2271V23.9673L26.6462 24.0129C26.4623 24.0528 26.3634 24.0021 25.8421 23.5993C25.0098 22.9564 24.9368 22.9528 24.1794 23.5179C23.8462 23.7665 23.5445 23.9877 23.5091 24.0093C23.4737 24.031 23.1122 24.0025 22.7058 23.9461C21.6485 23.7992 21.6124 23.8207 21.1927 24.842C21.0679 25.146 20.9316 25.4308 20.89 25.4747C20.8484 25.5187 20.5314 25.6678 20.1857 25.8061C19.8372 25.9455 19.4839 26.1383 19.3931 26.2389C19.2435 26.4043 19.2332 26.4601 19.2761 26.8749C19.302 27.1249 19.3399 27.3995 19.3604 27.485L19.3976 27.6405H14.6753C12.0782 27.6405 9.95315 27.6287 9.95315 27.6143C9.95315 27.5998 10.0389 27.4055 10.1436 27.1824C10.3089 26.8303 10.3374 26.6705 10.3603 25.9722C10.3801 25.3629 10.3581 25.0696 10.2691 24.763C9.96405 23.7114 9.16933 22.9254 8.10682 22.6243L7.64821 22.4944V13.2862V4.07809H17.2521H26.856V7.60741ZM10.1976 8.37653C9.8421 8.57823 9.77728 8.99261 10.0518 9.30839L10.2205 9.50228H17.1689C24.0191 9.50228 24.1195 9.50034 24.2724 9.36408C24.5108 9.15154 24.565 8.94348 24.4518 8.67538C24.3977 8.54721 24.29 8.4088 24.2124 8.36769C24.0063 8.25865 10.3903 8.26715 10.1976 8.37653ZM10.2575 11.6778C10.0455 11.7632 9.88296 12.0194 9.88554 12.2643C9.88805 12.5004 9.98703 12.6554 10.2105 12.7732C10.4198 12.8834 24.0044 12.889 24.2124 12.7789C24.29 12.7378 24.3977 12.5994 24.4518 12.4712C24.565 12.2031 24.5108 11.9951 24.2724 11.7825C24.1198 11.6465 24.0094 11.6441 17.2623 11.6309C13.485 11.6235 10.34 11.6445 10.2575 11.6778ZM10.0548 15.1652C9.93639 15.2822 9.88331 15.4116 9.88331 15.5829C9.88331 15.7542 9.93639 15.8835 10.0548 16.0006L10.2262 16.1702H15.506H20.7857L20.9571 16.0006C21.0755 15.8835 21.1286 15.7542 21.1286 15.5829C21.1286 15.4116 21.0755 15.2822 20.9571 15.1652L20.7857 14.9956H15.506H10.2262L10.0548 15.1652ZM10.2575 18.3801C10.0454 18.4657 9.88296 18.722 9.88554 18.9668C9.88805 19.2029 9.98703 19.3579 10.2105 19.4757C10.4287 19.5906 20.5833 19.5906 20.8015 19.4757C21.1679 19.2825 21.2393 18.8619 20.9601 18.5407L20.7915 18.3468L15.5993 18.3333C12.7437 18.3257 10.3398 18.3469 10.2575 18.3801ZM10.0548 21.8677C9.93639 21.9847 9.88331 22.1141 9.88331 22.2854C9.88331 22.4567 9.93639 22.586 10.0548 22.7031L10.2262 22.8727H17.2018H24.1775L24.3364 22.7054C24.5665 22.463 24.554 22.0638 24.3097 21.8559L24.1242 21.6981H17.1752H10.2262L10.0548 21.8677ZM7.96741 23.9042C8.48365 24.1301 8.67475 24.3035 8.9007 24.7507C9.09152 25.1286 9.11499 25.2421 9.11499 25.7881C9.11499 26.5394 9.03334 26.7499 8.48965 27.4002C7.02588 29.1507 7.00136 30.8828 8.41541 32.6432C9.0332 33.4121 9.07008 33.4235 11.1506 33.4819L12.8718 33.5303L12.92 34.0377C12.9464 34.3168 12.9478 34.5774 12.9232 34.6168C12.8929 34.6654 10.9989 34.6884 7.05039 34.6884H1.22232V34.0583V33.428L2.0975 33.478C2.57888 33.5055 3.42849 33.5054 3.98559 33.4779C5.1762 33.419 5.30108 33.3629 5.90917 32.6155C6.55323 31.8238 6.89079 30.9187 6.89086 29.9829C6.89093 29.0634 6.61874 28.4115 5.86433 27.5251C5.24933 26.8024 5.11878 26.539 5.07932 25.9421C5.00675 24.8425 5.47752 24.1286 6.49574 23.7942C6.86118 23.6742 7.56146 23.7266 7.96741 23.9042ZM25.5181 24.9188L26.0528 25.3065L26.6465 25.2613C26.973 25.2364 27.2992 25.2097 27.3712 25.2018C27.4732 25.1907 27.5555 25.3103 27.7418 25.7403C27.8734 26.0443 28.0275 26.3397 28.0842 26.3967C28.1408 26.4537 28.4455 26.6117 28.7614 26.7477C29.214 26.9426 29.3325 27.0231 29.3211 27.1278C29.3132 27.2007 29.2866 27.5247 29.2619 27.8478L29.2172 28.4351L29.6081 28.9482C29.8232 29.2304 29.9991 29.4814 29.9991 29.5061C29.9991 29.5308 29.8232 29.7818 29.6081 30.064L29.2172 30.5771L29.2619 31.1645C29.2866 31.4875 29.3132 31.8115 29.3211 31.8845C29.3325 31.9891 29.214 32.0696 28.7614 32.2645C28.4455 32.4006 28.1408 32.5585 28.0842 32.6155C28.0275 32.6725 27.8738 32.9679 27.7425 33.2719C27.4743 33.8929 27.5742 33.8497 26.6116 33.7606L26.0528 33.7089L25.4961 34.1234L24.9395 34.538L24.5183 34.2086C23.8272 33.6681 23.7744 33.6573 22.6825 33.83L22.4115 33.8729L22.1471 33.2417C21.8593 32.5549 21.793 32.4978 20.9016 32.1671C20.7191 32.0994 20.5698 32.0065 20.5698 31.9607C20.5698 31.9149 20.6048 31.6204 20.6475 31.3063C20.7385 30.6381 20.7254 30.5972 20.2173 29.9577L19.861 29.509L20.1979 29.0856C20.7811 28.3529 20.7429 28.4667 20.6548 27.7219C20.6113 27.3547 20.5982 27.032 20.6257 27.0048C20.653 26.9777 20.9094 26.8601 21.1954 26.7434C21.4813 26.6268 21.7663 26.4856 21.8287 26.4298C21.8911 26.3739 22.0498 26.0622 22.1815 25.7371C22.3877 25.2276 22.4401 25.1513 22.5605 25.1841C22.6373 25.205 22.9673 25.2417 23.2939 25.2655L23.8876 25.3088L24.3765 24.9233C24.6454 24.7113 24.892 24.5364 24.9244 24.5345C24.9568 24.5326 25.2239 24.7055 25.5181 24.9188ZM24.0075 25.5986C22.9412 25.854 21.8964 26.6583 21.3918 27.6123C21.0503 28.2579 20.9191 28.7836 20.9191 29.5061C20.9191 30.609 21.3172 31.5598 22.1058 32.3398C22.952 33.177 23.9722 33.5591 25.1797 33.4911C25.9597 33.4472 26.5376 33.2697 27.1161 32.8965C28.8831 31.7563 29.4981 29.6082 28.5929 27.7376C28.316 27.1654 27.4375 26.2553 26.8787 25.9617C26.0875 25.546 24.8698 25.392 24.0075 25.5986ZM26.1658 27.0002C26.7253 27.2729 27.2785 27.8292 27.5408 28.3831C27.708 28.7359 27.7291 28.8624 27.7291 29.5076C27.7291 30.1855 27.7141 30.2648 27.506 30.683C27.034 31.6314 26.1666 32.2114 25.1484 32.2597C24.4215 32.294 23.9558 32.1839 23.444 31.8568C22.5965 31.3148 22.1552 30.51 22.1552 29.5061C22.1552 28.2865 22.8547 27.2961 24.0153 26.8727C24.2951 26.7706 24.5264 26.745 25.0419 26.7588C25.6307 26.7747 25.7602 26.8025 26.1658 27.0002Z" />
</svg>
