<svg width="20" height="20" viewBox="0 0 20 20" xmlns="http://www.w3.org/2000/svg">
<path fill-rule="evenodd" clip-rule="evenodd" d="M8 0H12V1.22302C13.2199 1.49982 14.3456 2.02441 15.3215 2.74109L16.1467 2L18.8195 4.97589L17.9425 5.76349C18.3145 6.45941 18.5977 7.20996 18.777 8H20V12H18.777C18.5456 13.0197 18.1411 13.9736 17.596 14.8292L18.8195 15.928L16.1467 18.9039L14.7476 17.6474C13.9131 18.1666 12.9874 18.5529 12 18.777V20H8V18.777C6.97063 18.5434 6.00827 18.1334 5.1464 17.5804L3.67278 18.9039L1 15.928L2.3389 14.7255C1.82663 13.8967 1.44508 12.9786 1.22301 12H0V8H1.22301C1.44475 7.02283 1.82549 6.10602 2.33659 5.27826L1.34129 4.38434L4.01408 1.40845L5.14264 2.42206C6.00546 1.86786 6.96913 1.45697 8 1.22302V0ZM10 16C13.3137 16 16 13.3137 16 10C16 6.68628 13.3137 4 10 4C6.68629 4 4 6.68628 4 10C4 13.3137 6.68629 16 10 16Z" />
</svg>
