<svg width="55" height="37" viewBox="0 0 55 37" xmlns="http://www.w3.org/2000/svg">
<path fill-rule="evenodd" clip-rule="evenodd" d="M11.129 13.5978C7.25906 13.5978 4.12185 10.5538 4.12185 6.79891C4.12185 3.04398 7.25906 0 11.129 0C14.999 0 18.1362 3.04398 18.1362 6.79891C18.1362 10.5538 14.999 13.5978 11.129 13.5978ZM16.0752 24.5207C16.0752 21.2141 17.5445 18.2507 19.8658 16.2477C18.8528 14.8063 17.5003 13.621 15.9244 12.8079C14.524 13.8073 12.7945 14.3977 10.9229 14.3977C9.05129 14.3977 7.32178 13.8073 5.92145 12.8079C2.40459 14.6224 0 18.2909 0 22.521V23.8715C0 24.4896 0.051342 25.0958 0.149996 25.6859C0.0516262 26.1738 4.14614e-06 26.6787 4.14614e-06 27.1957C4.14614e-06 31.3923 3.4021 34.7944 7.59879 34.7944H14.247C15.5072 34.7944 16.6957 34.4877 17.742 33.9448C16.6991 32.6438 16.0752 30.9924 16.0752 29.1953C16.0752 28.6784 16.1269 28.1735 16.2252 27.6855C16.1266 27.0954 16.0752 26.4893 16.0752 25.8712V24.5207ZM50.392 6.79891C50.392 10.5538 47.348 13.5978 43.593 13.5978C39.8381 13.5978 36.7941 10.5538 36.7941 6.79891C36.7941 3.04398 39.8381 0 43.593 0C47.348 0 50.392 3.04398 50.392 6.79891ZM35.0899 16.1466C37.3572 18.0904 38.7938 20.9755 38.7938 24.1961V26.1958C38.7938 26.7486 38.7515 27.2915 38.6699 27.8214C38.7513 28.267 38.7938 28.7262 38.7938 29.1953C38.7938 30.9631 38.1902 32.5898 37.1778 33.8807C38.253 34.4635 39.4846 34.7944 40.7935 34.7944H46.7925C50.9892 34.7944 54.3913 31.3923 54.3913 27.1957C54.3913 26.7265 54.3488 26.2673 54.2674 25.8217C54.349 25.2918 54.3913 24.7489 54.3913 24.1961V22.1964C54.3913 18.1035 52.0712 14.5525 48.6745 12.7868C47.3107 13.7989 45.6218 14.3977 43.793 14.3977C41.9642 14.3977 40.2753 13.7989 38.9116 12.7868C37.3813 13.5822 36.0695 14.7401 35.0899 16.1466ZM27.1957 15.5975C30.9506 15.5975 33.9946 12.5535 33.9946 8.79859C33.9946 5.04365 30.9506 1.99967 27.1957 1.99967C23.4407 1.99967 20.3967 5.04365 20.3967 8.79859C20.3967 12.5535 23.4407 15.5975 27.1957 15.5975ZM16.7973 24.1961C16.7973 20.1032 19.1174 16.5522 22.5142 14.7865C23.8779 15.7986 25.5669 16.3974 27.3956 16.3974C29.2244 16.3974 30.9133 15.7986 32.2771 14.7864C35.6738 16.5522 37.9939 20.1032 37.9939 24.1961V26.1958C37.9939 26.7486 37.9516 27.2915 37.87 27.8214C37.9514 28.267 37.9939 28.7262 37.9939 29.1953C37.9939 33.392 34.5918 36.7941 30.3951 36.7941H27.4068L27.3956 36.7941L27.3845 36.7941H24.3961C20.1994 36.7941 16.7973 33.392 16.7973 29.1953C16.7973 28.7262 16.8398 28.267 16.9212 27.8214C16.8396 27.2915 16.7973 26.7486 16.7973 26.1958V24.1961Z" />
</svg>
