<svg width="17" height="19" viewBox="0 0 17 19" xmlns="http://www.w3.org/2000/svg">
<path fill-rule="evenodd" clip-rule="evenodd" d="M12.7532 7.47057C12.7551 7.51621 12.7567 7.56197 12.7581 7.60784C12.7625 7.75057 12.7647 7.8944 12.7647 8.03921C12.7647 8.18401 12.7625 8.32784 12.7581 8.47057H12.0588V7.76469H11.4132C11.451 7.65772 11.5055 7.55863 11.5736 7.47057H11.7523C11.7498 7.41222 11.7468 7.35412 11.7435 7.29628C11.9258 7.14782 12.1584 7.05881 12.4118 7.05881C12.524 7.05881 12.6322 7.07629 12.7337 7.10866C12.7418 7.22842 12.7483 7.34908 12.7532 7.47057ZM12.5535 5.64705H17V18.3529H0.764709V5.64705H5.21125C5.12587 6.11464 5.06482 6.60364 5.03096 7.10866C4.60363 7.24491 4.29412 7.64513 4.29412 8.11764C4.29412 8.70241 4.76817 9.17646 5.35295 9.17646C5.93772 9.17646 6.41177 8.70241 6.41177 8.11764C6.41177 7.99388 6.39054 7.87508 6.35152 7.76469H11.4132C11.3742 7.87508 11.3529 7.99388 11.3529 8.11764C11.3529 8.70241 11.827 9.17646 12.4118 9.17646C12.9965 9.17646 13.4706 8.70241 13.4706 8.11764C13.4706 7.64513 13.1611 7.24491 12.7337 7.10866C12.6999 6.60364 12.6388 6.11464 12.5535 5.64705ZM11.5354 5.64705C11.6387 6.16411 11.7102 6.71683 11.7435 7.29628C11.6804 7.34767 11.6234 7.40617 11.5736 7.47057H6.19111C6.14132 7.40617 6.08427 7.34766 6.02119 7.29628C6.05446 6.71683 6.12601 6.16411 6.2293 5.64705H11.5354ZM11.5354 5.64705H12.5535C12.0284 2.77152 10.5831 0.705872 8.88236 0.705872C7.18163 0.705872 5.73632 2.77152 5.21125 5.64705H6.2293C6.40877 4.74865 6.68407 3.9579 7.02091 3.32164C7.65665 2.12079 8.36321 1.70587 8.88236 1.70587C9.4015 1.70587 10.1081 2.12079 10.7438 3.32164C11.0806 3.9579 11.3559 4.74865 11.5354 5.64705ZM6.02119 7.29628C5.83894 7.14782 5.60634 7.05881 5.35295 7.05881C5.24068 7.05881 5.1325 7.07629 5.03096 7.10866C5.02293 7.22842 5.01643 7.34908 5.0115 7.47057C5.00965 7.51621 5.00802 7.56197 5.00661 7.60784C5.00223 7.75057 5 7.8944 5 8.03921C5 8.18401 5.00223 8.32784 5.00661 8.47057H5.70589V7.76469H6.35152C6.31371 7.65772 6.25919 7.55863 6.19111 7.47057H6.01238C6.01493 7.41222 6.01787 7.35411 6.02119 7.29628Z" />
</svg>
