<svg width="17" height="20" viewBox="0 0 17 20" xmlns="http://www.w3.org/2000/svg">
<path fill-rule="evenodd" clip-rule="evenodd" d="M8 10C10.7614 10 13 7.76142 13 5C13 2.23858 10.7614 0 8 0C5.23858 0 3 2.23858 3 5C3 7.76142 5.23858 10 8 10ZM12.5247 9C11.7248 10.696 9.99948 11.8696 8 11.8696C6.20149 11.8696 4.62477 10.92 3.74384 9.49487C1.48492 11.2025 0 14.0922 0 17.3696C0 18.2822 0.115128 19.1647 0.330032 20H16.67C16.8849 19.1647 17 18.2822 17 17.3696C17 13.7504 15.1891 10.6038 12.5247 9Z" />
</svg>
