<svg width="30" height="30" viewBox="0 0 30 30" xmlns="http://www.w3.org/2000/svg">
<path d="M15 5V4H14V5H15ZM15 16.2462H14V16.7386L14.3903 17.0388L15 16.2462ZM15.1951 16.3963L15.8049 15.6037V15.6037L15.1951 16.3963ZM21.6951 21.3963L21.0854 22.1889L21.8781 22.7986L22.4878 22.006L21.6951 21.3963ZM22.3049 20.6037L23.0975 21.2134L23.7072 20.4208L22.9146 19.8111L22.3049 20.6037ZM16 15.7538H15V16.2462L15.3903 16.5464L16 15.7538ZM16 5H17V4H16V5ZM28 15C28 22.1797 22.1797 28 15 28V30C23.2843 30 30 23.2843 30 15H28ZM15 2C22.1797 2 28 7.8203 28 15H30C30 6.71573 23.2843 0 15 0V2ZM2 15C2 7.8203 7.8203 2 15 2V0C6.71573 0 0 6.71573 0 15H2ZM15 28C7.8203 28 2 22.1797 2 15H0C0 23.2843 6.71573 30 15 30V28ZM16 16V5H14V16H16ZM16 16.2462V16H14V16.2462H16ZM15.8049 15.6037L15.6097 15.4536L14.3903 17.0388L14.5854 17.1889L15.8049 15.6037ZM22.3049 20.6037L15.8049 15.6037L14.5854 17.1889L21.0854 22.1889L22.3049 20.6037ZM21.5122 19.994L20.9025 20.7866L22.4878 22.006L23.0975 21.2134L21.5122 19.994ZM15.3903 16.5464L21.6951 21.3963L22.9146 19.8111L16.6097 14.9612L15.3903 16.5464ZM15 5V15.7538H17V5H15ZM15 6H16V4H15V6Z" />
</svg>
