<svg width="48" height="48" viewBox="0 0 48 48" xmlns="http://www.w3.org/2000/svg">
<path fill-rule="evenodd" clip-rule="evenodd" d="M0 8.70001V17.4509L0.616287 18.3405C1.49359 19.6066 1.84448 20.4326 2.07708 21.7786C2.16711 22.2999 2.19212 23.1033 2.19212 25.4753C2.19212 27.1422 2.2281 28.8337 2.2721 29.2342C2.5799 32.0379 3.20519 33.4454 5.97536 37.5697C6.96892 39.0489 7.968 40.6086 8.19568 41.0358C8.92044 42.3959 9.22212 43.5066 9.33838 45.2438C9.36529 45.6459 9.40966 45.9745 9.43695 45.9739C9.46424 45.9732 9.84484 45.9081 10.2827 45.8291C11.5845 45.5942 12.2519 45.567 13.2256 45.7087C14.3652 45.8746 15.6984 46.2188 17.6882 46.8608C19.5074 47.4478 20.9566 47.8214 21.7835 47.9167C22.1094 47.9543 17.7436 47.9846 11.1685 47.9902L0 48H48L36.7937 47.9905C29.8029 47.9846 25.7863 47.9557 26.1161 47.9138C27.0155 47.7995 28.1495 47.5113 30.3496 46.8379C31.5137 46.4816 32.7995 46.1096 33.2068 46.0113C34.7945 45.6284 36.0845 45.5965 37.6662 45.9007C38.0852 45.9813 38.4371 46.0381 38.4483 46.0271C38.4594 46.0161 38.5033 45.5357 38.5457 44.9597C38.647 43.5851 38.8763 42.751 39.4935 41.5125C40.0477 40.4004 40.5884 39.53 41.7681 37.8511C44.2489 34.3207 45.1157 32.572 45.5119 30.2988C45.6565 29.4694 45.6816 28.9474 45.7326 25.725C45.794 21.8394 45.8082 21.6868 46.2232 20.4761C46.4515 19.8101 46.7829 19.2223 47.4287 18.3375C47.6997 17.9662 47.9221 17.6274 47.9229 17.5846C47.9237 17.5417 47.4848 17.3286 46.9475 17.1109C45.5029 16.5257 44.8135 16.0421 43.6359 14.788C42.7221 13.8149 42.298 13.275 40.3465 10.601C37.5599 6.78284 36.4938 6.06366 30.0732 3.67078C28.136 2.94876 26.5791 2.24109 25.8031 1.72958C25.5476 1.56119 25.0428 1.11511 24.6814 0.738312L24.0243 0.0532532L23.3696 0.72757C23.0095 1.09839 22.4972 1.54681 22.231 1.72394C21.4795 2.22421 19.9253 2.92905 18.1039 3.5957C12.9264 5.49072 11.5685 6.20001 9.85746 7.90277C8.97108 8.78485 8.43681 9.4577 6.12283 12.6065C5.11332 13.9802 3.39039 15.756 2.5821 16.2559C2.15471 16.5202 0.190338 17.4 0.0276642 17.4C0.0124741 17.4 0 13.485 0 8.70001ZM22.1371 2.58524C22.8125 2.18661 23.6353 1.54846 23.8617 1.24786L24 1.06409L24.4913 1.53098C25.1205 2.12872 25.6789 2.50012 26.7499 3.03302C27.7159 3.51361 28.6865 3.9079 31.0967 4.79865C34.1643 5.93237 35.6962 6.71667 37.0175 7.83008C37.905 8.57782 38.6525 9.45361 40.1182 11.463C40.7097 12.274 41.4411 13.2731 41.7434 13.6833C42.4639 14.6611 43.9989 16.2311 44.7135 16.7213C45.2504 17.0896 46.5949 17.775 46.7804 17.775C46.9324 17.775 46.8736 17.9209 46.4988 18.4721C46.0262 19.1675 45.8004 19.6199 45.5553 20.3625C45.1274 21.6591 45.118 21.7583 45.0518 25.65C44.9904 29.2619 44.9536 29.7832 44.6776 30.939C44.3442 32.3351 43.4946 34.106 42.3573 35.775C42.006 36.2906 41.2161 37.4455 40.6021 38.3412C38.6985 41.1183 38.0011 42.7117 37.8904 44.5365C37.8495 45.2117 37.8423 45.2341 37.6808 45.194C37.2565 45.0883 36.4108 45.0029 35.7755 45.0015C34.3691 44.9985 33.0167 45.2831 30.0269 46.2112C29.0819 46.5046 27.9328 46.8389 27.4735 46.954C26.6017 47.1725 24.8863 47.377 24.6601 47.2893C24.5881 47.2614 23.8998 47.241 23.1307 47.244C21.8423 47.249 21.658 47.2323 20.7874 47.0311C20.2677 46.9111 19.3323 46.653 18.7087 46.4575C15.0428 45.3085 14.3432 45.1324 12.879 44.9905C12.0039 44.9056 11.2919 44.9417 10.2236 45.1249L9.97795 45.1671V44.6793C9.97795 43.5856 9.57203 42.2297 8.78294 40.6875C8.55073 40.2338 7.64175 38.7994 6.76286 37.5C5.88404 36.2006 4.97083 34.8094 4.73363 34.4084C4.21712 33.5352 3.61769 32.1746 3.35857 31.2873C2.95174 29.8945 2.92195 29.5419 2.90396 25.9125C2.88582 22.2535 2.82353 21.4847 2.45428 20.3623C2.23627 19.6997 1.79467 18.8179 1.36509 18.1875L1.05849 17.7375L1.26622 17.6476C2.80297 16.9826 3.38207 16.6321 4.22808 15.855C4.839 15.2938 5.81382 14.1668 6.58945 13.125C9.32016 9.45697 9.49538 9.23688 10.3852 8.35608C11.4026 7.34882 12.0171 6.91614 13.4551 6.1944C14.4253 5.70752 15.3601 5.33282 18.2551 4.27051C20.2375 3.54303 21.284 3.08875 22.1371 2.58524ZM29.0268 4.27618C27.1585 3.56348 25.9558 2.99805 25.2313 2.49188C24.9523 2.29694 24.5611 1.99814 24.362 1.82782L24 1.51816L23.5368 1.94034C22.6235 2.77274 21.4294 3.35522 18.0482 4.61761C15.1145 5.71295 14.5149 5.95447 13.5751 6.41937C11.3695 7.51044 10.2624 8.578 7.67078 12.1125C6.20417 14.1127 5.60421 14.8455 4.68873 15.7545C3.82821 16.6088 3.05726 17.1691 2.13082 17.6136L1.54477 17.8949L1.76353 18.2287C2.12009 18.7729 2.54688 19.7182 2.75021 20.4146C3.12983 21.7142 3.18063 22.3799 3.16278 25.8242C3.14736 28.8147 3.15583 29.0402 3.31729 29.951C3.41117 30.481 3.6229 31.3026 3.78769 31.7769C4.32098 33.3113 4.79418 34.1374 7.06635 37.5C8.64983 39.8435 9.39016 41.1281 9.77915 42.2075C10.0122 42.8539 10.2803 44.1078 10.2803 44.551C10.2803 44.8217 10.2989 44.8584 10.4126 44.8118C10.4853 44.7819 11.0381 44.7403 11.6409 44.7193C13.3548 44.6596 14.8912 44.9715 18.3685 46.0853C20.8331 46.8746 21.3148 46.9726 22.8661 46.9999C24.6144 47.0308 25.4451 47.0525 26.2576 46.9416C27.0739 46.8302 27.8719 46.585 29.5636 46.0808C33.8336 44.8083 35.0882 44.5922 36.9827 44.8026L37.5685 44.8676L37.5692 44.54C37.5703 43.9842 37.9232 42.6316 38.2852 41.7955C38.7265 40.7763 39.6499 39.2383 40.819 37.575C42.9028 34.6104 43.6624 33.2927 44.1694 31.7625C44.6968 30.1707 44.7697 29.4442 44.7829 25.65C44.7922 22.9495 44.8145 22.3479 44.9292 21.7125C45.1293 20.6041 45.5327 19.4671 46.0038 18.6835C46.2286 18.3096 46.4126 17.986 46.4126 17.9643C46.4126 17.9427 46.3644 17.925 46.3055 17.925C45.9721 17.925 44.5284 16.999 43.6975 16.2523C42.7449 15.3961 42.3857 14.9537 39.4228 10.9875C37.8743 8.91449 37.0763 8.07965 35.9272 7.33026C34.5604 6.43896 33.7142 6.06445 29.0268 4.27618ZM18.2929 4.91125C20.8945 3.97168 22.4722 3.22705 23.4331 2.48514C23.9965 2.05011 24.1525 2.00946 24.3071 2.25766C24.4175 2.43488 25.7866 3.26428 26.6457 3.6745C27.1446 3.91266 28.7263 4.55542 30.1606 5.10284C33.0602 6.20953 34.2276 6.71069 35.0841 7.21649C36.7477 8.1991 37.5151 8.97827 39.574 11.775C40.1054 12.4969 40.8145 13.4587 41.1498 13.9125C41.8478 14.8571 43.7376 16.812 44.4095 17.2845C44.6589 17.46 45.0872 17.7264 45.3612 17.8765L45.8594 18.1495L45.429 19.0018C44.5879 20.6673 44.4483 21.5665 44.4477 25.3233C44.4471 28.8546 44.349 29.9048 43.8707 31.5C43.4815 32.7979 42.4436 34.6492 40.8673 36.8573C38.6739 39.9297 37.6197 41.9781 37.3021 43.7846C37.2407 44.1339 37.1906 44.4237 37.1906 44.4286C37.1906 44.4335 36.7257 44.4257 36.1573 44.4111C34.3412 44.3647 33.583 44.5109 29.8488 45.6271C26.467 46.6381 25.4348 46.8322 24.373 46.6564C23.9977 46.5944 23.7328 46.5919 23.4401 46.6477C22.8748 46.7554 21.6065 46.6272 20.5411 46.3547C20.0737 46.2351 18.9316 45.8965 18.0029 45.6022C14.7845 44.5826 13.2915 44.2866 11.626 44.3381C10.5831 44.3704 10.5827 44.3702 10.5827 43.9534C10.5827 43.5798 10.2217 42.3203 9.89957 41.5699C9.40815 40.4252 8.86836 39.5273 7.05774 36.8432C4.73862 33.4052 4.06367 32.0345 3.68776 30C3.54051 29.2031 3.52947 28.9037 3.54285 26.0625C3.55555 23.351 3.5393 22.8547 3.4052 21.8646C3.22802 20.556 2.98734 19.748 2.48088 18.761C2.28034 18.3701 2.12477 18.0449 2.13528 18.0381C2.14579 18.0315 2.3074 17.9492 2.49449 17.8553C3.34443 17.4287 3.93729 16.9605 5.05376 15.8339C6.19926 14.678 6.58243 14.2034 8.86034 11.1198C9.83425 9.80133 10.3426 9.21674 11.2065 8.42206C12.5174 7.21606 14.1487 6.40784 18.2929 4.91125ZM25.7025 7.79999C25.8248 6.95813 25.7984 6.55798 25.6063 6.34308C25.4123 6.12585 24.9265 6.03046 24.67 6.15924C24.4176 6.28595 24.3271 6.5766 24.2837 7.39929C24.2445 8.14349 24.2481 8.16547 24.4396 8.35553C24.5916 8.50635 24.7108 8.54999 24.9709 8.54999C25.4619 8.54999 25.6167 8.39136 25.7025 7.79999ZM23.6288 7.44208C23.5784 6.65881 23.4951 6.31073 23.3338 6.20892C23.168 6.10431 22.1471 6.14008 22.1038 6.25201C22.0821 6.30811 22.0999 6.75531 22.1432 7.24573C22.1866 7.73627 22.2224 8.2348 22.2229 8.35364L22.2236 8.5697L22.791 8.53357C23.6413 8.47943 23.6914 8.41418 23.6288 7.44208ZM21.6886 8.57837C21.7062 8.56232 21.6426 8.10663 21.5474 7.56567C21.3724 6.57153 21.3328 6.33276 21.2175 6.28766C21.1785 6.2724 21.1309 6.2793 21.0664 6.28662C20.8001 6.31696 20.7619 6.41541 20.8555 6.8291C20.8966 7.01025 20.9173 7.17114 20.9016 7.18665C20.886 7.20215 20.7853 7.04279 20.6778 6.8324C20.4993 6.48279 20.4599 6.45001 20.2192 6.45001C20.1248 6.45001 20.0577 6.44971 20.0161 6.48218C19.9135 6.56244 19.9675 6.84283 20.1544 7.82233C20.3419 8.80487 20.3619 8.86023 20.5135 8.81976C20.6017 8.79633 20.7204 8.77655 20.7771 8.77606C20.8568 8.77521 20.8683 8.69623 20.8277 8.42792C20.7988 8.237 20.7591 8.02606 20.7394 7.95917C20.7197 7.89227 20.8092 8.03387 20.9383 8.27386C21.165 8.69525 21.1813 8.7085 21.4149 8.65887C21.5478 8.63062 21.6711 8.5943 21.6886 8.57837ZM27.1691 6.7016C27.2022 6.46075 27.185 6.38055 27.0926 6.3454C27.0271 6.32037 26.8822 6.29999 26.7705 6.29999C26.5683 6.29999 26.567 6.30359 26.363 7.43945C26.2504 8.06616 26.1672 8.58771 26.1781 8.59851C26.1822 8.6026 26.206 8.60956 26.2433 8.6181C26.3045 8.6322 26.402 8.65057 26.508 8.66736L26.8182 8.71655L26.8814 8.31451L26.9447 7.91248L26.9842 8.32501C27.0228 8.7287 27.0296 8.73901 27.3065 8.80682C27.4621 8.84497 27.6082 8.85748 27.6312 8.83459C27.6543 8.81177 27.6379 8.51416 27.5948 8.17322L27.5165 7.55334L27.7794 7.06183C28.0601 6.53748 28.0439 6.45343 27.6621 6.45111C27.5193 6.45032 27.4245 6.52319 27.2976 6.73126L27.1262 7.01251L27.1691 6.7016ZM22.8278 7.81873C22.8275 7.66412 22.8061 7.30127 22.7803 7.01251C22.7471 6.64148 22.7571 6.50946 22.8141 6.5625C22.9012 6.64337 23.0551 7.85162 22.998 8.00623C22.9268 8.19885 22.8284 8.09033 22.8278 7.81873ZM24.9351 8.09998C24.8633 8.09998 24.9006 7.11591 24.9883 6.69373C25.0076 6.60095 25.0562 6.52502 25.0964 6.52502C25.1398 6.52502 25.1531 6.71484 25.1292 6.99377C25.0557 7.85046 25.0119 8.09998 24.9351 8.09998ZM19.6535 8.81244C19.7777 8.4884 19.3632 7.12927 19.0707 6.901C18.8394 6.72046 18.6362 6.71094 18.3307 6.86615C18.0491 7.00934 17.915 7.17944 17.915 7.39343C17.915 7.70758 18.3036 8.88831 18.4622 9.05627C18.7518 9.36267 19.5015 9.20923 19.6535 8.81244ZM30.9168 8.06183C31.0553 7.57056 30.981 7.39551 30.5585 7.2182C29.9915 6.98041 29.8618 6.95319 29.8203 7.0636C29.4957 7.92419 29.1172 9.19476 29.1699 9.24695C29.2068 9.28357 29.3476 9.31897 29.4827 9.32556C29.7131 9.33673 29.7363 9.31427 29.8574 8.96252C29.9842 8.59387 29.9911 8.58795 30.2682 8.61279C30.6231 8.64459 30.793 8.50018 30.9168 8.06183ZM18.7265 8.03564C18.6127 7.62903 18.5197 7.2746 18.5197 7.24817C18.5197 7.22168 18.5483 7.20001 18.5833 7.20001C18.6532 7.20001 19.0513 8.4325 19.0498 8.64374C19.0475 8.96295 18.9175 8.71851 18.7265 8.03564ZM17.4186 8.00159C17.3432 7.82886 17.2498 7.64532 17.2111 7.59375C17.0369 7.36212 15.8888 7.64008 15.9352 7.90259C15.9981 8.25885 16.7342 9.97498 16.8242 9.97498C16.9706 9.97498 17.3102 9.81128 17.3102 9.74078C17.3102 9.70764 17.241 9.50616 17.1563 9.29303C17.0716 9.0799 17.0121 8.8999 17.024 8.89288C17.0359 8.88599 17.1383 8.84094 17.2514 8.79272C17.5308 8.67377 17.5899 8.39398 17.4186 8.00159ZM30.3978 7.63025C30.4763 7.70819 30.3315 8.17499 30.2288 8.17499C30.1393 8.17499 30.1428 8.09814 30.2456 7.80548C30.2952 7.66443 30.3586 7.59143 30.3978 7.63025ZM32.7372 8.09503L32.4505 7.97668C32.2928 7.91162 32.0698 7.81036 31.9549 7.75177C31.7595 7.65204 31.7418 7.65613 31.6794 7.81635C31.6427 7.91046 31.4866 8.25751 31.3326 8.58752C31.1786 8.91748 30.9891 9.33099 30.9116 9.50635L30.7706 9.82513L31.1271 10.0028C31.7207 10.2988 31.7798 10.3032 31.8732 10.0576C31.9477 9.86176 31.9378 9.83234 31.7714 9.75714C31.6266 9.69171 31.5981 9.63763 31.6383 9.50568C31.7147 9.25458 31.7913 9.20258 31.956 9.29004C32.0812 9.35645 32.119 9.33752 32.1959 9.1698C32.2766 8.99432 32.2678 8.95612 32.1221 8.84705C31.9823 8.74243 31.9703 8.69849 32.044 8.56171C32.1438 8.37677 32.1595 8.37238 32.3551 8.47626C32.4753 8.5401 32.5182 8.5152 32.6179 8.32379L32.7372 8.09503ZM16.9312 8.38568C16.933 8.54602 16.802 8.41748 16.7169 8.17517C16.6548 7.99835 16.6594 7.95001 16.7384 7.95001C16.8331 7.95001 16.929 8.1665 16.9312 8.38568ZM33.9308 9.62012C34.0786 9.70673 34.1501 9.74957 34.1978 9.73114C34.2439 9.71332 34.2679 9.63855 34.3169 9.49115C34.4168 9.1908 34.3515 9.02094 34.0438 8.78082C33.8063 8.59546 33.3944 8.57721 33.2257 8.74463C33.1594 8.81042 33.0511 8.96796 32.9849 9.09485C32.8721 9.3114 32.8749 9.34973 33.0302 9.72168C33.2181 10.1714 33.2103 10.4489 33.0088 10.487C32.8799 10.5114 32.8786 10.4989 32.9879 10.2891C33.1132 10.0486 33.0926 10.0089 32.7522 9.83368C32.6035 9.75714 32.5717 9.77234 32.4687 9.97003C32.2973 10.2988 32.3265 10.522 32.5711 10.7545C32.8813 11.0493 33.3335 11.1013 33.5531 10.8674C33.6433 10.7714 33.7541 10.5701 33.7993 10.4202C33.8692 10.189 33.8569 10.0919 33.7182 9.78094C33.6246 9.57092 33.5732 9.34192 33.5977 9.24475C33.6608 8.99548 33.8106 9.03156 33.755 9.28259C33.7166 9.4563 33.7452 9.51129 33.9308 9.62012ZM15.1163 10.8984L15.3437 10.7556L14.7213 9.76532C14.3789 9.22064 14.0645 8.77576 14.0227 8.77667C13.9807 8.77753 13.8696 8.8371 13.7755 8.90887C13.6247 9.02405 13.6167 9.05676 13.7073 9.18842C13.9589 9.55408 14.0743 9.75 14.0379 9.75C14.0162 9.75 13.856 9.6319 13.6819 9.48749C13.5077 9.34314 13.342 9.22498 13.3136 9.22498C13.224 9.22498 12.926 9.45557 12.926 9.52478C12.926 9.61682 14.1422 11.4754 14.201 11.4733C14.2273 11.4725 14.332 11.4082 14.4338 11.3306L14.6188 11.1896L14.4149 10.8839C14.3028 10.7158 14.211 10.5583 14.211 10.5341C14.211 10.5098 14.3636 10.614 14.55 10.7656L14.889 11.0412L15.1163 10.8984ZM24.7638 9.82501C24.3184 9.78748 24.3182 9.78735 24.2285 9.48456C24.0539 8.89514 24.0077 8.87982 23.8372 9.35492L23.682 9.78748L23.2363 9.82501L22.7906 9.86249L23.1183 10.083C23.4692 10.319 23.4783 10.363 23.2944 10.9348L23.2148 11.1819L23.494 11.0141C23.6062 10.9467 23.7314 10.8717 23.8158 10.8214C23.8469 10.8027 23.8725 10.7875 23.8897 10.7773C23.9729 10.7281 24.112 10.775 24.3756 10.9409C24.5788 11.0687 24.7564 11.1621 24.7702 11.1484C24.784 11.1346 24.744 10.9789 24.6812 10.8022C24.5204 10.3503 24.5289 10.3205 24.8882 10.0787L25.2094 9.86249L24.7638 9.82501ZM36.0547 10.1309L35.7208 9.90295C35.5372 9.77759 35.3534 9.67499 35.3123 9.67499C35.2366 9.67499 33.7726 11.2045 33.7256 11.3327C33.6979 11.4082 34.0088 11.6934 34.1232 11.6975C34.1615 11.6989 34.2529 11.6461 34.3263 11.5801C34.5138 11.4118 34.6371 11.5068 34.5309 11.738C34.4588 11.895 34.4725 11.9416 34.6283 12.0703C34.7279 12.1526 34.8517 12.2211 34.9034 12.2225C34.9551 12.2239 35.2353 11.7538 35.526 11.1779L36.0547 10.1309ZM13.682 11.8124C13.77 11.7072 13.7158 11.6241 13.2599 11.1652C12.9723 10.8756 12.5831 10.5095 12.395 10.3515L12.053 10.0643L11.6936 10.3285L11.3341 10.5927L11.4967 10.8651C11.5862 11.0149 11.8626 11.4828 12.1112 11.9049C12.5925 12.7225 12.6281 12.743 12.9509 12.3891C13.0665 12.2623 13.0726 12.2158 12.9907 12.0856C12.861 11.8794 12.9644 11.7934 13.146 11.9564C13.303 12.0974 13.4844 12.0486 13.682 11.8124ZM21.7134 11.0254C21.459 11.0251 21.3916 10.9977 21.3895 10.8937C21.388 10.8215 21.3395 10.6781 21.2818 10.575L21.1768 10.3875L21.0932 10.6125C21.0473 10.7363 20.9948 10.8797 20.9765 10.9313C20.9581 10.9832 20.8159 11.0262 20.6575 11.0277L20.3717 11.0304L20.5959 11.2121C20.8075 11.3838 20.8148 11.408 20.7281 11.646C20.5956 12.0098 20.6097 12.0289 20.8735 11.8426C21.1173 11.6703 21.1174 11.6703 21.6326 11.8843C21.7467 11.9317 21.7509 11.9088 21.6736 11.6589C21.592 11.3951 21.5992 11.3715 21.8111 11.2032L22.0347 11.0258L21.7134 11.0254ZM27.3682 11.025C27.0659 10.9913 27.0262 10.9636 26.9701 10.7474C26.8778 10.3916 26.7777 10.3833 26.6752 10.7228C26.5882 11.011 26.5696 11.0251 26.2747 11.0277L25.9653 11.0304L26.1788 11.2037C26.3666 11.3561 26.3861 11.41 26.3405 11.651C26.2847 11.9465 26.3358 11.9826 26.5656 11.8101C26.7645 11.6609 26.8841 11.6713 27.153 11.8613C27.3662 12.0119 27.3784 12.0132 27.3382 11.88C27.1928 11.3968 27.1982 11.3659 27.4547 11.212L27.7039 11.0625L27.3682 11.025ZM34.8187 11.1017C34.7687 11.0521 34.8033 10.9637 34.9219 10.8385C35.1575 10.5896 35.1712 10.6 35.0206 10.9133C34.9366 11.0881 34.8689 11.1514 34.8187 11.1017ZM37.1243 11.6011C37.2785 11.2863 37.2797 11.2652 37.1534 11.074C37.0812 10.9645 36.9834 10.8787 36.9362 10.8832C36.889 10.8877 36.496 11.2592 36.0629 11.7087L35.2754 12.526L35.4538 12.7145L35.6322 12.903L35.9643 12.5827L36.2964 12.2625L36.0847 12.6947L35.8731 13.1269L36.0609 13.3132L36.2486 13.4996L37.0998 12.6525L37.9511 11.8055L37.7587 11.6261L37.5662 11.4467L37.265 11.7386C36.9199 12.073 36.9019 12.0554 37.1243 11.6011ZM12.6198 11.5362C12.5761 11.5218 12.4679 11.3925 12.3794 11.2487L12.2185 10.9875L12.4588 11.2078C12.6955 11.4247 12.7753 11.5876 12.6198 11.5362ZM18.028 12.6611C17.8407 12.4006 17.5941 12.0475 17.4799 11.8765C17.4118 11.7745 17.3387 11.6627 17.2816 11.574C17.243 11.514 17.2117 11.4645 17.1944 11.4357C17.1241 11.3185 17.1082 11.324 17.0309 11.4925C16.9837 11.5951 16.7173 11.9754 16.4388 12.3376C15.7857 13.1869 15.7317 13.4488 16.1289 13.8429C16.4623 14.1736 16.4738 14.2977 16.1773 14.3623C15.8847 14.4261 15.6472 14.7302 15.6472 15.0413C15.6472 15.2388 15.7142 15.3458 15.9874 15.5844L16.3276 15.8814V16.5961V17.3109L15.7233 17.0742C15.391 16.944 15.1189 16.7953 15.1186 16.7438C15.1182 16.6723 14.7953 16.65 13.7575 16.65H12.3969V19.425V22.2H11.9084C11.5985 22.2 11.266 22.1429 10.9992 22.0438L10.5786 21.8877L8.91425 22.9251C7.99884 23.4957 7.19433 24.0001 7.12645 24.0462C7.01337 24.123 7.01027 24.3732 7.08904 27.0394C7.13635 28.6396 7.20514 29.9788 7.24195 30.0154C7.27876 30.0519 7.53026 30.1182 7.80087 30.1627C8.52949 30.2825 9.25539 30.1141 10.3519 29.5713C10.6742 29.4117 10.9701 29.266 11.1405 29.1826C11.2241 29.1418 11.2775 29.116 11.2891 29.1109C11.3241 29.0954 11.3412 29.2877 11.3269 29.5381L11.3008 29.9935L11.5948 30.0426C11.9635 30.1042 12.7756 30.1016 13.0977 30.0379C14.137 29.8321 15.0494 29.3716 16.5086 28.3165L17.3318 27.7213L17.2836 26.6293C17.1805 24.2991 17.0623 21.9366 17.0479 21.9185C17.0395 21.9081 16.8315 21.9697 16.5856 22.0555C16.0545 22.2406 15.472 22.2142 15.0848 21.9875L14.8328 21.8401L14.0942 22.245C13.6879 22.4678 13.3099 22.65 13.2541 22.65C13.1834 22.65 13.1533 22.5425 13.1546 22.2938C13.1563 21.9415 13.1616 21.9339 13.6279 21.6188C14.0676 21.3216 14.134 21.3 14.6088 21.3C14.8979 21.3 15.1181 21.2676 15.1181 21.225C15.1181 21.1754 18.1173 21.15 23.9646 21.15C31.7584 21.15 32.8162 21.1633 32.8545 21.2625C32.8871 21.3467 33.023 21.375 33.3949 21.375C33.8507 21.375 33.9321 21.401 34.3778 21.6891L34.8639 22.0034L34.8175 22.3395C34.7919 22.5244 34.755 22.6915 34.7354 22.7109C34.7159 22.7303 34.3554 22.5544 33.9343 22.3201L33.1685 21.8942L32.8501 22.0471C32.4559 22.2365 31.7708 22.2496 31.3142 22.0767C31.1352 22.0089 30.9712 21.9707 30.9498 21.992C30.8843 22.0569 30.5675 27.7375 30.6269 27.7811C31.498 28.4203 32.6585 29.2179 32.9743 29.3948C34.0151 29.9776 35.2858 30.2593 36.2359 30.1179L36.5858 30.0658V29.6204C36.5858 29.3754 36.6077 29.175 36.6346 29.175C36.6614 29.175 37.0503 29.3605 37.4988 29.5871C38.6643 30.1761 39.5023 30.3511 40.4087 30.1945L40.7165 30.1413L40.8069 27.9144C40.8568 26.6896 40.9053 25.351 40.9149 24.9397L40.9323 24.1918L39.1559 23.0755L37.3795 21.9591L37.0221 22.0865C36.5439 22.2569 35.7898 22.3226 35.6482 22.206C35.5557 22.1298 35.5459 21.7125 35.583 19.4207L35.6267 16.725H34.2581C33.2038 16.725 32.8755 16.7478 32.829 16.8242C32.7718 16.9182 31.8314 17.325 31.6716 17.325C31.6276 17.325 31.5968 17.0345 31.5968 16.6187V15.9122L31.8536 15.7548C32.5112 15.3515 32.5351 14.6987 31.9014 14.4471C31.5552 14.3097 31.5145 14.1571 31.7782 13.9855C32.014 13.8323 32.1569 13.4832 32.0914 13.2202C32.063 13.106 31.8589 12.7762 31.6379 12.4875C31.4169 12.1987 31.1645 11.8444 31.0769 11.7C30.9895 11.5556 30.8982 11.4443 30.8743 11.4526C30.8503 11.461 30.5609 11.8455 30.2311 12.3072C29.5493 13.2617 29.508 13.4302 29.8583 13.826C30.1074 14.1076 30.1601 14.4 29.9617 14.4C29.7725 14.4 29.3508 14.6848 29.3098 14.8403C29.2478 15.0756 29.4561 15.4349 29.7815 15.6536L30.0924 15.8625L30.0509 16.3047C30.0281 16.548 30.0094 17.0234 30.0094 17.3613V17.9756L29.6064 18.1115L29.2034 18.2475L28.3403 17.9066C26.7921 17.2953 25.5866 17.0685 23.8866 17.069C22.3167 17.0693 21.0329 17.3274 19.4145 17.9681L18.7598 18.2272L18.3941 18.0928L18.0284 17.9584L17.9632 16.9156L17.898 15.8729L18.1144 15.718C18.8602 15.184 18.8591 14.6607 18.1116 14.3926C17.7707 14.2703 17.769 14.1567 18.1039 13.8649C18.4814 13.5361 18.4645 13.2681 18.028 12.6611ZM11.1496 11.6912L10.9711 11.5456C10.6941 11.3196 10.4019 11.3594 10.0938 11.665C9.7465 12.0096 9.74664 12.2355 10.0942 12.5803C10.3566 12.8407 10.3705 12.8448 10.8183 12.7985C11.2991 12.7486 11.5654 12.8258 11.5654 13.0151C11.5654 13.1683 11.4623 13.1522 11.2994 12.9734C11.1612 12.8219 11.1611 12.822 10.9532 13.0195C10.8382 13.1289 10.7637 13.2649 10.7865 13.3239C10.8386 13.4584 11.2058 13.65 11.4115 13.65C11.6205 13.65 12.0771 13.2136 12.138 12.9557C12.179 12.7817 12.1373 12.6998 11.8753 12.4398L11.5638 12.1308L11.0403 12.1819C10.5613 12.2288 10.5097 12.22 10.4337 12.079C10.3691 11.9594 10.3731 11.925 10.4515 11.925C10.507 11.925 10.5937 11.9659 10.6442 12.0161C10.7161 12.0874 10.7806 12.0622 10.9428 11.8991L11.1496 11.6912ZM29.1779 12.45C28.8581 12.4147 28.8336 12.3957 28.7678 12.1312C28.7292 11.9766 28.6751 11.85 28.6475 11.85C28.6198 11.85 28.5564 11.985 28.5066 12.15C28.4207 12.4343 28.4003 12.45 28.1167 12.45C27.7597 12.45 27.7381 12.5212 28.0412 12.6989C28.2377 12.814 28.2562 12.8535 28.1924 13.0199C28.0494 13.3932 28.0942 13.4529 28.3842 13.275L28.6488 13.1128L28.925 13.282L29.201 13.4514L29.152 13.2577C29.1373 13.1996 29.1183 13.1323 29.1003 13.0733C29.0852 13.0242 29.0708 12.9807 29.0601 12.9529C29.0331 12.8831 29.1098 12.7764 29.2676 12.6647L29.5181 12.4875L29.1779 12.45ZM19.9041 12.4536C19.6124 12.4503 19.5803 12.4296 19.4921 12.1875C19.4395 12.0432 19.3761 11.925 19.3512 11.925C19.3263 11.925 19.2629 12.0432 19.2103 12.1875C19.1219 12.43 19.0905 12.4501 18.7982 12.452L18.4819 12.454L18.7322 12.6601C18.959 12.8468 18.975 12.8857 18.9023 13.0754C18.7762 13.4045 18.8034 13.4308 19.0941 13.2607C19.3571 13.1067 19.3736 13.1058 19.5907 13.233C19.8653 13.3939 19.9218 13.351 19.8192 13.059C19.7476 12.8551 19.7618 12.8188 19.9805 12.6462L20.2205 12.457L19.9041 12.4536ZM39.1976 13.3096C39.2213 13.2122 39.1088 13.0818 38.743 12.652C38.4148 12.2662 38.3315 12.235 38.1525 12.4313C38.0606 12.532 38.0517 12.5961 38.1139 12.7066C38.201 12.8609 38.1416 12.928 37.2023 13.7348L36.7984 14.0818L37.0134 14.3189L37.2283 14.5561L37.9446 13.9567C38.6187 13.3927 38.6689 13.3646 38.7977 13.4802C38.925 13.5945 38.9454 13.5922 39.0924 13.4463C39.1482 13.391 39.1869 13.3537 39.1976 13.3096ZM10.8441 14.403C11.0882 14.1754 11.0852 14.0911 10.8279 13.9436C10.7138 13.8782 10.2597 13.6025 9.81869 13.3309L9.01697 12.8373L8.736 13.1708C8.58142 13.3542 8.46599 13.5347 8.47945 13.5718C8.4929 13.6089 8.85921 14.0172 9.29348 14.479L10.083 15.3187L10.2569 15.103C10.4614 14.8495 10.4731 14.7526 10.3149 14.6224C10.1445 14.4821 10.2994 14.3638 10.495 14.4849C10.6318 14.5696 10.6765 14.5592 10.8441 14.403ZM25.4259 13.3819C24.8911 13.2337 24.3614 13.0477 24.2487 12.9687C24.0026 12.796 23.9521 12.7922 23.8076 12.9355C23.7463 12.9963 23.2285 13.1818 22.6568 13.3477C21.4021 13.7117 20.821 13.9672 20.2194 14.4194C19.5147 14.9492 19.0643 15.6511 18.8552 16.5458C18.791 16.8203 18.7488 17.1669 18.7614 17.3162C18.7901 17.6562 18.8172 17.655 19.9559 17.2586C22.8447 16.2531 25.4829 16.2792 28.2552 17.3407C28.6831 17.5046 29.0828 17.6198 29.1434 17.5967C29.3917 17.5021 29.1736 16.3868 28.7506 15.588C28.2053 14.5583 27.1537 13.8605 25.4259 13.3819ZM9.8781 14.149C9.84718 14.1797 9.71308 14.0969 9.58012 13.9649C9.44716 13.8329 9.37172 13.7262 9.41246 13.7277C9.54096 13.7324 9.9369 14.0907 9.8781 14.149ZM40.2898 14.8303C40.2898 14.7289 40.1635 14.4556 40.009 14.2229C39.8547 13.9904 39.7101 13.8021 39.6878 13.8047C39.6479 13.8094 37.8978 15.0233 37.8209 15.0996C37.7683 15.1517 37.8494 15.3792 37.9824 15.5529C38.0856 15.6876 38.1049 15.6827 38.4529 15.4336C38.9518 15.0764 39.005 15.0504 39.0028 15.1643C39.0017 15.2183 38.8316 15.3763 38.6248 15.5156C38.418 15.6547 38.2496 15.8066 38.2505 15.853C38.2514 15.8995 38.3156 16.0193 38.3931 16.1194L38.534 16.3013L38.9016 16.0408C39.1038 15.8976 39.3029 15.7061 39.3439 15.6152C39.3937 15.505 39.4853 15.45 39.6194 15.45C39.8826 15.45 40.2898 15.0737 40.2898 14.8303ZM9.75639 15.7556L9.44527 15.5513C9.27421 15.4389 8.90336 15.0511 8.62118 14.6893L8.10822 14.0317L7.94698 14.2019C7.75521 14.4045 7.74561 14.4985 7.90337 14.6284C7.968 14.6816 8.05515 14.7888 8.09711 14.8665C8.1696 15.0009 8.15834 15.0003 7.87079 14.8547L7.5682 14.7016L7.41248 14.9186C7.32677 15.038 7.25669 15.1515 7.25669 15.1709C7.25669 15.1902 7.59814 15.3333 8.01555 15.4886C8.43288 15.6439 8.89678 15.8676 9.04637 15.9855C9.38774 16.2547 9.45985 16.2537 9.62411 15.9778L9.75639 15.7556ZM39.3827 14.9199C39.3125 14.9197 39.3558 14.8495 39.4961 14.7356C39.6208 14.6345 39.7349 14.5872 39.7496 14.6306C39.7825 14.7274 39.5378 14.9203 39.3827 14.9199ZM41.4236 16.4594C41.4236 16.4393 41.3183 16.2377 41.1897 16.0114C41.0609 15.7851 40.9334 15.601 40.9062 15.6021C40.879 15.6032 40.4315 15.8385 39.9118 16.1249C39.3921 16.4113 38.9329 16.6589 38.8913 16.675C38.7941 16.713 39.2656 17.5807 39.3986 17.6084C39.4538 17.6199 39.5621 17.5835 39.6394 17.5275C39.7576 17.4417 39.7655 17.3992 39.6893 17.258C39.6194 17.1283 39.6193 17.0661 39.689 16.9827C39.808 16.8405 40.0388 16.8455 40.1214 16.9919C40.1771 17.0905 40.2197 17.0943 40.3927 17.0161C40.5141 16.9612 40.5813 16.8828 40.5573 16.8242L40.4758 16.6259C40.4521 16.5679 40.5157 16.4902 40.6289 16.4391C40.8029 16.3605 40.8315 16.3703 40.907 16.5347C40.9872 16.7092 41.0015 16.7127 41.2074 16.6071C41.3263 16.546 41.4236 16.4796 41.4236 16.4594ZM9.1395 16.6696L8.1414 16.288C7.59247 16.0781 7.08563 15.8853 7.01518 15.8593C6.85221 15.7993 6.39314 16.4838 6.506 16.6187C6.60027 16.7314 8.27822 18 8.3331 18C8.35646 18 8.44604 17.8816 8.53214 17.7368C8.68747 17.4756 8.68755 17.4729 8.53962 17.3812C8.4576 17.3305 8.39055 17.2464 8.39055 17.1944C8.39055 17.0809 8.40295 17.0799 8.64967 17.173C8.82641 17.2396 8.85589 17.2211 8.99127 16.9577L9.1395 16.6696ZM8.0126 16.8864C8.0126 17.0052 7.82446 16.95 7.59685 16.7643L7.37008 16.5793L7.69134 16.701C7.86807 16.768 8.0126 16.8514 8.0126 16.8864ZM41.6839 17.8544C41.9609 17.5729 41.9702 17.5479 41.879 17.3294C41.8263 17.2032 41.7448 17.1028 41.6979 17.1062C41.5823 17.1146 39.6095 18.0587 39.6095 18.1057C39.6095 18.2065 39.7931 18.525 39.8513 18.525C39.8879 18.525 40.0558 18.4552 40.2245 18.3698C40.6337 18.1627 40.6597 18.221 40.2898 18.516C39.9683 18.7723 39.938 18.8604 40.0715 19.1509L40.1554 19.3339L41.2207 18.8517C41.8065 18.5865 42.2972 18.3583 42.3111 18.3445C42.3312 18.3245 42.1997 17.9679 42.1337 17.8635C42.1254 17.8503 41.9806 17.9094 41.8119 17.9948C41.3764 18.2151 41.3535 18.1901 41.6839 17.8544ZM7.77502 18.3847C7.56699 18.2989 7.13061 18.0085 6.80542 17.7394C6.48015 17.4702 6.17983 17.25 6.13803 17.25C6.09623 17.25 6.02464 17.3565 5.97891 17.4866C5.90868 17.6864 5.9164 17.738 6.0282 17.818C6.10107 17.8702 6.22866 17.9679 6.31181 18.0353L6.46299 18.1578L6.31181 18.1199C5.98253 18.0375 5.85809 18.0031 5.78226 18.049C5.73173 18.0796 5.70278 18.1458 5.64919 18.2573C5.59556 18.369 5.55475 18.4373 5.57181 18.4847C5.60225 18.5695 5.81685 18.5882 6.47138 18.6686C6.80867 18.7101 7.26456 18.8145 7.4846 18.9005C7.90503 19.0649 7.93278 19.0572 8.06861 18.7391C8.15032 18.5477 8.13997 18.5352 7.77502 18.3847ZM15.2882 19.0943C15.1185 19.1424 15.1181 19.1406 15.1181 18.2287C15.1181 17.3156 15.1183 17.3149 15.2882 17.3669C15.3818 17.3956 15.9685 17.6205 16.5921 17.8669C18.6573 18.6826 18.909 18.7626 19.0433 18.6461C19.346 18.3839 20.6038 17.938 21.7701 17.6796C22.8488 17.4407 24.964 17.4443 26.1073 17.6871C27.2985 17.9401 28.8224 18.4807 28.9653 18.701C29.027 18.7961 29.4849 18.6455 31.3609 17.913C32.0834 17.6309 32.7212 17.4 32.7783 17.4C32.8604 17.4 32.8819 17.5883 32.8819 18.3051V19.2101L32.7118 19.1488C32.6182 19.1151 32.3149 19.0875 32.0377 19.0875C31.6411 19.0875 31.4869 19.1217 31.315 19.248L31.0964 19.4085L30.7986 19.2253C30.5447 19.0693 30.4259 19.0459 29.9938 19.0672C29.6251 19.0853 29.4279 19.1352 29.2711 19.2502L29.0554 19.4085L28.7577 19.2253C28.5038 19.0693 28.385 19.0459 27.9529 19.0672C27.5838 19.0853 27.3871 19.1352 27.2298 19.2505C27.0171 19.4066 27.0108 19.4068 26.8297 19.2675C26.4032 18.9395 25.5678 18.9417 25.1568 19.2718C24.9951 19.4019 24.9821 19.4014 24.7902 19.2606C24.3643 18.9482 23.7134 18.929 23.2109 19.2141C22.9524 19.3609 22.9494 19.3609 22.6818 19.2141C22.5337 19.1328 22.3049 19.0437 22.1733 19.0161C21.8888 18.9564 21.3589 19.0849 21.0815 19.2808C20.8875 19.418 20.88 19.418 20.7549 19.2808C20.5856 19.0952 20.0147 18.9579 19.6671 19.0192C19.5142 19.0462 19.2784 19.1344 19.1433 19.2152L18.8976 19.3622L18.6256 19.1954C18.2483 18.9641 17.609 18.9552 17.1868 19.1755L16.8743 19.3384L16.5065 19.1508C16.1395 18.9636 15.8046 18.9481 15.2882 19.0943ZM29.9352 22.2241L27.9947 22.1746C25.4688 22.11 18.106 22.1104 18.041 22.175C17.967 22.2484 17.9793 30.1343 18.0534 30.1797C18.088 30.2009 20.7668 30.223 24.0062 30.2287L29.8961 30.2392L29.9156 26.2316L29.9352 22.2241ZM8.0126 24.1622C8.0126 24.1312 8.59653 23.763 9.31019 23.3437C10.564 22.6071 10.6195 22.5828 10.9543 22.6262C11.1448 22.6509 11.3092 22.6776 11.3197 22.6855C11.3892 22.7386 9.25342 24.0863 8.93677 24.1891C8.55844 24.3118 8.0126 24.296 8.0126 24.1622ZM12.3969 24.0375C12.9114 23.7142 14.4523 22.7887 14.6482 22.6852C14.7881 22.6112 15.463 22.6124 15.5546 22.6868C15.5659 22.696 15.0691 23.0425 14.4503 23.4568C13.2566 24.256 12.7737 24.4469 12.2835 24.3131L12.0567 24.2512L12.3969 24.0375ZM33.2742 23.3555C32.4649 22.7943 32.4305 22.7599 32.6317 22.7151C32.7485 22.6891 32.9189 22.6637 33.0102 22.6589C33.2111 22.6481 35.9201 24.2159 35.862 24.3092C35.8394 24.3454 35.6223 24.375 35.3796 24.375C34.8451 24.375 34.5107 24.2131 33.2742 23.3555ZM37.6418 23.4608C36.6622 22.7924 36.6322 22.7642 36.8504 22.7169C36.9751 22.6899 37.1418 22.6637 37.2208 22.6589C37.2998 22.654 37.9601 23.0123 38.6882 23.455L40.0118 24.26L39.7391 24.324C39.2704 24.434 38.761 24.2243 37.6418 23.4608ZM22.7395 23.4067C22.9339 23.2142 23.212 23.0193 23.3575 22.9736C24.0405 22.7587 24.7569 22.9221 25.2249 23.3994C25.7258 23.9104 25.7362 23.9671 25.7608 26.3063L25.783 28.425H23.9655H22.148V26.4886C22.148 24.1796 22.1924 23.9485 22.7395 23.4067ZM26.838 24.9586C26.9356 24.6098 27.2472 24.236 27.549 24.1055C27.8341 23.9823 27.8358 23.9822 28.0959 24.08C28.3985 24.1937 28.6469 24.4404 28.8083 24.7875C28.9305 25.0503 28.9481 25.2944 28.9495 26.7562L28.9512 28.425H27.8551H26.759L26.7595 26.8312C26.7597 25.9547 26.795 25.1119 26.838 24.9586ZM19.1731 24.7875C19.3579 24.4452 19.5371 24.2665 19.8063 24.1558C20.2492 23.9738 20.7254 24.2244 21.0142 24.7914C21.1991 25.1544 21.2031 25.1987 21.2013 26.8268C21.2003 27.7422 21.1833 28.5017 21.1635 28.5147C21.1437 28.5276 20.6513 28.5272 20.0693 28.5137L19.011 28.4893V26.7885C19.011 25.1928 19.0211 25.0689 19.1731 24.7875ZM10.7351 32.224C10.5304 31.8052 10.3233 31.3022 10.2749 31.1063C10.2264 30.9103 10.1584 30.75 10.1237 30.75C10.0408 30.75 9.76207 31.3645 9.63054 31.8375C9.57317 32.0438 9.52577 32.5411 9.52531 32.9427L9.52441 33.6732L9.08977 33.4835C8.47914 33.217 7.90171 32.8242 7.35088 32.3002C7.09085 32.053 6.85954 31.8691 6.83678 31.8917C6.81403 31.9141 6.86808 32.215 6.9569 32.5601C7.62286 35.1486 9.21411 37.1872 11.6488 38.5707L11.9969 38.7686L12.2157 38.5398C12.3362 38.414 12.5568 38.2144 12.706 38.0962L12.9775 37.8813L13.6418 38.3671C15.3845 39.6414 17.3696 40.6209 19.3933 41.205C21.9415 41.9404 24.7942 42.0186 27.5011 41.4271C29.767 40.932 32.4199 39.7377 34.2184 38.403L34.8094 37.9644L35.0362 38.2366C35.4102 38.6855 35.512 38.825 35.6167 38.8271C35.6736 38.8283 35.7314 38.7889 35.8342 38.7367C36.4413 38.4283 37.5041 37.6415 38.1617 37.0135C38.9277 36.2821 39.5828 35.3825 40.0294 34.4488C40.308 33.8661 40.756 32.5818 40.8473 32.1036L40.8968 31.8447L40.6877 32.0314C40.5728 32.134 40.3034 32.3755 40.089 32.5679C39.6098 32.9982 38.9823 33.4019 38.4995 33.5906L38.1354 33.7329L38.1236 32.9973C38.1109 32.2137 37.9769 31.6243 37.6814 31.0525C37.5639 30.8252 37.4922 30.7498 37.4652 30.825C37.443 30.8869 37.3361 31.2075 37.2277 31.5375C36.7383 33.0273 35.7642 34.0842 34.4595 34.541L34.1743 34.6407L33.6392 34.1961L33.1041 33.7514L32.4836 34.2834C30.9329 35.613 28.9068 36.6863 26.9858 37.1957C23.7632 38.0505 20.4302 37.5911 17.4403 35.88C16.6883 35.4496 15.6708 34.7288 15.1552 34.2614C14.9361 34.0626 14.7132 33.9 14.6598 33.9C14.6065 33.9 14.3691 34.0673 14.1323 34.2716C13.7114 34.6348 13.6949 34.6415 13.4082 34.5643C12.8315 34.4089 12.0636 33.9454 11.582 33.462C11.2191 33.0977 11.0197 32.806 10.7351 32.224ZM21.8376 31.3434C21.7603 31.244 21.6771 31.1034 21.6528 31.0312C21.6197 30.9326 21.5255 30.9 21.2737 30.9C21.0894 30.9 20.9386 30.9165 20.9386 30.9368C20.9386 30.9569 21.0917 31.2104 21.2787 31.5C21.585 31.974 21.6189 32.0714 21.6189 32.4758V32.925H21.9591H22.2992V32.4694C22.2992 32.0566 22.3313 31.9646 22.6394 31.4921C22.8265 31.2051 22.9795 30.9545 22.9795 30.9352C22.9795 30.9158 22.8349 30.9002 22.6583 30.9006C22.3609 30.9011 22.3237 30.9243 22.1576 31.2128L21.9782 31.5244L21.8376 31.3434ZM24.8078 31.9514C24.9927 31.7249 24.992 31.1906 24.8066 31.0241C24.6991 30.9276 24.5142 30.9 23.9751 30.9H23.2819V31.9125V32.925H23.5843H23.8866V32.5595V32.194L24.2786 32.1567C24.5638 32.1296 24.7081 32.0735 24.8078 31.9514ZM27.0202 31.5056C27.0202 31.3234 26.9662 31.1528 26.8779 31.056C26.7532 30.9192 26.6487 30.9 26.0292 30.9H25.3228V31.9125V32.925H25.6252H25.9276V32.5595V32.194L26.3118 32.1575C26.8053 32.1104 27.0202 31.9127 27.0202 31.5056ZM24.0945 31.7112C23.9069 31.7327 23.8866 31.7121 23.8866 31.5C23.8866 31.2879 23.9069 31.2673 24.0945 31.2888C24.2594 31.3076 24.3024 31.3512 24.3024 31.5C24.3024 31.6488 24.2594 31.6924 24.0945 31.7112ZM26.1073 31.725C25.9579 31.725 25.9276 31.6869 25.9276 31.5C25.9276 31.3131 25.9579 31.275 26.1073 31.275C26.2061 31.275 26.3293 31.3256 26.3811 31.3875C26.5072 31.5381 26.3556 31.725 26.1073 31.725ZM9.93781 33.9677C9.82767 33.6234 9.89632 32.0047 10.0306 31.7787C10.0498 31.7465 10.1944 31.9827 10.3518 32.3038C10.9308 33.4839 11.5968 34.1667 12.6433 34.6526L13.1522 34.8889L12.2643 35.6017C11.1328 36.5101 10.9606 36.673 10.9606 36.8361C10.9606 36.9093 11.1498 37.2449 11.3811 37.582C11.6208 37.9311 11.7478 38.1742 11.6765 38.147C11.6077 38.1208 11.2914 37.9223 10.9736 37.7059C10.2564 37.2175 9.3315 36.3517 8.83502 35.7038C8.42728 35.1719 7.5911 33.5668 7.51158 33.1636L7.46252 32.9148L8.06226 33.3199C8.63554 33.7073 9.5644 34.125 9.85239 34.125C9.95588 34.125 9.97614 34.0876 9.93781 33.9677ZM34.9958 34.7147C35.9624 34.2794 36.6861 33.5421 37.2678 32.4C37.5902 31.7672 37.5931 31.7642 37.6651 31.9875C37.7554 32.2675 37.7777 33.7112 37.6962 34.0043C37.6362 34.2201 37.637 34.2208 37.9193 34.1754C38.28 34.1172 39.3082 33.6229 39.7946 33.2736C40.0004 33.1259 40.1804 33.0164 40.1944 33.0305C40.2333 33.069 39.8826 33.9637 39.6469 34.4276C39.0108 35.6796 37.7153 37.1062 36.4953 37.8982C35.9378 38.2601 35.6031 38.4102 35.6031 38.2982C35.6031 38.272 36.2297 37.1808 36.4409 36.8392C36.5347 36.6875 36.5332 36.6547 36.4296 36.5767C36.3644 36.5276 35.9121 36.1351 35.4244 35.7043L34.5376 34.9211L34.9958 34.7147ZM30.1965 34.125C29.892 34.125 29.8463 34.1024 29.7796 33.9188C29.574 33.3527 29.5687 33.3516 29.4088 33.8438C29.3189 34.1202 29.3108 34.1251 28.9264 34.1279L28.5354 34.1306L28.8284 34.3795C29.1165 34.6242 29.1198 34.6328 29.0287 34.9067C28.9778 35.0598 28.95 35.1988 28.9668 35.2156C28.9838 35.2323 29.1226 35.1617 29.2754 35.0588L29.5532 34.8714L29.8641 35.0661C30.035 35.1732 30.1891 35.2468 30.2064 35.2296C30.2237 35.2124 30.1885 35.0596 30.1282 34.89L30.0185 34.5817L30.2785 34.4222C30.6286 34.2076 30.6059 34.125 30.1965 34.125ZM19.1681 34.425C18.808 34.3887 18.7926 34.3772 18.6893 34.0687C18.6306 33.8935 18.5589 33.75 18.53 33.75C18.5009 33.75 18.4272 33.8935 18.3662 34.0687C18.2586 34.3775 18.2433 34.3887 17.8772 34.425L17.4992 34.4625L17.7638 34.6445C17.9093 34.7446 18.0402 34.8351 18.0548 34.8457C18.0693 34.8563 18.0404 34.9875 17.9906 35.1375C17.9407 35.2874 17.9188 35.4289 17.942 35.4518C17.9651 35.4748 18.1083 35.4208 18.2602 35.332L18.5362 35.1703L18.8681 35.3633C19.0506 35.4694 19.2 35.5423 19.2 35.5251C19.2 35.5079 19.1486 35.3494 19.0858 35.1727C19.023 34.9962 18.9805 34.8459 18.9913 34.839C19.0022 34.8321 19.1301 34.7446 19.2756 34.6445L19.5402 34.4625L19.1681 34.425ZM29.9339 36.5121C30.7542 36.0779 31.9525 35.2822 32.6173 34.7305C32.8668 34.5235 33.0959 34.3616 33.1264 34.3708C33.157 34.38 33.7781 34.8738 34.5068 35.4681C35.3136 36.1262 35.6933 36.3752 35.6825 36.6061C35.6726 36.8176 35.3349 37.0137 34.6978 37.4954C33.4105 38.4683 32.52 39.0266 31.2897 39.6319C28.7354 40.8885 26.0906 41.4722 23.3953 41.3738C22.0263 41.3239 21.2148 41.2152 19.983 40.9169C17.9655 40.4283 15.7351 39.3712 13.9087 38.0379C13.231 37.5432 12.0945 36.5941 12.0945 36.5228C12.0945 36.4844 13.9871 34.9216 14.5672 34.481C14.6305 34.4329 14.9018 34.6046 15.4457 35.0369C16.8443 36.1486 18.6217 37.0795 20.2205 37.5376C23.4172 38.4536 26.9762 38.0778 29.9339 36.5121ZM26.5725 35.3573L26.4566 35.0461C26.3929 34.875 26.3222 34.7166 26.2996 34.6942C26.277 34.6718 26.1879 34.8192 26.1016 35.0219C25.951 35.3755 25.9311 35.3915 25.6148 35.414L25.285 35.4375L25.5673 35.6116L25.8495 35.7857L25.7374 36.0521C25.5686 36.4527 25.596 36.4823 25.9456 36.2775L26.2661 36.0897L26.6008 36.2843L26.9355 36.4789L26.8833 36.2957C26.7681 35.8921 26.7433 35.7 26.8063 35.6996C26.8427 35.6994 26.9745 35.6144 27.0992 35.5106L27.326 35.3219L26.9492 35.3396L26.5725 35.3573ZM22.5508 35.3854C22.2089 35.3633 22.1943 35.3524 22.091 35.0438C22.0323 34.8685 21.9575 34.725 21.9248 34.725C21.8921 34.725 21.8225 34.8769 21.7701 35.0625L21.6748 35.4H21.3067C21.1043 35.4 20.939 35.4253 20.9395 35.4562C20.94 35.4872 21.0624 35.5909 21.2115 35.6867C21.4261 35.8247 21.4729 35.8949 21.4367 36.0242C21.4115 36.114 21.3696 36.2671 21.3435 36.3644L21.2961 36.5412L21.6087 36.3644L21.9213 36.1875L22.2302 36.3622C22.4001 36.4583 22.5535 36.5227 22.5712 36.5052C22.5888 36.4877 22.5531 36.3326 22.4919 36.1605L22.3806 35.8476L22.6413 35.6801C22.7847 35.5879 22.9025 35.489 22.903 35.4604C22.9035 35.4316 22.745 35.3979 22.5508 35.3854ZM15.2693 35.4969C15.2693 35.4592 15.1686 35.3543 15.0455 35.2641C14.9226 35.1739 14.8119 35.1 14.7996 35.1C14.7874 35.1 14.5159 35.5303 14.1963 36.0563L13.6151 37.0125L13.8941 37.2534C14.2346 37.5474 14.2871 37.5518 14.5191 37.3056C14.6199 37.1987 14.765 37.0778 14.8415 37.0368C14.9557 36.9758 14.9442 37.0244 14.7771 37.3071C14.6652 37.4967 14.5915 37.6985 14.6136 37.7556C14.6356 37.8125 14.7742 37.9504 14.9215 38.0618L15.1894 38.2645L15.9852 37.5272C16.423 37.1215 16.7811 36.7534 16.7811 36.709C16.7811 36.6646 16.6754 36.5507 16.5462 36.4559L16.3113 36.2836L15.892 36.6855L15.4727 37.0875L15.6495 36.7875C15.7467 36.6225 15.891 36.4033 15.9702 36.3003L16.1139 36.1132L15.8646 35.9066C15.7274 35.7929 15.5963 35.7 15.5732 35.7C15.5501 35.7 15.3462 35.8603 15.12 36.0563C14.6985 36.4214 14.6952 36.4115 15.0582 35.8766C15.1743 35.7056 15.2693 35.5348 15.2693 35.4969ZM33.7141 37.3754C34.2194 36.9536 34.1595 36.6343 33.4314 35.8688C33.0446 35.4621 32.9494 35.4 32.7127 35.4C32.3941 35.4 32.0425 35.6567 31.9028 35.9913C31.7863 36.2704 31.8614 36.4196 32.4522 37.082C32.8504 37.5288 32.919 37.575 33.1833 37.575C33.3889 37.575 33.5456 37.5161 33.7141 37.3754ZM33.4534 37.0319C33.3964 37.0874 32.4342 36.0934 32.4304 35.975C32.4259 35.8348 32.6325 35.9988 33.0595 36.4741C33.3076 36.7503 33.4849 37.0012 33.4534 37.0319ZM31.3701 37.3427C31.3701 37.2991 31.2707 37.1649 31.1491 37.0443C31.0276 36.9236 30.866 36.8271 30.7901 36.8297C30.3632 36.8444 29.8583 37.2607 29.8583 37.598C29.8583 37.8199 30.242 38.5171 30.5901 38.9276C30.8428 39.2255 31.2858 39.2425 31.5077 38.9625C31.5895 38.8594 31.7025 38.7739 31.7589 38.7726C31.8153 38.7713 31.924 38.7232 32.0004 38.6657C32.1326 38.5663 32.1239 38.5352 31.8237 38.0339L31.5079 37.5065L31.1933 37.7009C31.0203 37.8077 30.8675 37.9046 30.8537 37.9162C30.7973 37.9634 31.005 38.251 31.0677 38.2125C31.1372 38.1699 31.2945 38.4007 31.2945 38.545C31.2945 38.7407 31.1411 38.5836 30.8148 38.0537C30.6213 37.7396 30.463 37.4527 30.463 37.4162C30.463 37.2794 30.6206 37.357 30.7018 37.5338L30.7862 37.7175L31.0782 37.5698C31.2387 37.4885 31.3701 37.3863 31.3701 37.3427ZM18.3685 37.5367C18.3685 37.4925 18.1807 37.3649 17.9511 37.2531C17.7215 37.1414 17.5259 37.0505 17.5164 37.0509C17.507 37.0515 17.216 37.4808 16.8698 38.0051L16.2404 38.9584L16.5496 39.1069L16.8587 39.2556L16.9754 39.0902C17.1425 38.8535 17.2562 38.882 17.1978 39.1459C17.1532 39.3472 17.1762 39.3806 17.4578 39.5232C17.6912 39.6414 17.7749 39.6561 17.8 39.5835C17.8968 39.3036 18.3685 37.6055 18.3685 37.5367ZM29.6811 39.884L29.335 38.8045C29.1447 38.2108 28.972 37.7277 28.9512 37.731C28.8981 37.7393 28.4641 37.8923 28.4401 37.9111C28.4293 37.9196 28.4722 38.0721 28.5354 38.25C28.5987 38.4279 28.6388 38.585 28.6245 38.5992C28.6102 38.6134 28.489 38.4897 28.3551 38.3245C28.1479 38.0687 28.0816 38.0311 27.9079 38.0717C27.7957 38.0979 27.6753 38.1451 27.6403 38.1766C27.6053 38.2081 27.7226 38.6964 27.9009 39.2618L28.2253 40.2898L28.4842 40.248C28.6266 40.2252 28.7598 40.1899 28.78 40.1698C28.8004 40.1496 28.7628 39.971 28.6965 39.7728L28.5761 39.4125L28.7596 39.6183C28.8606 39.7316 28.9736 39.8779 29.0106 39.9437C29.0686 40.0464 29.1205 40.0506 29.3795 39.9736L29.6811 39.884ZM20.0756 38.2313C20.1043 38.1411 20.0626 38.0798 19.9421 38.035C19.7406 37.9603 19.6269 37.9055 19.5421 37.9347C19.4112 37.9797 19.3491 38.225 19.139 38.906C18.9639 39.4733 18.821 39.9601 18.8214 39.9876C18.8221 40.0439 19.7993 40.3804 19.8412 40.3388C19.856 40.3242 19.892 40.2174 19.9213 40.1015C19.9657 39.9263 19.9476 39.8838 19.8141 39.8492C19.7258 39.8263 19.6535 39.7668 19.6535 39.717C19.6535 39.6432 19.8735 38.8691 20.0756 38.2313ZM17.3784 38.55C17.2811 38.55 17.293 38.4896 17.4385 38.2451C17.5091 38.1266 17.5773 38.04 17.5901 38.0527C17.6366 38.0989 17.4446 38.55 17.3784 38.55ZM21.6424 40.5613C21.7157 40.2613 21.9376 38.5412 21.907 38.5109C21.8986 38.5026 21.8546 38.4893 21.791 38.4747C21.7323 38.4613 21.6571 38.4468 21.578 38.4343L21.2781 38.3867L21.107 39.492C21.0129 40.1 20.945 40.6053 20.9561 40.6151C20.9672 40.6249 21.1167 40.6558 21.2882 40.684C21.5717 40.7304 21.6039 40.7192 21.6424 40.5613ZM26.8851 39.4304C26.7951 38.9005 26.7291 38.7073 26.6037 38.6066C26.3631 38.4133 25.7783 38.4304 25.5117 38.6385C25.3046 38.8001 25.3027 38.8094 25.3447 39.4526C25.3916 40.171 25.5325 40.5955 25.765 40.719C26.1578 40.9275 26.8597 40.6884 26.9545 40.3136C26.9811 40.2086 26.9498 39.8112 26.8851 39.4304ZM24.4157 39.1841C24.4157 39.0791 24.3322 38.9104 24.2302 38.8091C24.0784 38.6584 23.9694 38.625 23.631 38.625C23.2741 38.625 23.1958 38.6522 23.0606 38.8226C22.7717 39.1871 22.8846 39.5775 23.3841 39.9402C23.7071 40.1749 23.8484 40.5 23.6273 40.5C23.5459 40.5 23.5087 40.4294 23.5087 40.275C23.5087 40.0625 23.4919 40.05 23.2063 40.05C22.906 40.05 22.9039 40.0519 22.9039 40.3384C22.9039 40.7173 23.0971 40.8866 23.5823 40.9328C24.0401 40.9766 24.3041 40.8337 24.3773 40.5027C24.4597 40.1309 24.3043 39.8122 23.9246 39.5743C23.5982 39.37 23.4867 39.1437 23.6598 39.0375C23.7027 39.0112 23.7354 39.0743 23.7354 39.1831C23.7354 39.3605 23.7611 39.375 24.0756 39.375C24.3897 39.375 24.4157 39.3604 24.4157 39.1841ZM26.2461 40.35C26.1645 40.35 26.0031 39.5586 26.0031 39.1582C26.0031 38.7686 26.1321 38.9591 26.1873 39.4303C26.2151 39.668 26.2569 39.9722 26.2801 40.1063C26.3047 40.2479 26.2904 40.35 26.2461 40.35ZM19.2 43.2716C19.2 43.0947 18.8817 42.75 18.7183 42.75C18.6574 42.75 18.5623 42.7366 18.507 42.7203C18.3184 42.6647 17.8812 42.8126 17.7467 42.9774C17.591 43.168 17.5706 43.566 17.7071 43.7456C17.7591 43.814 17.9995 43.9561 18.2415 44.0613C18.7294 44.2736 18.8109 44.4921 18.4189 44.5368C18.2556 44.5554 18.1965 44.5248 18.1651 44.4056C18.1325 44.2819 18.064 44.25 17.8305 44.25C17.5913 44.25 17.537 44.2767 17.537 44.3942C17.537 44.4736 17.6251 44.6423 17.7327 44.7692C17.9127 44.9814 17.9662 45 18.3999 45C18.7998 45 18.8971 44.9727 19.0419 44.8198C19.1357 44.7208 19.2299 44.5099 19.2512 44.3511C19.3035 43.9623 19.0823 43.6861 18.6094 43.5494C18.209 43.4337 18.0695 43.2 18.4008 43.2C18.5232 43.2 18.5953 43.2416 18.5953 43.3125C18.5953 43.3937 18.6793 43.425 18.8976 43.425C19.1519 43.425 19.2 43.4006 19.2 43.2716ZM21.2917 43.8448C21.5184 43.5831 21.5161 43.2641 21.2853 42.9979C21.1144 42.8008 21.0597 42.7858 20.416 42.7614L19.7291 42.7351V43.8676V45H20.0315H20.3339V44.5523C20.3339 43.9884 20.4729 44.0033 20.7141 44.5931C20.88 44.9987 20.8817 45 21.2119 45C21.6069 45 21.6172 44.9503 21.3281 44.4302L21.1155 44.0479L21.2917 43.8448ZM23.811 44.9557C23.811 44.9312 23.6552 44.425 23.4648 43.8307L23.1187 42.75H22.825C22.6221 42.75 22.5098 42.7906 22.4618 42.8812C22.4048 42.989 22.0256 44.1255 21.8111 44.8312C21.7639 44.9869 21.7837 45 22.0674 45C22.287 45 22.3748 44.9686 22.3748 44.8901C22.3748 44.6154 23.0844 44.5869 23.1711 44.8582C23.2055 44.9656 23.2885 45 23.5137 45C23.6772 45 23.811 44.98 23.811 44.9557ZM25.9276 43.3093C25.9276 43.1119 25.828 42.9666 25.6198 42.8597C25.333 42.7126 24.8044 42.7242 24.5457 42.8833C24.299 43.0349 24.0376 43.5289 24.0383 43.8425C24.0401 44.8083 24.7455 45.2933 25.6113 44.9238L26.0031 44.7565V44.2408V43.725H25.5496H25.0961V43.9875C25.0961 44.2175 25.1195 44.25 25.285 44.25C25.5826 44.25 25.5184 44.4599 25.2029 44.5187C25.0117 44.5543 24.8995 44.5371 24.8224 44.4606C24.527 44.1676 24.683 43.275 25.0295 43.275C25.1219 43.275 25.2542 43.3259 25.3234 43.3881C25.472 43.5215 25.9276 43.462 25.9276 43.3093ZM28.1293 43.275L28.1055 43.0312L28.0819 42.7875L27.3221 42.7663C26.9043 42.7546 26.5386 42.7687 26.5095 42.7975C26.4805 42.8264 26.4567 43.3337 26.4567 43.925V45H27.2882H28.1197V44.7375V44.475H27.6283C27.1573 44.475 27.137 44.4674 27.137 44.2913C27.137 44.1202 27.1669 44.1059 27.5717 44.085C27.9831 44.0637 28.0076 44.0515 28.0302 43.8563C28.054 43.6513 28.0512 43.65 27.5955 43.65C27.1568 43.65 27.137 43.6419 27.137 43.4625C27.137 43.2816 27.1543 43.275 27.6331 43.275H28.1293ZM29.7235 43.751C29.6521 43.662 29.5002 43.4174 29.3858 43.2072C29.1892 42.8457 29.1616 42.825 28.8756 42.825H28.5732V43.9125V45H28.8756H29.1779L29.1793 44.4562L29.1807 43.9125L29.522 44.4938C29.8439 45.0417 29.8784 45.075 30.1254 45.075H30.3874V43.95V42.825H30.1228H29.8583L29.8558 43.3688C29.8533 43.8956 29.8492 43.9075 29.7235 43.751ZM20.5795 43.636C20.3587 43.6571 20.3339 43.6396 20.3339 43.4625C20.3339 43.2854 20.3587 43.2679 20.5795 43.289C20.7669 43.3069 20.8252 43.3481 20.8252 43.4625C20.8252 43.5769 20.7669 43.618 20.5795 43.636ZM22.6263 44.149C22.5921 44.1107 22.6208 44.016 22.6915 43.7822C22.7859 43.4695 22.8153 43.4924 22.9319 43.9688C22.9769 44.1524 22.9615 44.175 22.792 44.175C22.7027 44.175 22.6497 44.1752 22.6263 44.149ZM24.2457 47.9796C24.0898 47.9958 23.8347 47.9958 23.6787 47.9796C23.5229 47.9635 23.6504 47.9502 23.9622 47.9502C24.274 47.9502 24.4016 47.9635 24.2457 47.9796Z" fill="black"/>
</svg>
