<svg width="40" height="48" viewBox="0 0 40 48" xmlns="http://www.w3.org/2000/svg">
<path fill-rule="evenodd" clip-rule="evenodd" d="M18.8235 23.5294C25.321 23.5294 30.5882 18.2622 30.5882 11.7647C30.5882 5.26724 25.321 0 18.8235 0C12.3261 0 7.05882 5.26724 7.05882 11.7647C7.05882 18.2622 12.3261 23.5294 18.8235 23.5294ZM29.47 21.1765C27.5879 25.167 23.5282 27.9286 18.8235 27.9286C14.5917 27.9286 10.8818 25.6942 8.80903 22.341C3.49393 26.3588 0 33.1582 0 40.8697C0 43.0169 0.270881 45.0934 0.776534 47.0588H39.2235C39.7291 45.0934 40 43.0169 40 40.8697C40 32.3538 35.7391 24.9501 29.47 21.1765Z" />
<path d="M18.3918 36.3897C18.3918 36.3898 18.3921 36.3892 18.3929 36.3879C18.3922 36.3891 18.3919 36.3897 18.3918 36.3897Z" stroke="white"/>
</svg>
